<?xml version="1.0" encoding="utf-8" standalone="no"?>
<!DOCTYPE svg PUBLIC "-//W3C//DTD SVG 1.1//EN"
  "http://www.w3.org/Graphics/SVG/1.1/DTD/svg11.dtd">
<!-- Created with matplotlib (https://matplotlib.org/) -->
<svg height="337.652205pt" version="1.1" viewBox="0 0 453.663125 337.652205" width="453.663125pt" xmlns="http://www.w3.org/2000/svg" xmlns:xlink="http://www.w3.org/1999/xlink">
 <defs>
  <style type="text/css">
*{stroke-linecap:butt;stroke-linejoin:round;white-space:pre;}
  </style>
 </defs>
 <g id="figure_1">
  <g id="patch_1">
   <path d="M 0 337.652205 
L 453.663125 337.652205 
L 453.663125 0 
L 0 0 
z
" style="fill:#ffffff;"/>
  </g>
  <g id="axes_1">
   <g id="patch_2">
    <path d="M 30.103125 76.895955 
L 446.463125 76.895955 
L 446.463125 9.681284 
L 30.103125 9.681284 
z
" style="fill:#ffffff;"/>
   </g>
   <g id="matplotlib.axis_1">
    <g id="xtick_1">
     <g id="line2d_1">
      <defs>
       <path d="M 0 0 
L 0 3.5 
" id="mc9a5e71edf" style="stroke:#000000;stroke-width:0.8;"/>
      </defs>
      <g>
       <use style="stroke:#000000;stroke-width:0.8;" x="134.193125" xlink:href="#mc9a5e71edf" y="76.895955"/>
      </g>
     </g>
     <g id="text_1">
      <!-- D30 -->
      <defs>
       <path d="M 19.671875 64.796875 
L 19.671875 8.109375 
L 31.59375 8.109375 
Q 46.6875 8.109375 53.6875 14.9375 
Q 60.6875 21.78125 60.6875 36.53125 
Q 60.6875 51.171875 53.6875 57.984375 
Q 46.6875 64.796875 31.59375 64.796875 
z
M 9.8125 72.90625 
L 30.078125 72.90625 
Q 51.265625 72.90625 61.171875 64.09375 
Q 71.09375 55.28125 71.09375 36.53125 
Q 71.09375 17.671875 61.125 8.828125 
Q 51.171875 0 30.078125 0 
L 9.8125 0 
z
" id="DejaVuSans-68"/>
       <path d="M 40.578125 39.3125 
Q 47.65625 37.796875 51.625 33 
Q 55.609375 28.21875 55.609375 21.1875 
Q 55.609375 10.40625 48.1875 4.484375 
Q 40.765625 -1.421875 27.09375 -1.421875 
Q 22.515625 -1.421875 17.65625 -0.515625 
Q 12.796875 0.390625 7.625 2.203125 
L 7.625 11.71875 
Q 11.71875 9.328125 16.59375 8.109375 
Q 21.484375 6.890625 26.8125 6.890625 
Q 36.078125 6.890625 40.9375 10.546875 
Q 45.796875 14.203125 45.796875 21.1875 
Q 45.796875 27.640625 41.28125 31.265625 
Q 36.765625 34.90625 28.71875 34.90625 
L 20.21875 34.90625 
L 20.21875 43.015625 
L 29.109375 43.015625 
Q 36.375 43.015625 40.234375 45.921875 
Q 44.09375 48.828125 44.09375 54.296875 
Q 44.09375 59.90625 40.109375 62.90625 
Q 36.140625 65.921875 28.71875 65.921875 
Q 24.65625 65.921875 20.015625 65.03125 
Q 15.375 64.15625 9.8125 62.3125 
L 9.8125 71.09375 
Q 15.4375 72.65625 20.34375 73.4375 
Q 25.25 74.21875 29.59375 74.21875 
Q 40.828125 74.21875 47.359375 69.109375 
Q 53.90625 64.015625 53.90625 55.328125 
Q 53.90625 49.265625 50.4375 45.09375 
Q 46.96875 40.921875 40.578125 39.3125 
z
" id="DejaVuSans-51"/>
       <path d="M 31.78125 66.40625 
Q 24.171875 66.40625 20.328125 58.90625 
Q 16.5 51.421875 16.5 36.375 
Q 16.5 21.390625 20.328125 13.890625 
Q 24.171875 6.390625 31.78125 6.390625 
Q 39.453125 6.390625 43.28125 13.890625 
Q 47.125 21.390625 47.125 36.375 
Q 47.125 51.421875 43.28125 58.90625 
Q 39.453125 66.40625 31.78125 66.40625 
z
M 31.78125 74.21875 
Q 44.046875 74.21875 50.515625 64.515625 
Q 56.984375 54.828125 56.984375 36.375 
Q 56.984375 17.96875 50.515625 8.265625 
Q 44.046875 -1.421875 31.78125 -1.421875 
Q 19.53125 -1.421875 13.0625 8.265625 
Q 6.59375 17.96875 6.59375 36.375 
Q 6.59375 54.828125 13.0625 64.515625 
Q 19.53125 74.21875 31.78125 74.21875 
z
" id="DejaVuSans-48"/>
      </defs>
      <g transform="translate(123.980625 91.494393)scale(0.1 -0.1)">
       <use xlink:href="#DejaVuSans-68"/>
       <use x="77.001953" xlink:href="#DejaVuSans-51"/>
       <use x="140.625" xlink:href="#DejaVuSans-48"/>
      </g>
     </g>
    </g>
    <g id="xtick_2">
     <g id="line2d_2">
      <g>
       <use style="stroke:#000000;stroke-width:0.8;" x="342.373125" xlink:href="#mc9a5e71edf" y="76.895955"/>
      </g>
     </g>
     <g id="text_2">
      <!-- D30-R30 -->
      <defs>
       <path d="M 4.890625 31.390625 
L 31.203125 31.390625 
L 31.203125 23.390625 
L 4.890625 23.390625 
z
" id="DejaVuSans-45"/>
       <path d="M 44.390625 34.1875 
Q 47.5625 33.109375 50.5625 29.59375 
Q 53.5625 26.078125 56.59375 19.921875 
L 66.609375 0 
L 56 0 
L 46.6875 18.703125 
Q 43.0625 26.03125 39.671875 28.421875 
Q 36.28125 30.8125 30.421875 30.8125 
L 19.671875 30.8125 
L 19.671875 0 
L 9.8125 0 
L 9.8125 72.90625 
L 32.078125 72.90625 
Q 44.578125 72.90625 50.734375 67.671875 
Q 56.890625 62.453125 56.890625 51.90625 
Q 56.890625 45.015625 53.6875 40.46875 
Q 50.484375 35.9375 44.390625 34.1875 
z
M 19.671875 64.796875 
L 19.671875 38.921875 
L 32.078125 38.921875 
Q 39.203125 38.921875 42.84375 42.21875 
Q 46.484375 45.515625 46.484375 51.90625 
Q 46.484375 58.296875 42.84375 61.546875 
Q 39.203125 64.796875 32.078125 64.796875 
z
" id="DejaVuSans-82"/>
      </defs>
      <g transform="translate(320.52 91.494393)scale(0.1 -0.1)">
       <use xlink:href="#DejaVuSans-68"/>
       <use x="77.001953" xlink:href="#DejaVuSans-51"/>
       <use x="140.625" xlink:href="#DejaVuSans-48"/>
       <use x="204.248047" xlink:href="#DejaVuSans-45"/>
       <use x="240.332031" xlink:href="#DejaVuSans-82"/>
       <use x="309.814453" xlink:href="#DejaVuSans-51"/>
       <use x="373.4375" xlink:href="#DejaVuSans-48"/>
      </g>
     </g>
    </g>
    <g id="text_3">
     <!-- Recall -->
     <defs>
      <path d="M 56.203125 29.59375 
L 56.203125 25.203125 
L 14.890625 25.203125 
Q 15.484375 15.921875 20.484375 11.0625 
Q 25.484375 6.203125 34.421875 6.203125 
Q 39.59375 6.203125 44.453125 7.46875 
Q 49.3125 8.734375 54.109375 11.28125 
L 54.109375 2.78125 
Q 49.265625 0.734375 44.1875 -0.34375 
Q 39.109375 -1.421875 33.890625 -1.421875 
Q 20.796875 -1.421875 13.15625 6.1875 
Q 5.515625 13.8125 5.515625 26.8125 
Q 5.515625 40.234375 12.765625 48.109375 
Q 20.015625 56 32.328125 56 
Q 43.359375 56 49.78125 48.890625 
Q 56.203125 41.796875 56.203125 29.59375 
z
M 47.21875 32.234375 
Q 47.125 39.59375 43.09375 43.984375 
Q 39.0625 48.390625 32.421875 48.390625 
Q 24.90625 48.390625 20.390625 44.140625 
Q 15.875 39.890625 15.1875 32.171875 
z
" id="DejaVuSans-101"/>
      <path d="M 48.78125 52.59375 
L 48.78125 44.1875 
Q 44.96875 46.296875 41.140625 47.34375 
Q 37.3125 48.390625 33.40625 48.390625 
Q 24.65625 48.390625 19.8125 42.84375 
Q 14.984375 37.3125 14.984375 27.296875 
Q 14.984375 17.28125 19.8125 11.734375 
Q 24.65625 6.203125 33.40625 6.203125 
Q 37.3125 6.203125 41.140625 7.25 
Q 44.96875 8.296875 48.78125 10.40625 
L 48.78125 2.09375 
Q 45.015625 0.34375 40.984375 -0.53125 
Q 36.96875 -1.421875 32.421875 -1.421875 
Q 20.0625 -1.421875 12.78125 6.34375 
Q 5.515625 14.109375 5.515625 27.296875 
Q 5.515625 40.671875 12.859375 48.328125 
Q 20.21875 56 33.015625 56 
Q 37.15625 56 41.109375 55.140625 
Q 45.0625 54.296875 48.78125 52.59375 
z
" id="DejaVuSans-99"/>
      <path d="M 34.28125 27.484375 
Q 23.390625 27.484375 19.1875 25 
Q 14.984375 22.515625 14.984375 16.5 
Q 14.984375 11.71875 18.140625 8.90625 
Q 21.296875 6.109375 26.703125 6.109375 
Q 34.1875 6.109375 38.703125 11.40625 
Q 43.21875 16.703125 43.21875 25.484375 
L 43.21875 27.484375 
z
M 52.203125 31.203125 
L 52.203125 0 
L 43.21875 0 
L 43.21875 8.296875 
Q 40.140625 3.328125 35.546875 0.953125 
Q 30.953125 -1.421875 24.3125 -1.421875 
Q 15.921875 -1.421875 10.953125 3.296875 
Q 6 8.015625 6 15.921875 
Q 6 25.140625 12.171875 29.828125 
Q 18.359375 34.515625 30.609375 34.515625 
L 43.21875 34.515625 
L 43.21875 35.40625 
Q 43.21875 41.609375 39.140625 45 
Q 35.0625 48.390625 27.6875 48.390625 
Q 23 48.390625 18.546875 47.265625 
Q 14.109375 46.140625 10.015625 43.890625 
L 10.015625 52.203125 
Q 14.9375 54.109375 19.578125 55.046875 
Q 24.21875 56 28.609375 56 
Q 40.484375 56 46.34375 49.84375 
Q 52.203125 43.703125 52.203125 31.203125 
z
" id="DejaVuSans-97"/>
      <path d="M 9.421875 75.984375 
L 18.40625 75.984375 
L 18.40625 0 
L 9.421875 0 
z
" id="DejaVuSans-108"/>
     </defs>
     <g transform="translate(223.144063 105.172518)scale(0.1 -0.1)">
      <use xlink:href="#DejaVuSans-82"/>
      <use x="69.419922" xlink:href="#DejaVuSans-101"/>
      <use x="130.943359" xlink:href="#DejaVuSans-99"/>
      <use x="185.923828" xlink:href="#DejaVuSans-97"/>
      <use x="247.203125" xlink:href="#DejaVuSans-108"/>
      <use x="274.986328" xlink:href="#DejaVuSans-108"/>
     </g>
    </g>
   </g>
   <g id="matplotlib.axis_2">
    <g id="ytick_1">
     <g id="line2d_3">
      <defs>
       <path d="M 0 0 
L -3.5 0 
" id="m36478ececf" style="stroke:#000000;stroke-width:0.8;"/>
      </defs>
      <g>
       <use style="stroke:#000000;stroke-width:0.8;" x="30.103125" xlink:href="#m36478ececf" y="76.895955"/>
      </g>
     </g>
     <g id="text_4">
      <!-- 0.0 -->
      <defs>
       <path d="M 10.6875 12.40625 
L 21 12.40625 
L 21 0 
L 10.6875 0 
z
" id="DejaVuSans-46"/>
      </defs>
      <g transform="translate(7.2 80.695174)scale(0.1 -0.1)">
       <use xlink:href="#DejaVuSans-48"/>
       <use x="63.623047" xlink:href="#DejaVuSans-46"/>
       <use x="95.410156" xlink:href="#DejaVuSans-48"/>
      </g>
     </g>
    </g>
    <g id="ytick_2">
     <g id="line2d_4">
      <g>
       <use style="stroke:#000000;stroke-width:0.8;" x="30.103125" xlink:href="#m36478ececf" y="43.947587"/>
      </g>
     </g>
     <g id="text_5">
      <!-- 0.5 -->
      <defs>
       <path d="M 10.796875 72.90625 
L 49.515625 72.90625 
L 49.515625 64.59375 
L 19.828125 64.59375 
L 19.828125 46.734375 
Q 21.96875 47.46875 24.109375 47.828125 
Q 26.265625 48.1875 28.421875 48.1875 
Q 40.625 48.1875 47.75 41.5 
Q 54.890625 34.8125 54.890625 23.390625 
Q 54.890625 11.625 47.5625 5.09375 
Q 40.234375 -1.421875 26.90625 -1.421875 
Q 22.3125 -1.421875 17.546875 -0.640625 
Q 12.796875 0.140625 7.71875 1.703125 
L 7.71875 11.625 
Q 12.109375 9.234375 16.796875 8.0625 
Q 21.484375 6.890625 26.703125 6.890625 
Q 35.15625 6.890625 40.078125 11.328125 
Q 45.015625 15.765625 45.015625 23.390625 
Q 45.015625 31 40.078125 35.4375 
Q 35.15625 39.890625 26.703125 39.890625 
Q 22.75 39.890625 18.8125 39.015625 
Q 14.890625 38.140625 10.796875 36.28125 
z
" id="DejaVuSans-53"/>
      </defs>
      <g transform="translate(7.2 47.746806)scale(0.1 -0.1)">
       <use xlink:href="#DejaVuSans-48"/>
       <use x="63.623047" xlink:href="#DejaVuSans-46"/>
       <use x="95.410156" xlink:href="#DejaVuSans-53"/>
      </g>
     </g>
    </g>
    <g id="ytick_3">
     <g id="line2d_5">
      <g>
       <use style="stroke:#000000;stroke-width:0.8;" x="30.103125" xlink:href="#m36478ececf" y="10.999219"/>
      </g>
     </g>
     <g id="text_6">
      <!-- 1.0 -->
      <defs>
       <path d="M 12.40625 8.296875 
L 28.515625 8.296875 
L 28.515625 63.921875 
L 10.984375 60.40625 
L 10.984375 69.390625 
L 28.421875 72.90625 
L 38.28125 72.90625 
L 38.28125 8.296875 
L 54.390625 8.296875 
L 54.390625 0 
L 12.40625 0 
z
" id="DejaVuSans-49"/>
      </defs>
      <g transform="translate(7.2 14.798437)scale(0.1 -0.1)">
       <use xlink:href="#DejaVuSans-49"/>
       <use x="63.623047" xlink:href="#DejaVuSans-46"/>
       <use x="95.410156" xlink:href="#DejaVuSans-48"/>
      </g>
     </g>
    </g>
   </g>
   <g id="line2d_6">
    <path clip-path="url(#pb7ed1c3879)" d="M 118.579625 10.999219 
L 149.806625 10.999219 
L 149.806625 10.999219 
L 118.579625 10.999219 
L 118.579625 10.999219 
" style="fill:none;stroke:#000000;stroke-linecap:square;"/>
   </g>
   <g id="line2d_7">
    <path clip-path="url(#pb7ed1c3879)" d="M 134.193125 10.999219 
L 134.193125 10.999219 
" style="fill:none;stroke:#000000;stroke-linecap:square;"/>
   </g>
   <g id="line2d_8">
    <path clip-path="url(#pb7ed1c3879)" d="M 134.193125 10.999219 
L 134.193125 10.999219 
" style="fill:none;stroke:#000000;stroke-linecap:square;"/>
   </g>
   <g id="line2d_9">
    <path clip-path="url(#pb7ed1c3879)" d="M 126.386375 10.999219 
L 141.999875 10.999219 
" style="fill:none;stroke:#000000;stroke-linecap:square;"/>
   </g>
   <g id="line2d_10">
    <path clip-path="url(#pb7ed1c3879)" d="M 126.386375 10.999219 
L 141.999875 10.999219 
" style="fill:none;stroke:#000000;stroke-linecap:square;"/>
   </g>
   <g id="line2d_11"/>
   <g id="line2d_12">
    <path clip-path="url(#pb7ed1c3879)" d="M 326.759625 43.947587 
L 357.986625 43.947587 
L 357.986625 27.156592 
L 326.759625 27.156592 
L 326.759625 43.947587 
" style="fill:none;stroke:#000000;stroke-linecap:square;"/>
   </g>
   <g id="line2d_13">
    <path clip-path="url(#pb7ed1c3879)" d="M 342.373125 43.947587 
L 342.373125 66.757996 
" style="fill:none;stroke:#000000;stroke-linecap:square;"/>
   </g>
   <g id="line2d_14">
    <path clip-path="url(#pb7ed1c3879)" d="M 342.373125 27.156592 
L 342.373125 10.999219 
" style="fill:none;stroke:#000000;stroke-linecap:square;"/>
   </g>
   <g id="line2d_15">
    <path clip-path="url(#pb7ed1c3879)" d="M 334.566375 66.757996 
L 350.179875 66.757996 
" style="fill:none;stroke:#000000;stroke-linecap:square;"/>
   </g>
   <g id="line2d_16">
    <path clip-path="url(#pb7ed1c3879)" d="M 334.566375 10.999219 
L 350.179875 10.999219 
" style="fill:none;stroke:#000000;stroke-linecap:square;"/>
   </g>
   <g id="line2d_17">
    <defs>
     <path d="M 0 3 
C 0.795609 3 1.55874 2.683901 2.12132 2.12132 
C 2.683901 1.55874 3 0.795609 3 0 
C 3 -0.795609 2.683901 -1.55874 2.12132 -2.12132 
C 1.55874 -2.683901 0.795609 -3 0 -3 
C -0.795609 -3 -1.55874 -2.683901 -2.12132 -2.12132 
C -2.683901 -1.55874 -3 -0.795609 -3 0 
C -3 0.795609 -2.683901 1.55874 -2.12132 2.12132 
C -1.55874 2.683901 -0.795609 3 0 3 
z
" id="mf104e9a96c" style="stroke:#000000;"/>
    </defs>
    <g clip-path="url(#pb7ed1c3879)">
     <use style="fill-opacity:0;stroke:#000000;" x="342.373125" xlink:href="#mf104e9a96c" y="76.895955"/>
     <use style="fill-opacity:0;stroke:#000000;" x="342.373125" xlink:href="#mf104e9a96c" y="76.895955"/>
     <use style="fill-opacity:0;stroke:#000000;" x="342.373125" xlink:href="#mf104e9a96c" y="76.895955"/>
     <use style="fill-opacity:0;stroke:#000000;" x="342.373125" xlink:href="#mf104e9a96c" y="76.895955"/>
     <use style="fill-opacity:0;stroke:#000000;" x="342.373125" xlink:href="#mf104e9a96c" y="76.895955"/>
     <use style="fill-opacity:0;stroke:#000000;" x="342.373125" xlink:href="#mf104e9a96c" y="76.895955"/>
     <use style="fill-opacity:0;stroke:#000000;" x="342.373125" xlink:href="#mf104e9a96c" y="76.895955"/>
     <use style="fill-opacity:0;stroke:#000000;" x="342.373125" xlink:href="#mf104e9a96c" y="76.895955"/>
     <use style="fill-opacity:0;stroke:#000000;" x="342.373125" xlink:href="#mf104e9a96c" y="76.895955"/>
     <use style="fill-opacity:0;stroke:#000000;" x="342.373125" xlink:href="#mf104e9a96c" y="76.895955"/>
     <use style="fill-opacity:0;stroke:#000000;" x="342.373125" xlink:href="#mf104e9a96c" y="76.895955"/>
     <use style="fill-opacity:0;stroke:#000000;" x="342.373125" xlink:href="#mf104e9a96c" y="76.895955"/>
     <use style="fill-opacity:0;stroke:#000000;" x="342.373125" xlink:href="#mf104e9a96c" y="76.895955"/>
     <use style="fill-opacity:0;stroke:#000000;" x="342.373125" xlink:href="#mf104e9a96c" y="76.895955"/>
     <use style="fill-opacity:0;stroke:#000000;" x="342.373125" xlink:href="#mf104e9a96c" y="76.895955"/>
     <use style="fill-opacity:0;stroke:#000000;" x="342.373125" xlink:href="#mf104e9a96c" y="76.895955"/>
     <use style="fill-opacity:0;stroke:#000000;" x="342.373125" xlink:href="#mf104e9a96c" y="76.895955"/>
     <use style="fill-opacity:0;stroke:#000000;" x="342.373125" xlink:href="#mf104e9a96c" y="76.895955"/>
     <use style="fill-opacity:0;stroke:#000000;" x="342.373125" xlink:href="#mf104e9a96c" y="76.895955"/>
     <use style="fill-opacity:0;stroke:#000000;" x="342.373125" xlink:href="#mf104e9a96c" y="76.895955"/>
     <use style="fill-opacity:0;stroke:#000000;" x="342.373125" xlink:href="#mf104e9a96c" y="76.895955"/>
     <use style="fill-opacity:0;stroke:#000000;" x="342.373125" xlink:href="#mf104e9a96c" y="76.895955"/>
     <use style="fill-opacity:0;stroke:#000000;" x="342.373125" xlink:href="#mf104e9a96c" y="76.895955"/>
     <use style="fill-opacity:0;stroke:#000000;" x="342.373125" xlink:href="#mf104e9a96c" y="76.895955"/>
     <use style="fill-opacity:0;stroke:#000000;" x="342.373125" xlink:href="#mf104e9a96c" y="76.895955"/>
     <use style="fill-opacity:0;stroke:#000000;" x="342.373125" xlink:href="#mf104e9a96c" y="76.895955"/>
     <use style="fill-opacity:0;stroke:#000000;" x="342.373125" xlink:href="#mf104e9a96c" y="76.895955"/>
     <use style="fill-opacity:0;stroke:#000000;" x="342.373125" xlink:href="#mf104e9a96c" y="76.895955"/>
     <use style="fill-opacity:0;stroke:#000000;" x="342.373125" xlink:href="#mf104e9a96c" y="76.895955"/>
     <use style="fill-opacity:0;stroke:#000000;" x="342.373125" xlink:href="#mf104e9a96c" y="76.895955"/>
     <use style="fill-opacity:0;stroke:#000000;" x="342.373125" xlink:href="#mf104e9a96c" y="76.895955"/>
     <use style="fill-opacity:0;stroke:#000000;" x="342.373125" xlink:href="#mf104e9a96c" y="70.306282"/>
    </g>
   </g>
   <g id="line2d_18">
    <path clip-path="url(#pb7ed1c3879)" d="M 118.579625 10.999219 
L 149.806625 10.999219 
" style="fill:none;stroke:#ff7f0e;stroke-linecap:square;"/>
   </g>
   <g id="line2d_19">
    <path clip-path="url(#pb7ed1c3879)" d="M 326.759625 37.357913 
L 357.986625 37.357913 
" style="fill:none;stroke:#ff7f0e;stroke-linecap:square;"/>
   </g>
   <g id="patch_3">
    <path d="M 30.103125 76.895955 
L 30.103125 9.681284 
" style="fill:none;stroke:#000000;stroke-linecap:square;stroke-linejoin:miter;stroke-width:0.8;"/>
   </g>
   <g id="patch_4">
    <path d="M 446.463125 76.895955 
L 446.463125 9.681284 
" style="fill:none;stroke:#000000;stroke-linecap:square;stroke-linejoin:miter;stroke-width:0.8;"/>
   </g>
   <g id="patch_5">
    <path d="M 30.103125 76.895955 
L 446.463125 76.895955 
" style="fill:none;stroke:#000000;stroke-linecap:square;stroke-linejoin:miter;stroke-width:0.8;"/>
   </g>
   <g id="patch_6">
    <path d="M 30.103125 9.681284 
L 446.463125 9.681284 
" style="fill:none;stroke:#000000;stroke-linecap:square;stroke-linejoin:miter;stroke-width:0.8;"/>
   </g>
  </g>
  <g id="axes_2">
   <g id="patch_7">
    <path d="M 30.103125 188.495955 
L 446.463125 188.495955 
L 446.463125 121.281284 
L 30.103125 121.281284 
z
" style="fill:#ffffff;"/>
   </g>
   <g id="matplotlib.axis_3">
    <g id="xtick_3">
     <g id="line2d_20">
      <g>
       <use style="stroke:#000000;stroke-width:0.8;" x="134.193125" xlink:href="#mc9a5e71edf" y="188.495955"/>
      </g>
     </g>
     <g id="text_7">
      <!-- D30 -->
      <g transform="translate(123.980625 203.094393)scale(0.1 -0.1)">
       <use xlink:href="#DejaVuSans-68"/>
       <use x="77.001953" xlink:href="#DejaVuSans-51"/>
       <use x="140.625" xlink:href="#DejaVuSans-48"/>
      </g>
     </g>
    </g>
    <g id="xtick_4">
     <g id="line2d_21">
      <g>
       <use style="stroke:#000000;stroke-width:0.8;" x="342.373125" xlink:href="#mc9a5e71edf" y="188.495955"/>
      </g>
     </g>
     <g id="text_8">
      <!-- D30-R30 -->
      <g transform="translate(320.52 203.094393)scale(0.1 -0.1)">
       <use xlink:href="#DejaVuSans-68"/>
       <use x="77.001953" xlink:href="#DejaVuSans-51"/>
       <use x="140.625" xlink:href="#DejaVuSans-48"/>
       <use x="204.248047" xlink:href="#DejaVuSans-45"/>
       <use x="240.332031" xlink:href="#DejaVuSans-82"/>
       <use x="309.814453" xlink:href="#DejaVuSans-51"/>
       <use x="373.4375" xlink:href="#DejaVuSans-48"/>
      </g>
     </g>
    </g>
    <g id="text_9">
     <!-- Precision -->
     <defs>
      <path d="M 19.671875 64.796875 
L 19.671875 37.40625 
L 32.078125 37.40625 
Q 38.96875 37.40625 42.71875 40.96875 
Q 46.484375 44.53125 46.484375 51.125 
Q 46.484375 57.671875 42.71875 61.234375 
Q 38.96875 64.796875 32.078125 64.796875 
z
M 9.8125 72.90625 
L 32.078125 72.90625 
Q 44.34375 72.90625 50.609375 67.359375 
Q 56.890625 61.8125 56.890625 51.125 
Q 56.890625 40.328125 50.609375 34.8125 
Q 44.34375 29.296875 32.078125 29.296875 
L 19.671875 29.296875 
L 19.671875 0 
L 9.8125 0 
z
" id="DejaVuSans-80"/>
      <path d="M 41.109375 46.296875 
Q 39.59375 47.171875 37.8125 47.578125 
Q 36.03125 48 33.890625 48 
Q 26.265625 48 22.1875 43.046875 
Q 18.109375 38.09375 18.109375 28.8125 
L 18.109375 0 
L 9.078125 0 
L 9.078125 54.6875 
L 18.109375 54.6875 
L 18.109375 46.1875 
Q 20.953125 51.171875 25.484375 53.578125 
Q 30.03125 56 36.53125 56 
Q 37.453125 56 38.578125 55.875 
Q 39.703125 55.765625 41.0625 55.515625 
z
" id="DejaVuSans-114"/>
      <path d="M 9.421875 54.6875 
L 18.40625 54.6875 
L 18.40625 0 
L 9.421875 0 
z
M 9.421875 75.984375 
L 18.40625 75.984375 
L 18.40625 64.59375 
L 9.421875 64.59375 
z
" id="DejaVuSans-105"/>
      <path d="M 44.28125 53.078125 
L 44.28125 44.578125 
Q 40.484375 46.53125 36.375 47.5 
Q 32.28125 48.484375 27.875 48.484375 
Q 21.1875 48.484375 17.84375 46.4375 
Q 14.5 44.390625 14.5 40.28125 
Q 14.5 37.15625 16.890625 35.375 
Q 19.28125 33.59375 26.515625 31.984375 
L 29.59375 31.296875 
Q 39.15625 29.25 43.1875 25.515625 
Q 47.21875 21.78125 47.21875 15.09375 
Q 47.21875 7.46875 41.1875 3.015625 
Q 35.15625 -1.421875 24.609375 -1.421875 
Q 20.21875 -1.421875 15.453125 -0.5625 
Q 10.6875 0.296875 5.421875 2 
L 5.421875 11.28125 
Q 10.40625 8.6875 15.234375 7.390625 
Q 20.0625 6.109375 24.8125 6.109375 
Q 31.15625 6.109375 34.5625 8.28125 
Q 37.984375 10.453125 37.984375 14.40625 
Q 37.984375 18.0625 35.515625 20.015625 
Q 33.0625 21.96875 24.703125 23.78125 
L 21.578125 24.515625 
Q 13.234375 26.265625 9.515625 29.90625 
Q 5.8125 33.546875 5.8125 39.890625 
Q 5.8125 47.609375 11.28125 51.796875 
Q 16.75 56 26.8125 56 
Q 31.78125 56 36.171875 55.265625 
Q 40.578125 54.546875 44.28125 53.078125 
z
" id="DejaVuSans-115"/>
      <path d="M 30.609375 48.390625 
Q 23.390625 48.390625 19.1875 42.75 
Q 14.984375 37.109375 14.984375 27.296875 
Q 14.984375 17.484375 19.15625 11.84375 
Q 23.34375 6.203125 30.609375 6.203125 
Q 37.796875 6.203125 41.984375 11.859375 
Q 46.1875 17.53125 46.1875 27.296875 
Q 46.1875 37.015625 41.984375 42.703125 
Q 37.796875 48.390625 30.609375 48.390625 
z
M 30.609375 56 
Q 42.328125 56 49.015625 48.375 
Q 55.71875 40.765625 55.71875 27.296875 
Q 55.71875 13.875 49.015625 6.21875 
Q 42.328125 -1.421875 30.609375 -1.421875 
Q 18.84375 -1.421875 12.171875 6.21875 
Q 5.515625 13.875 5.515625 27.296875 
Q 5.515625 40.765625 12.171875 48.375 
Q 18.84375 56 30.609375 56 
z
" id="DejaVuSans-111"/>
      <path d="M 54.890625 33.015625 
L 54.890625 0 
L 45.90625 0 
L 45.90625 32.71875 
Q 45.90625 40.484375 42.875 44.328125 
Q 39.84375 48.1875 33.796875 48.1875 
Q 26.515625 48.1875 22.3125 43.546875 
Q 18.109375 38.921875 18.109375 30.90625 
L 18.109375 0 
L 9.078125 0 
L 9.078125 54.6875 
L 18.109375 54.6875 
L 18.109375 46.1875 
Q 21.34375 51.125 25.703125 53.5625 
Q 30.078125 56 35.796875 56 
Q 45.21875 56 50.046875 50.171875 
Q 54.890625 44.34375 54.890625 33.015625 
z
" id="DejaVuSans-110"/>
     </defs>
     <g transform="translate(215.778437 216.772518)scale(0.1 -0.1)">
      <use xlink:href="#DejaVuSans-80"/>
      <use x="60.287109" xlink:href="#DejaVuSans-114"/>
      <use x="101.369141" xlink:href="#DejaVuSans-101"/>
      <use x="162.892578" xlink:href="#DejaVuSans-99"/>
      <use x="217.873047" xlink:href="#DejaVuSans-105"/>
      <use x="245.65625" xlink:href="#DejaVuSans-115"/>
      <use x="297.755859" xlink:href="#DejaVuSans-105"/>
      <use x="325.539062" xlink:href="#DejaVuSans-111"/>
      <use x="386.720703" xlink:href="#DejaVuSans-110"/>
     </g>
    </g>
   </g>
   <g id="matplotlib.axis_4">
    <g id="ytick_4">
     <g id="line2d_22">
      <g>
       <use style="stroke:#000000;stroke-width:0.8;" x="30.103125" xlink:href="#m36478ececf" y="188.495955"/>
      </g>
     </g>
     <g id="text_10">
      <!-- 0.0 -->
      <g transform="translate(7.2 192.295174)scale(0.1 -0.1)">
       <use xlink:href="#DejaVuSans-48"/>
       <use x="63.623047" xlink:href="#DejaVuSans-46"/>
       <use x="95.410156" xlink:href="#DejaVuSans-48"/>
      </g>
     </g>
    </g>
    <g id="ytick_5">
     <g id="line2d_23">
      <g>
       <use style="stroke:#000000;stroke-width:0.8;" x="30.103125" xlink:href="#m36478ececf" y="155.547587"/>
      </g>
     </g>
     <g id="text_11">
      <!-- 0.5 -->
      <g transform="translate(7.2 159.346806)scale(0.1 -0.1)">
       <use xlink:href="#DejaVuSans-48"/>
       <use x="63.623047" xlink:href="#DejaVuSans-46"/>
       <use x="95.410156" xlink:href="#DejaVuSans-53"/>
      </g>
     </g>
    </g>
    <g id="ytick_6">
     <g id="line2d_24">
      <g>
       <use style="stroke:#000000;stroke-width:0.8;" x="30.103125" xlink:href="#m36478ececf" y="122.599219"/>
      </g>
     </g>
     <g id="text_12">
      <!-- 1.0 -->
      <g transform="translate(7.2 126.398437)scale(0.1 -0.1)">
       <use xlink:href="#DejaVuSans-49"/>
       <use x="63.623047" xlink:href="#DejaVuSans-46"/>
       <use x="95.410156" xlink:href="#DejaVuSans-48"/>
      </g>
     </g>
    </g>
   </g>
   <g id="line2d_25">
    <path clip-path="url(#p4b2418e1d0)" d="M 118.579625 135.778566 
L 149.806625 135.778566 
L 149.806625 122.599219 
L 118.579625 122.599219 
L 118.579625 135.778566 
" style="fill:none;stroke:#000000;stroke-linecap:square;"/>
   </g>
   <g id="line2d_26">
    <path clip-path="url(#p4b2418e1d0)" d="M 134.193125 135.778566 
L 134.193125 153.013097 
" style="fill:none;stroke:#000000;stroke-linecap:square;"/>
   </g>
   <g id="line2d_27">
    <path clip-path="url(#p4b2418e1d0)" d="M 134.193125 122.599219 
L 134.193125 122.599219 
" style="fill:none;stroke:#000000;stroke-linecap:square;"/>
   </g>
   <g id="line2d_28">
    <path clip-path="url(#p4b2418e1d0)" d="M 126.386375 153.013097 
L 141.999875 153.013097 
" style="fill:none;stroke:#000000;stroke-linecap:square;"/>
   </g>
   <g id="line2d_29">
    <path clip-path="url(#p4b2418e1d0)" d="M 126.386375 122.599219 
L 141.999875 122.599219 
" style="fill:none;stroke:#000000;stroke-linecap:square;"/>
   </g>
   <g id="line2d_30">
    <g clip-path="url(#p4b2418e1d0)">
     <use style="fill-opacity:0;stroke:#000000;" x="134.193125" xlink:href="#mf104e9a96c" y="155.547587"/>
     <use style="fill-opacity:0;stroke:#000000;" x="134.193125" xlink:href="#mf104e9a96c" y="155.547587"/>
     <use style="fill-opacity:0;stroke:#000000;" x="134.193125" xlink:href="#mf104e9a96c" y="155.547587"/>
     <use style="fill-opacity:0;stroke:#000000;" x="134.193125" xlink:href="#mf104e9a96c" y="155.547587"/>
     <use style="fill-opacity:0;stroke:#000000;" x="134.193125" xlink:href="#mf104e9a96c" y="155.547587"/>
     <use style="fill-opacity:0;stroke:#000000;" x="134.193125" xlink:href="#mf104e9a96c" y="188.495955"/>
     <use style="fill-opacity:0;stroke:#000000;" x="134.193125" xlink:href="#mf104e9a96c" y="161.038982"/>
     <use style="fill-opacity:0;stroke:#000000;" x="134.193125" xlink:href="#mf104e9a96c" y="158.542893"/>
     <use style="fill-opacity:0;stroke:#000000;" x="134.193125" xlink:href="#mf104e9a96c" y="155.547587"/>
     <use style="fill-opacity:0;stroke:#000000;" x="134.193125" xlink:href="#mf104e9a96c" y="155.547587"/>
     <use style="fill-opacity:0;stroke:#000000;" x="134.193125" xlink:href="#mf104e9a96c" y="155.547587"/>
    </g>
   </g>
   <g id="line2d_31">
    <path clip-path="url(#p4b2418e1d0)" d="M 326.759625 144.564798 
L 357.986625 144.564798 
L 357.986625 129.921078 
L 326.759625 129.921078 
L 326.759625 144.564798 
" style="fill:none;stroke:#000000;stroke-linecap:square;"/>
   </g>
   <g id="line2d_32">
    <path clip-path="url(#p4b2418e1d0)" d="M 342.373125 144.564798 
L 342.373125 166.530376 
" style="fill:none;stroke:#000000;stroke-linecap:square;"/>
   </g>
   <g id="line2d_33">
    <path clip-path="url(#p4b2418e1d0)" d="M 342.373125 129.921078 
L 342.373125 122.599219 
" style="fill:none;stroke:#000000;stroke-linecap:square;"/>
   </g>
   <g id="line2d_34">
    <path clip-path="url(#p4b2418e1d0)" d="M 334.566375 166.530376 
L 350.179875 166.530376 
" style="fill:none;stroke:#000000;stroke-linecap:square;"/>
   </g>
   <g id="line2d_35">
    <path clip-path="url(#p4b2418e1d0)" d="M 334.566375 122.599219 
L 350.179875 122.599219 
" style="fill:none;stroke:#000000;stroke-linecap:square;"/>
   </g>
   <g id="line2d_36">
    <g clip-path="url(#p4b2418e1d0)">
     <use style="fill-opacity:0;stroke:#000000;" x="342.373125" xlink:href="#mf104e9a96c" y="168.726934"/>
     <use style="fill-opacity:0;stroke:#000000;" x="342.373125" xlink:href="#mf104e9a96c" y="188.495955"/>
     <use style="fill-opacity:0;stroke:#000000;" x="342.373125" xlink:href="#mf104e9a96c" y="188.495955"/>
     <use style="fill-opacity:0;stroke:#000000;" x="342.373125" xlink:href="#mf104e9a96c" y="169.668316"/>
     <use style="fill-opacity:0;stroke:#000000;" x="342.373125" xlink:href="#mf104e9a96c" y="168.726934"/>
     <use style="fill-opacity:0;stroke:#000000;" x="342.373125" xlink:href="#mf104e9a96c" y="172.021771"/>
     <use style="fill-opacity:0;stroke:#000000;" x="342.373125" xlink:href="#mf104e9a96c" y="175.316608"/>
     <use style="fill-opacity:0;stroke:#000000;" x="342.373125" xlink:href="#mf104e9a96c" y="169.668316"/>
     <use style="fill-opacity:0;stroke:#000000;" x="342.373125" xlink:href="#mf104e9a96c" y="169.668316"/>
     <use style="fill-opacity:0;stroke:#000000;" x="342.373125" xlink:href="#mf104e9a96c" y="169.668316"/>
    </g>
   </g>
   <g id="line2d_37">
    <path clip-path="url(#p4b2418e1d0)" d="M 118.579625 130.836311 
L 149.806625 130.836311 
" style="fill:none;stroke:#ff7f0e;stroke-linecap:square;"/>
   </g>
   <g id="line2d_38">
    <path clip-path="url(#p4b2418e1d0)" d="M 326.759625 139.073403 
L 357.986625 139.073403 
" style="fill:none;stroke:#ff7f0e;stroke-linecap:square;"/>
   </g>
   <g id="patch_8">
    <path d="M 30.103125 188.495955 
L 30.103125 121.281284 
" style="fill:none;stroke:#000000;stroke-linecap:square;stroke-linejoin:miter;stroke-width:0.8;"/>
   </g>
   <g id="patch_9">
    <path d="M 446.463125 188.495955 
L 446.463125 121.281284 
" style="fill:none;stroke:#000000;stroke-linecap:square;stroke-linejoin:miter;stroke-width:0.8;"/>
   </g>
   <g id="patch_10">
    <path d="M 30.103125 188.495955 
L 446.463125 188.495955 
" style="fill:none;stroke:#000000;stroke-linecap:square;stroke-linejoin:miter;stroke-width:0.8;"/>
   </g>
   <g id="patch_11">
    <path d="M 30.103125 121.281284 
L 446.463125 121.281284 
" style="fill:none;stroke:#000000;stroke-linecap:square;stroke-linejoin:miter;stroke-width:0.8;"/>
   </g>
  </g>
  <g id="axes_3">
   <g id="patch_12">
    <path d="M 30.103125 300.095955 
L 446.463125 300.095955 
L 446.463125 232.881284 
L 30.103125 232.881284 
z
" style="fill:#ffffff;"/>
   </g>
   <g id="matplotlib.axis_5">
    <g id="xtick_5">
     <g id="line2d_39">
      <g>
       <use style="stroke:#000000;stroke-width:0.8;" x="134.193125" xlink:href="#mc9a5e71edf" y="300.095955"/>
      </g>
     </g>
     <g id="text_13">
      <!-- D30 -->
      <g transform="translate(123.980625 314.694393)scale(0.1 -0.1)">
       <use xlink:href="#DejaVuSans-68"/>
       <use x="77.001953" xlink:href="#DejaVuSans-51"/>
       <use x="140.625" xlink:href="#DejaVuSans-48"/>
      </g>
     </g>
    </g>
    <g id="xtick_6">
     <g id="line2d_40">
      <g>
       <use style="stroke:#000000;stroke-width:0.8;" x="342.373125" xlink:href="#mc9a5e71edf" y="300.095955"/>
      </g>
     </g>
     <g id="text_14">
      <!-- D30-R30 -->
      <g transform="translate(320.52 314.694393)scale(0.1 -0.1)">
       <use xlink:href="#DejaVuSans-68"/>
       <use x="77.001953" xlink:href="#DejaVuSans-51"/>
       <use x="140.625" xlink:href="#DejaVuSans-48"/>
       <use x="204.248047" xlink:href="#DejaVuSans-45"/>
       <use x="240.332031" xlink:href="#DejaVuSans-82"/>
       <use x="309.814453" xlink:href="#DejaVuSans-51"/>
       <use x="373.4375" xlink:href="#DejaVuSans-48"/>
      </g>
     </g>
    </g>
    <g id="text_15">
     <!-- F1Score -->
     <defs>
      <path d="M 9.8125 72.90625 
L 51.703125 72.90625 
L 51.703125 64.59375 
L 19.671875 64.59375 
L 19.671875 43.109375 
L 48.578125 43.109375 
L 48.578125 34.8125 
L 19.671875 34.8125 
L 19.671875 0 
L 9.8125 0 
z
" id="DejaVuSans-70"/>
      <path d="M 53.515625 70.515625 
L 53.515625 60.890625 
Q 47.90625 63.578125 42.921875 64.890625 
Q 37.9375 66.21875 33.296875 66.21875 
Q 25.25 66.21875 20.875 63.09375 
Q 16.5 59.96875 16.5 54.203125 
Q 16.5 49.359375 19.40625 46.890625 
Q 22.3125 44.4375 30.421875 42.921875 
L 36.375 41.703125 
Q 47.40625 39.59375 52.65625 34.296875 
Q 57.90625 29 57.90625 20.125 
Q 57.90625 9.515625 50.796875 4.046875 
Q 43.703125 -1.421875 29.984375 -1.421875 
Q 24.8125 -1.421875 18.96875 -0.25 
Q 13.140625 0.921875 6.890625 3.21875 
L 6.890625 13.375 
Q 12.890625 10.015625 18.65625 8.296875 
Q 24.421875 6.59375 29.984375 6.59375 
Q 38.421875 6.59375 43.015625 9.90625 
Q 47.609375 13.234375 47.609375 19.390625 
Q 47.609375 24.75 44.3125 27.78125 
Q 41.015625 30.8125 33.5 32.328125 
L 27.484375 33.5 
Q 16.453125 35.6875 11.515625 40.375 
Q 6.59375 45.0625 6.59375 53.421875 
Q 6.59375 63.09375 13.40625 68.65625 
Q 20.21875 74.21875 32.171875 74.21875 
Q 37.3125 74.21875 42.625 73.28125 
Q 47.953125 72.359375 53.515625 70.515625 
z
" id="DejaVuSans-83"/>
     </defs>
     <g transform="translate(218.112813 328.372518)scale(0.1 -0.1)">
      <use xlink:href="#DejaVuSans-70"/>
      <use x="57.519531" xlink:href="#DejaVuSans-49"/>
      <use x="121.142578" xlink:href="#DejaVuSans-83"/>
      <use x="184.619141" xlink:href="#DejaVuSans-99"/>
      <use x="239.599609" xlink:href="#DejaVuSans-111"/>
      <use x="300.78125" xlink:href="#DejaVuSans-114"/>
      <use x="341.863281" xlink:href="#DejaVuSans-101"/>
     </g>
    </g>
   </g>
   <g id="matplotlib.axis_6">
    <g id="ytick_7">
     <g id="line2d_41">
      <g>
       <use style="stroke:#000000;stroke-width:0.8;" x="30.103125" xlink:href="#m36478ececf" y="300.095955"/>
      </g>
     </g>
     <g id="text_16">
      <!-- 0.0 -->
      <g transform="translate(7.2 303.895174)scale(0.1 -0.1)">
       <use xlink:href="#DejaVuSans-48"/>
       <use x="63.623047" xlink:href="#DejaVuSans-46"/>
       <use x="95.410156" xlink:href="#DejaVuSans-48"/>
      </g>
     </g>
    </g>
    <g id="ytick_8">
     <g id="line2d_42">
      <g>
       <use style="stroke:#000000;stroke-width:0.8;" x="30.103125" xlink:href="#m36478ececf" y="267.147587"/>
      </g>
     </g>
     <g id="text_17">
      <!-- 0.5 -->
      <g transform="translate(7.2 270.946806)scale(0.1 -0.1)">
       <use xlink:href="#DejaVuSans-48"/>
       <use x="63.623047" xlink:href="#DejaVuSans-46"/>
       <use x="95.410156" xlink:href="#DejaVuSans-53"/>
      </g>
     </g>
    </g>
    <g id="ytick_9">
     <g id="line2d_43">
      <g>
       <use style="stroke:#000000;stroke-width:0.8;" x="30.103125" xlink:href="#m36478ececf" y="234.199219"/>
      </g>
     </g>
     <g id="text_18">
      <!-- 1.0 -->
      <g transform="translate(7.2 237.998437)scale(0.1 -0.1)">
       <use xlink:href="#DejaVuSans-49"/>
       <use x="63.623047" xlink:href="#DejaVuSans-46"/>
       <use x="95.410156" xlink:href="#DejaVuSans-48"/>
      </g>
     </g>
    </g>
   </g>
   <g id="line2d_44">
    <path clip-path="url(#pdf91bc23ba)" d="M 118.579625 241.521078 
L 149.806625 241.521078 
L 149.806625 234.199219 
L 118.579625 234.199219 
L 118.579625 241.521078 
" style="fill:none;stroke:#000000;stroke-linecap:square;"/>
   </g>
   <g id="line2d_45">
    <path clip-path="url(#pdf91bc23ba)" d="M 134.193125 241.521078 
L 134.193125 251.540465 
" style="fill:none;stroke:#000000;stroke-linecap:square;"/>
   </g>
   <g id="line2d_46">
    <path clip-path="url(#pdf91bc23ba)" d="M 134.193125 234.199219 
L 134.193125 234.199219 
" style="fill:none;stroke:#000000;stroke-linecap:square;"/>
   </g>
   <g id="line2d_47">
    <path clip-path="url(#pdf91bc23ba)" d="M 126.386375 251.540465 
L 141.999875 251.540465 
" style="fill:none;stroke:#000000;stroke-linecap:square;"/>
   </g>
   <g id="line2d_48">
    <path clip-path="url(#pdf91bc23ba)" d="M 126.386375 234.199219 
L 141.999875 234.199219 
" style="fill:none;stroke:#000000;stroke-linecap:square;"/>
   </g>
   <g id="line2d_49">
    <g clip-path="url(#pdf91bc23ba)">
     <use style="fill-opacity:0;stroke:#000000;" x="134.193125" xlink:href="#mf104e9a96c" y="256.164798"/>
     <use style="fill-opacity:0;stroke:#000000;" x="134.193125" xlink:href="#mf104e9a96c" y="256.164798"/>
     <use style="fill-opacity:0;stroke:#000000;" x="134.193125" xlink:href="#mf104e9a96c" y="256.164798"/>
     <use style="fill-opacity:0;stroke:#000000;" x="134.193125" xlink:href="#mf104e9a96c" y="256.164798"/>
     <use style="fill-opacity:0;stroke:#000000;" x="134.193125" xlink:href="#mf104e9a96c" y="256.164798"/>
     <use style="fill-opacity:0;stroke:#000000;" x="134.193125" xlink:href="#mf104e9a96c" y="300.095955"/>
     <use style="fill-opacity:0;stroke:#000000;" x="134.193125" xlink:href="#mf104e9a96c" y="253.580612"/>
     <use style="fill-opacity:0;stroke:#000000;" x="134.193125" xlink:href="#mf104e9a96c" y="253.026858"/>
     <use style="fill-opacity:0;stroke:#000000;" x="134.193125" xlink:href="#mf104e9a96c" y="261.333169"/>
     <use style="fill-opacity:0;stroke:#000000;" x="134.193125" xlink:href="#mf104e9a96c" y="258.910495"/>
     <use style="fill-opacity:0;stroke:#000000;" x="134.193125" xlink:href="#mf104e9a96c" y="253.026858"/>
     <use style="fill-opacity:0;stroke:#000000;" x="134.193125" xlink:href="#mf104e9a96c" y="253.026858"/>
     <use style="fill-opacity:0;stroke:#000000;" x="134.193125" xlink:href="#mf104e9a96c" y="256.164798"/>
     <use style="fill-opacity:0;stroke:#000000;" x="134.193125" xlink:href="#mf104e9a96c" y="256.164798"/>
     <use style="fill-opacity:0;stroke:#000000;" x="134.193125" xlink:href="#mf104e9a96c" y="256.164798"/>
     <use style="fill-opacity:0;stroke:#000000;" x="134.193125" xlink:href="#mf104e9a96c" y="253.580612"/>
     <use style="fill-opacity:0;stroke:#000000;" x="134.193125" xlink:href="#mf104e9a96c" y="253.96824"/>
     <use style="fill-opacity:0;stroke:#000000;" x="134.193125" xlink:href="#mf104e9a96c" y="253.026858"/>
     <use style="fill-opacity:0;stroke:#000000;" x="134.193125" xlink:href="#mf104e9a96c" y="253.026858"/>
     <use style="fill-opacity:0;stroke:#000000;" x="134.193125" xlink:href="#mf104e9a96c" y="253.026858"/>
     <use style="fill-opacity:0;stroke:#000000;" x="134.193125" xlink:href="#mf104e9a96c" y="253.580612"/>
    </g>
   </g>
   <g id="line2d_50">
    <path clip-path="url(#pdf91bc23ba)" d="M 326.759625 264.152281 
L 357.986625 264.152281 
L 357.986625 247.378566 
L 326.759625 247.378566 
L 326.759625 264.152281 
" style="fill:none;stroke:#000000;stroke-linecap:square;"/>
   </g>
   <g id="line2d_51">
    <path clip-path="url(#pdf91bc23ba)" d="M 342.373125 264.152281 
L 342.373125 286.916608 
" style="fill:none;stroke:#000000;stroke-linecap:square;"/>
   </g>
   <g id="line2d_52">
    <path clip-path="url(#pdf91bc23ba)" d="M 342.373125 247.378566 
L 342.373125 234.199219 
" style="fill:none;stroke:#000000;stroke-linecap:square;"/>
   </g>
   <g id="line2d_53">
    <path clip-path="url(#pdf91bc23ba)" d="M 334.566375 286.916608 
L 350.179875 286.916608 
" style="fill:none;stroke:#000000;stroke-linecap:square;"/>
   </g>
   <g id="line2d_54">
    <path clip-path="url(#pdf91bc23ba)" d="M 334.566375 234.199219 
L 350.179875 234.199219 
" style="fill:none;stroke:#000000;stroke-linecap:square;"/>
   </g>
   <g id="line2d_55">
    <g clip-path="url(#pdf91bc23ba)">
     <use style="fill-opacity:0;stroke:#000000;" x="342.373125" xlink:href="#mf104e9a96c" y="300.095955"/>
     <use style="fill-opacity:0;stroke:#000000;" x="342.373125" xlink:href="#mf104e9a96c" y="300.095955"/>
     <use style="fill-opacity:0;stroke:#000000;" x="342.373125" xlink:href="#mf104e9a96c" y="300.095955"/>
     <use style="fill-opacity:0;stroke:#000000;" x="342.373125" xlink:href="#mf104e9a96c" y="300.095955"/>
     <use style="fill-opacity:0;stroke:#000000;" x="342.373125" xlink:href="#mf104e9a96c" y="300.095955"/>
     <use style="fill-opacity:0;stroke:#000000;" x="342.373125" xlink:href="#mf104e9a96c" y="300.095955"/>
     <use style="fill-opacity:0;stroke:#000000;" x="342.373125" xlink:href="#mf104e9a96c" y="300.095955"/>
     <use style="fill-opacity:0;stroke:#000000;" x="342.373125" xlink:href="#mf104e9a96c" y="300.095955"/>
     <use style="fill-opacity:0;stroke:#000000;" x="342.373125" xlink:href="#mf104e9a96c" y="300.095955"/>
     <use style="fill-opacity:0;stroke:#000000;" x="342.373125" xlink:href="#mf104e9a96c" y="300.095955"/>
     <use style="fill-opacity:0;stroke:#000000;" x="342.373125" xlink:href="#mf104e9a96c" y="300.095955"/>
     <use style="fill-opacity:0;stroke:#000000;" x="342.373125" xlink:href="#mf104e9a96c" y="300.095955"/>
     <use style="fill-opacity:0;stroke:#000000;" x="342.373125" xlink:href="#mf104e9a96c" y="300.095955"/>
     <use style="fill-opacity:0;stroke:#000000;" x="342.373125" xlink:href="#mf104e9a96c" y="300.095955"/>
     <use style="fill-opacity:0;stroke:#000000;" x="342.373125" xlink:href="#mf104e9a96c" y="300.095955"/>
     <use style="fill-opacity:0;stroke:#000000;" x="342.373125" xlink:href="#mf104e9a96c" y="300.095955"/>
     <use style="fill-opacity:0;stroke:#000000;" x="342.373125" xlink:href="#mf104e9a96c" y="300.095955"/>
     <use style="fill-opacity:0;stroke:#000000;" x="342.373125" xlink:href="#mf104e9a96c" y="300.095955"/>
     <use style="fill-opacity:0;stroke:#000000;" x="342.373125" xlink:href="#mf104e9a96c" y="300.095955"/>
     <use style="fill-opacity:0;stroke:#000000;" x="342.373125" xlink:href="#mf104e9a96c" y="300.095955"/>
     <use style="fill-opacity:0;stroke:#000000;" x="342.373125" xlink:href="#mf104e9a96c" y="300.095955"/>
     <use style="fill-opacity:0;stroke:#000000;" x="342.373125" xlink:href="#mf104e9a96c" y="300.095955"/>
     <use style="fill-opacity:0;stroke:#000000;" x="342.373125" xlink:href="#mf104e9a96c" y="300.095955"/>
     <use style="fill-opacity:0;stroke:#000000;" x="342.373125" xlink:href="#mf104e9a96c" y="300.095955"/>
     <use style="fill-opacity:0;stroke:#000000;" x="342.373125" xlink:href="#mf104e9a96c" y="300.095955"/>
     <use style="fill-opacity:0;stroke:#000000;" x="342.373125" xlink:href="#mf104e9a96c" y="300.095955"/>
     <use style="fill-opacity:0;stroke:#000000;" x="342.373125" xlink:href="#mf104e9a96c" y="300.095955"/>
     <use style="fill-opacity:0;stroke:#000000;" x="342.373125" xlink:href="#mf104e9a96c" y="300.095955"/>
     <use style="fill-opacity:0;stroke:#000000;" x="342.373125" xlink:href="#mf104e9a96c" y="300.095955"/>
     <use style="fill-opacity:0;stroke:#000000;" x="342.373125" xlink:href="#mf104e9a96c" y="300.095955"/>
     <use style="fill-opacity:0;stroke:#000000;" x="342.373125" xlink:href="#mf104e9a96c" y="300.095955"/>
     <use style="fill-opacity:0;stroke:#000000;" x="342.373125" xlink:href="#mf104e9a96c" y="300.095955"/>
     <use style="fill-opacity:0;stroke:#000000;" x="342.373125" xlink:href="#mf104e9a96c" y="291.309724"/>
    </g>
   </g>
   <g id="line2d_56">
    <path clip-path="url(#pdf91bc23ba)" d="M 118.579625 238.592335 
L 149.806625 238.592335 
" style="fill:none;stroke:#ff7f0e;stroke-linecap:square;"/>
   </g>
   <g id="line2d_57">
    <path clip-path="url(#pdf91bc23ba)" d="M 326.759625 256.164798 
L 357.986625 256.164798 
" style="fill:none;stroke:#ff7f0e;stroke-linecap:square;"/>
   </g>
   <g id="patch_13">
    <path d="M 30.103125 300.095955 
L 30.103125 232.881284 
" style="fill:none;stroke:#000000;stroke-linecap:square;stroke-linejoin:miter;stroke-width:0.8;"/>
   </g>
   <g id="patch_14">
    <path d="M 446.463125 300.095955 
L 446.463125 232.881284 
" style="fill:none;stroke:#000000;stroke-linecap:square;stroke-linejoin:miter;stroke-width:0.8;"/>
   </g>
   <g id="patch_15">
    <path d="M 30.103125 300.095955 
L 446.463125 300.095955 
" style="fill:none;stroke:#000000;stroke-linecap:square;stroke-linejoin:miter;stroke-width:0.8;"/>
   </g>
   <g id="patch_16">
    <path d="M 30.103125 232.881284 
L 446.463125 232.881284 
" style="fill:none;stroke:#000000;stroke-linecap:square;stroke-linejoin:miter;stroke-width:0.8;"/>
   </g>
  </g>
 </g>
 <defs>
  <clipPath id="pb7ed1c3879">
   <rect height="67.214671" width="416.36" x="30.103125" y="9.681284"/>
  </clipPath>
  <clipPath id="p4b2418e1d0">
   <rect height="67.214671" width="416.36" x="30.103125" y="121.281284"/>
  </clipPath>
  <clipPath id="pdf91bc23ba">
   <rect height="67.214671" width="416.36" x="30.103125" y="232.881284"/>
  </clipPath>
 </defs>
</svg>
