<?xml version="1.0" encoding="utf-8" standalone="no"?>
<!DOCTYPE svg PUBLIC "-//W3C//DTD SVG 1.1//EN"
  "http://www.w3.org/Graphics/SVG/1.1/DTD/svg11.dtd">
<!-- Created with matplotlib (https://matplotlib.org/) -->
<svg height="337.652205pt" version="1.1" viewBox="0 0 619.667812 337.652205" width="619.667812pt" xmlns="http://www.w3.org/2000/svg" xmlns:xlink="http://www.w3.org/1999/xlink">
 <defs>
  <style type="text/css">
*{stroke-linecap:butt;stroke-linejoin:round;white-space:pre;}
  </style>
 </defs>
 <g id="figure_1">
  <g id="patch_1">
   <path d="M 0 337.652205 
L 619.667812 337.652205 
L 619.667812 0 
L 0 0 
z
" style="fill:#ffffff;"/>
  </g>
  <g id="axes_1">
   <g id="patch_2">
    <path d="M 30.103125 76.895955 
L 446.463125 76.895955 
L 446.463125 9.681284 
L 30.103125 9.681284 
z
" style="fill:#ffffff;"/>
   </g>
   <g id="matplotlib.axis_1">
    <g id="xtick_1">
     <g id="line2d_1">
      <defs>
       <path d="M 0 0 
L 0 3.5 
" id="m2ad2589c10" style="stroke:#000000;stroke-width:0.8;"/>
      </defs>
      <g>
       <use style="stroke:#000000;stroke-width:0.8;" x="78.910876" xlink:href="#m2ad2589c10" y="76.895955"/>
      </g>
     </g>
     <g id="text_1">
      <!-- 2.5 -->
      <defs>
       <path d="M 19.1875 8.296875 
L 53.609375 8.296875 
L 53.609375 0 
L 7.328125 0 
L 7.328125 8.296875 
Q 12.9375 14.109375 22.625 23.890625 
Q 32.328125 33.6875 34.8125 36.53125 
Q 39.546875 41.84375 41.421875 45.53125 
Q 43.3125 49.21875 43.3125 52.78125 
Q 43.3125 58.59375 39.234375 62.25 
Q 35.15625 65.921875 28.609375 65.921875 
Q 23.96875 65.921875 18.8125 64.3125 
Q 13.671875 62.703125 7.8125 59.421875 
L 7.8125 69.390625 
Q 13.765625 71.78125 18.9375 73 
Q 24.125 74.21875 28.421875 74.21875 
Q 39.75 74.21875 46.484375 68.546875 
Q 53.21875 62.890625 53.21875 53.421875 
Q 53.21875 48.921875 51.53125 44.890625 
Q 49.859375 40.875 45.40625 35.40625 
Q 44.1875 33.984375 37.640625 27.21875 
Q 31.109375 20.453125 19.1875 8.296875 
z
" id="DejaVuSans-50"/>
       <path d="M 10.6875 12.40625 
L 21 12.40625 
L 21 0 
L 10.6875 0 
z
" id="DejaVuSans-46"/>
       <path d="M 10.796875 72.90625 
L 49.515625 72.90625 
L 49.515625 64.59375 
L 19.828125 64.59375 
L 19.828125 46.734375 
Q 21.96875 47.46875 24.109375 47.828125 
Q 26.265625 48.1875 28.421875 48.1875 
Q 40.625 48.1875 47.75 41.5 
Q 54.890625 34.8125 54.890625 23.390625 
Q 54.890625 11.625 47.5625 5.09375 
Q 40.234375 -1.421875 26.90625 -1.421875 
Q 22.3125 -1.421875 17.546875 -0.640625 
Q 12.796875 0.140625 7.71875 1.703125 
L 7.71875 11.625 
Q 12.109375 9.234375 16.796875 8.0625 
Q 21.484375 6.890625 26.703125 6.890625 
Q 35.15625 6.890625 40.078125 11.328125 
Q 45.015625 15.765625 45.015625 23.390625 
Q 45.015625 31 40.078125 35.4375 
Q 35.15625 39.890625 26.703125 39.890625 
Q 22.75 39.890625 18.8125 39.015625 
Q 14.890625 38.140625 10.796875 36.28125 
z
" id="DejaVuSans-53"/>
      </defs>
      <g transform="translate(70.959314 91.494393)scale(0.1 -0.1)">
       <use xlink:href="#DejaVuSans-50"/>
       <use x="63.623047" xlink:href="#DejaVuSans-46"/>
       <use x="95.410156" xlink:href="#DejaVuSans-53"/>
      </g>
     </g>
    </g>
    <g id="xtick_2">
     <g id="line2d_2">
      <g>
       <use style="stroke:#000000;stroke-width:0.8;" x="128.714704" xlink:href="#m2ad2589c10" y="76.895955"/>
      </g>
     </g>
     <g id="text_2">
      <!-- 5.0 -->
      <defs>
       <path d="M 31.78125 66.40625 
Q 24.171875 66.40625 20.328125 58.90625 
Q 16.5 51.421875 16.5 36.375 
Q 16.5 21.390625 20.328125 13.890625 
Q 24.171875 6.390625 31.78125 6.390625 
Q 39.453125 6.390625 43.28125 13.890625 
Q 47.125 21.390625 47.125 36.375 
Q 47.125 51.421875 43.28125 58.90625 
Q 39.453125 66.40625 31.78125 66.40625 
z
M 31.78125 74.21875 
Q 44.046875 74.21875 50.515625 64.515625 
Q 56.984375 54.828125 56.984375 36.375 
Q 56.984375 17.96875 50.515625 8.265625 
Q 44.046875 -1.421875 31.78125 -1.421875 
Q 19.53125 -1.421875 13.0625 8.265625 
Q 6.59375 17.96875 6.59375 36.375 
Q 6.59375 54.828125 13.0625 64.515625 
Q 19.53125 74.21875 31.78125 74.21875 
z
" id="DejaVuSans-48"/>
      </defs>
      <g transform="translate(120.763141 91.494393)scale(0.1 -0.1)">
       <use xlink:href="#DejaVuSans-53"/>
       <use x="63.623047" xlink:href="#DejaVuSans-46"/>
       <use x="95.410156" xlink:href="#DejaVuSans-48"/>
      </g>
     </g>
    </g>
    <g id="xtick_3">
     <g id="line2d_3">
      <g>
       <use style="stroke:#000000;stroke-width:0.8;" x="178.518532" xlink:href="#m2ad2589c10" y="76.895955"/>
      </g>
     </g>
     <g id="text_3">
      <!-- 7.5 -->
      <defs>
       <path d="M 8.203125 72.90625 
L 55.078125 72.90625 
L 55.078125 68.703125 
L 28.609375 0 
L 18.3125 0 
L 43.21875 64.59375 
L 8.203125 64.59375 
z
" id="DejaVuSans-55"/>
      </defs>
      <g transform="translate(170.566969 91.494393)scale(0.1 -0.1)">
       <use xlink:href="#DejaVuSans-55"/>
       <use x="63.623047" xlink:href="#DejaVuSans-46"/>
       <use x="95.410156" xlink:href="#DejaVuSans-53"/>
      </g>
     </g>
    </g>
    <g id="xtick_4">
     <g id="line2d_4">
      <g>
       <use style="stroke:#000000;stroke-width:0.8;" x="228.322359" xlink:href="#m2ad2589c10" y="76.895955"/>
      </g>
     </g>
     <g id="text_4">
      <!-- 10.0 -->
      <defs>
       <path d="M 12.40625 8.296875 
L 28.515625 8.296875 
L 28.515625 63.921875 
L 10.984375 60.40625 
L 10.984375 69.390625 
L 28.421875 72.90625 
L 38.28125 72.90625 
L 38.28125 8.296875 
L 54.390625 8.296875 
L 54.390625 0 
L 12.40625 0 
z
" id="DejaVuSans-49"/>
      </defs>
      <g transform="translate(217.189547 91.494393)scale(0.1 -0.1)">
       <use xlink:href="#DejaVuSans-49"/>
       <use x="63.623047" xlink:href="#DejaVuSans-48"/>
       <use x="127.246094" xlink:href="#DejaVuSans-46"/>
       <use x="159.033203" xlink:href="#DejaVuSans-48"/>
      </g>
     </g>
    </g>
    <g id="xtick_5">
     <g id="line2d_5">
      <g>
       <use style="stroke:#000000;stroke-width:0.8;" x="278.126187" xlink:href="#m2ad2589c10" y="76.895955"/>
      </g>
     </g>
     <g id="text_5">
      <!-- 12.5 -->
      <g transform="translate(266.993375 91.494393)scale(0.1 -0.1)">
       <use xlink:href="#DejaVuSans-49"/>
       <use x="63.623047" xlink:href="#DejaVuSans-50"/>
       <use x="127.246094" xlink:href="#DejaVuSans-46"/>
       <use x="159.033203" xlink:href="#DejaVuSans-53"/>
      </g>
     </g>
    </g>
    <g id="xtick_6">
     <g id="line2d_6">
      <g>
       <use style="stroke:#000000;stroke-width:0.8;" x="327.930015" xlink:href="#m2ad2589c10" y="76.895955"/>
      </g>
     </g>
     <g id="text_6">
      <!-- 15.0 -->
      <g transform="translate(316.797202 91.494393)scale(0.1 -0.1)">
       <use xlink:href="#DejaVuSans-49"/>
       <use x="63.623047" xlink:href="#DejaVuSans-53"/>
       <use x="127.246094" xlink:href="#DejaVuSans-46"/>
       <use x="159.033203" xlink:href="#DejaVuSans-48"/>
      </g>
     </g>
    </g>
    <g id="xtick_7">
     <g id="line2d_7">
      <g>
       <use style="stroke:#000000;stroke-width:0.8;" x="377.733843" xlink:href="#m2ad2589c10" y="76.895955"/>
      </g>
     </g>
     <g id="text_7">
      <!-- 17.5 -->
      <g transform="translate(366.60103 91.494393)scale(0.1 -0.1)">
       <use xlink:href="#DejaVuSans-49"/>
       <use x="63.623047" xlink:href="#DejaVuSans-55"/>
       <use x="127.246094" xlink:href="#DejaVuSans-46"/>
       <use x="159.033203" xlink:href="#DejaVuSans-53"/>
      </g>
     </g>
    </g>
    <g id="xtick_8">
     <g id="line2d_8">
      <g>
       <use style="stroke:#000000;stroke-width:0.8;" x="427.53767" xlink:href="#m2ad2589c10" y="76.895955"/>
      </g>
     </g>
     <g id="text_8">
      <!-- 20.0 -->
      <g transform="translate(416.404858 91.494393)scale(0.1 -0.1)">
       <use xlink:href="#DejaVuSans-50"/>
       <use x="63.623047" xlink:href="#DejaVuSans-48"/>
       <use x="127.246094" xlink:href="#DejaVuSans-46"/>
       <use x="159.033203" xlink:href="#DejaVuSans-48"/>
      </g>
     </g>
    </g>
    <g id="text_9">
     <!-- Recall -->
     <defs>
      <path d="M 44.390625 34.1875 
Q 47.5625 33.109375 50.5625 29.59375 
Q 53.5625 26.078125 56.59375 19.921875 
L 66.609375 0 
L 56 0 
L 46.6875 18.703125 
Q 43.0625 26.03125 39.671875 28.421875 
Q 36.28125 30.8125 30.421875 30.8125 
L 19.671875 30.8125 
L 19.671875 0 
L 9.8125 0 
L 9.8125 72.90625 
L 32.078125 72.90625 
Q 44.578125 72.90625 50.734375 67.671875 
Q 56.890625 62.453125 56.890625 51.90625 
Q 56.890625 45.015625 53.6875 40.46875 
Q 50.484375 35.9375 44.390625 34.1875 
z
M 19.671875 64.796875 
L 19.671875 38.921875 
L 32.078125 38.921875 
Q 39.203125 38.921875 42.84375 42.21875 
Q 46.484375 45.515625 46.484375 51.90625 
Q 46.484375 58.296875 42.84375 61.546875 
Q 39.203125 64.796875 32.078125 64.796875 
z
" id="DejaVuSans-82"/>
      <path d="M 56.203125 29.59375 
L 56.203125 25.203125 
L 14.890625 25.203125 
Q 15.484375 15.921875 20.484375 11.0625 
Q 25.484375 6.203125 34.421875 6.203125 
Q 39.59375 6.203125 44.453125 7.46875 
Q 49.3125 8.734375 54.109375 11.28125 
L 54.109375 2.78125 
Q 49.265625 0.734375 44.1875 -0.34375 
Q 39.109375 -1.421875 33.890625 -1.421875 
Q 20.796875 -1.421875 13.15625 6.1875 
Q 5.515625 13.8125 5.515625 26.8125 
Q 5.515625 40.234375 12.765625 48.109375 
Q 20.015625 56 32.328125 56 
Q 43.359375 56 49.78125 48.890625 
Q 56.203125 41.796875 56.203125 29.59375 
z
M 47.21875 32.234375 
Q 47.125 39.59375 43.09375 43.984375 
Q 39.0625 48.390625 32.421875 48.390625 
Q 24.90625 48.390625 20.390625 44.140625 
Q 15.875 39.890625 15.1875 32.171875 
z
" id="DejaVuSans-101"/>
      <path d="M 48.78125 52.59375 
L 48.78125 44.1875 
Q 44.96875 46.296875 41.140625 47.34375 
Q 37.3125 48.390625 33.40625 48.390625 
Q 24.65625 48.390625 19.8125 42.84375 
Q 14.984375 37.3125 14.984375 27.296875 
Q 14.984375 17.28125 19.8125 11.734375 
Q 24.65625 6.203125 33.40625 6.203125 
Q 37.3125 6.203125 41.140625 7.25 
Q 44.96875 8.296875 48.78125 10.40625 
L 48.78125 2.09375 
Q 45.015625 0.34375 40.984375 -0.53125 
Q 36.96875 -1.421875 32.421875 -1.421875 
Q 20.0625 -1.421875 12.78125 6.34375 
Q 5.515625 14.109375 5.515625 27.296875 
Q 5.515625 40.671875 12.859375 48.328125 
Q 20.21875 56 33.015625 56 
Q 37.15625 56 41.109375 55.140625 
Q 45.0625 54.296875 48.78125 52.59375 
z
" id="DejaVuSans-99"/>
      <path d="M 34.28125 27.484375 
Q 23.390625 27.484375 19.1875 25 
Q 14.984375 22.515625 14.984375 16.5 
Q 14.984375 11.71875 18.140625 8.90625 
Q 21.296875 6.109375 26.703125 6.109375 
Q 34.1875 6.109375 38.703125 11.40625 
Q 43.21875 16.703125 43.21875 25.484375 
L 43.21875 27.484375 
z
M 52.203125 31.203125 
L 52.203125 0 
L 43.21875 0 
L 43.21875 8.296875 
Q 40.140625 3.328125 35.546875 0.953125 
Q 30.953125 -1.421875 24.3125 -1.421875 
Q 15.921875 -1.421875 10.953125 3.296875 
Q 6 8.015625 6 15.921875 
Q 6 25.140625 12.171875 29.828125 
Q 18.359375 34.515625 30.609375 34.515625 
L 43.21875 34.515625 
L 43.21875 35.40625 
Q 43.21875 41.609375 39.140625 45 
Q 35.0625 48.390625 27.6875 48.390625 
Q 23 48.390625 18.546875 47.265625 
Q 14.109375 46.140625 10.015625 43.890625 
L 10.015625 52.203125 
Q 14.9375 54.109375 19.578125 55.046875 
Q 24.21875 56 28.609375 56 
Q 40.484375 56 46.34375 49.84375 
Q 52.203125 43.703125 52.203125 31.203125 
z
" id="DejaVuSans-97"/>
      <path d="M 9.421875 75.984375 
L 18.40625 75.984375 
L 18.40625 0 
L 9.421875 0 
z
" id="DejaVuSans-108"/>
     </defs>
     <g transform="translate(223.144063 105.172518)scale(0.1 -0.1)">
      <use xlink:href="#DejaVuSans-82"/>
      <use x="69.419922" xlink:href="#DejaVuSans-101"/>
      <use x="130.943359" xlink:href="#DejaVuSans-99"/>
      <use x="185.923828" xlink:href="#DejaVuSans-97"/>
      <use x="247.203125" xlink:href="#DejaVuSans-108"/>
      <use x="274.986328" xlink:href="#DejaVuSans-108"/>
     </g>
    </g>
   </g>
   <g id="matplotlib.axis_2">
    <g id="ytick_1">
     <g id="line2d_9">
      <defs>
       <path d="M 0 0 
L -3.5 0 
" id="mb02f2e4d2d" style="stroke:#000000;stroke-width:0.8;"/>
      </defs>
      <g>
       <use style="stroke:#000000;stroke-width:0.8;" x="30.103125" xlink:href="#mb02f2e4d2d" y="76.895955"/>
      </g>
     </g>
     <g id="text_10">
      <!-- 0.0 -->
      <g transform="translate(7.2 80.695174)scale(0.1 -0.1)">
       <use xlink:href="#DejaVuSans-48"/>
       <use x="63.623047" xlink:href="#DejaVuSans-46"/>
       <use x="95.410156" xlink:href="#DejaVuSans-48"/>
      </g>
     </g>
    </g>
    <g id="ytick_2">
     <g id="line2d_10">
      <g>
       <use style="stroke:#000000;stroke-width:0.8;" x="30.103125" xlink:href="#mb02f2e4d2d" y="43.947587"/>
      </g>
     </g>
     <g id="text_11">
      <!-- 0.5 -->
      <g transform="translate(7.2 47.746806)scale(0.1 -0.1)">
       <use xlink:href="#DejaVuSans-48"/>
       <use x="63.623047" xlink:href="#DejaVuSans-46"/>
       <use x="95.410156" xlink:href="#DejaVuSans-53"/>
      </g>
     </g>
    </g>
    <g id="ytick_3">
     <g id="line2d_11">
      <g>
       <use style="stroke:#000000;stroke-width:0.8;" x="30.103125" xlink:href="#mb02f2e4d2d" y="10.999219"/>
      </g>
     </g>
     <g id="text_12">
      <!-- 1.0 -->
      <g transform="translate(7.2 14.798437)scale(0.1 -0.1)">
       <use xlink:href="#DejaVuSans-49"/>
       <use x="63.623047" xlink:href="#DejaVuSans-46"/>
       <use x="95.410156" xlink:href="#DejaVuSans-48"/>
      </g>
     </g>
    </g>
   </g>
   <g id="line2d_12">
    <path clip-path="url(#pc7d4239547)" d="M 49.02858 10.999219 
L 68.950111 10.999219 
L 88.871642 10.999219 
L 108.793173 10.999219 
L 128.714704 10.999219 
L 148.636235 10.999219 
L 168.557766 10.999219 
L 188.479297 10.999219 
L 208.400828 10.999219 
L 228.322359 10.999219 
L 248.243891 10.999219 
L 268.165422 10.999219 
L 288.086953 10.999219 
L 308.008484 10.999219 
L 327.930015 10.999219 
L 347.851546 10.999219 
L 367.773077 10.999219 
L 387.694608 10.999219 
L 407.616139 10.999219 
L 427.53767 10.999219 
" style="fill:none;stroke:#1f77b4;stroke-linecap:square;stroke-width:1.5;"/>
    <defs>
     <path d="M 0 -3 
L -0.673542 -0.927051 
L -2.85317 -0.927051 
L -1.089814 0.354102 
L -1.763356 2.427051 
L -0 1.145898 
L 1.763356 2.427051 
L 1.089814 0.354102 
L 2.85317 -0.927051 
L 0.673542 -0.927051 
z
" id="m2b4d692b4a" style="stroke:#1f77b4;stroke-linejoin:bevel;"/>
    </defs>
    <g clip-path="url(#pc7d4239547)">
     <use style="fill:#1f77b4;stroke:#1f77b4;stroke-linejoin:bevel;" x="49.02858" xlink:href="#m2b4d692b4a" y="10.999219"/>
     <use style="fill:#1f77b4;stroke:#1f77b4;stroke-linejoin:bevel;" x="68.950111" xlink:href="#m2b4d692b4a" y="10.999219"/>
     <use style="fill:#1f77b4;stroke:#1f77b4;stroke-linejoin:bevel;" x="88.871642" xlink:href="#m2b4d692b4a" y="10.999219"/>
     <use style="fill:#1f77b4;stroke:#1f77b4;stroke-linejoin:bevel;" x="108.793173" xlink:href="#m2b4d692b4a" y="10.999219"/>
     <use style="fill:#1f77b4;stroke:#1f77b4;stroke-linejoin:bevel;" x="128.714704" xlink:href="#m2b4d692b4a" y="10.999219"/>
     <use style="fill:#1f77b4;stroke:#1f77b4;stroke-linejoin:bevel;" x="148.636235" xlink:href="#m2b4d692b4a" y="10.999219"/>
     <use style="fill:#1f77b4;stroke:#1f77b4;stroke-linejoin:bevel;" x="168.557766" xlink:href="#m2b4d692b4a" y="10.999219"/>
     <use style="fill:#1f77b4;stroke:#1f77b4;stroke-linejoin:bevel;" x="188.479297" xlink:href="#m2b4d692b4a" y="10.999219"/>
     <use style="fill:#1f77b4;stroke:#1f77b4;stroke-linejoin:bevel;" x="208.400828" xlink:href="#m2b4d692b4a" y="10.999219"/>
     <use style="fill:#1f77b4;stroke:#1f77b4;stroke-linejoin:bevel;" x="228.322359" xlink:href="#m2b4d692b4a" y="10.999219"/>
     <use style="fill:#1f77b4;stroke:#1f77b4;stroke-linejoin:bevel;" x="248.243891" xlink:href="#m2b4d692b4a" y="10.999219"/>
     <use style="fill:#1f77b4;stroke:#1f77b4;stroke-linejoin:bevel;" x="268.165422" xlink:href="#m2b4d692b4a" y="10.999219"/>
     <use style="fill:#1f77b4;stroke:#1f77b4;stroke-linejoin:bevel;" x="288.086953" xlink:href="#m2b4d692b4a" y="10.999219"/>
     <use style="fill:#1f77b4;stroke:#1f77b4;stroke-linejoin:bevel;" x="308.008484" xlink:href="#m2b4d692b4a" y="10.999219"/>
     <use style="fill:#1f77b4;stroke:#1f77b4;stroke-linejoin:bevel;" x="327.930015" xlink:href="#m2b4d692b4a" y="10.999219"/>
     <use style="fill:#1f77b4;stroke:#1f77b4;stroke-linejoin:bevel;" x="347.851546" xlink:href="#m2b4d692b4a" y="10.999219"/>
     <use style="fill:#1f77b4;stroke:#1f77b4;stroke-linejoin:bevel;" x="367.773077" xlink:href="#m2b4d692b4a" y="10.999219"/>
     <use style="fill:#1f77b4;stroke:#1f77b4;stroke-linejoin:bevel;" x="387.694608" xlink:href="#m2b4d692b4a" y="10.999219"/>
     <use style="fill:#1f77b4;stroke:#1f77b4;stroke-linejoin:bevel;" x="407.616139" xlink:href="#m2b4d692b4a" y="10.999219"/>
     <use style="fill:#1f77b4;stroke:#1f77b4;stroke-linejoin:bevel;" x="427.53767" xlink:href="#m2b4d692b4a" y="10.999219"/>
    </g>
   </g>
   <g id="line2d_13">
    <path clip-path="url(#pc7d4239547)" d="M 49.02858 10.999219 
L 68.950111 16.989831 
L 88.871642 16.490613 
L 108.793173 25.119948 
L 128.714704 21.982008 
L 148.636235 14.875497 
L 168.557766 18.751776 
L 188.479297 10.999219 
L 208.400828 21.982008 
L 228.322359 10.999219 
L 248.243891 17.588892 
L 268.165422 17.588892 
L 288.086953 19.236311 
L 308.008484 30.76824 
L 327.930015 24.178566 
L 347.851546 19.236311 
L 367.773077 10.999219 
L 387.694608 17.588892 
L 407.616139 16.989831 
L 427.53767 22.980444 
" style="fill:none;stroke:#ff7f0e;stroke-linecap:square;stroke-width:1.5;"/>
   </g>
   <g id="line2d_14">
    <path clip-path="url(#pc7d4239547)" d="M 49.02858 10.999219 
L 68.950111 16.989831 
L 88.871642 21.982008 
L 108.793173 20.413038 
L 128.714704 21.982008 
L 148.636235 18.751776 
L 168.557766 14.875497 
L 188.479297 17.588892 
L 208.400828 32.964798 
L 228.322359 10.999219 
L 248.243891 25.642938 
L 268.165422 18.321078 
L 288.086953 27.473403 
L 308.008484 37.357913 
L 327.930015 25.642938 
L 347.851546 19.236311 
L 367.773077 25.642938 
L 387.694608 27.473403 
L 407.616139 18.321078 
L 427.53767 24.178566 
" style="fill:none;stroke:#2ca02c;stroke-linecap:square;stroke-width:1.5;"/>
   </g>
   <g id="line2d_15">
    <path clip-path="url(#pc7d4239547)" d="M 49.02858 10.999219 
L 68.950111 16.989831 
L 88.871642 21.982008 
L 108.793173 29.826858 
L 128.714704 29.303868 
L 148.636235 18.751776 
L 168.557766 18.751776 
L 188.479297 10.999219 
L 208.400828 21.982008 
L 228.322359 18.321078 
L 248.243891 18.321078 
L 268.165422 18.321078 
L 288.086953 19.236311 
L 308.008484 30.76824 
L 327.930015 24.178566 
L 347.851546 19.236311 
L 367.773077 25.642938 
L 387.694608 27.473403 
L 407.616139 32.964798 
L 427.53767 43.947587 
" style="fill:none;stroke:#d62728;stroke-linecap:square;stroke-width:1.5;"/>
   </g>
   <g id="line2d_16">
    <path clip-path="url(#pc7d4239547)" d="M 49.02858 10.999219 
L 68.950111 16.989831 
L 88.871642 21.982008 
L 108.793173 29.826858 
L 128.714704 29.303868 
L 148.636235 22.628055 
L 168.557766 22.628055 
L 188.479297 17.588892 
L 208.400828 32.964798 
L 228.322359 18.321078 
L 248.243891 18.321078 
L 268.165422 18.321078 
L 288.086953 19.236311 
L 308.008484 30.76824 
L 327.930015 24.178566 
L 347.851546 19.236311 
L 367.773077 27.473403 
L 387.694608 27.473403 
L 407.616139 32.964798 
L 427.53767 43.947587 
" style="fill:none;stroke:#9467bd;stroke-linecap:square;stroke-width:1.5;"/>
   </g>
   <g id="line2d_17">
    <path clip-path="url(#pc7d4239547)" d="M 49.02858 40.286657 
L 68.950111 30.76824 
L 88.871642 32.964798 
L 108.793173 34.533768 
L 128.714704 29.303868 
L 148.636235 26.504333 
L 168.557766 22.628055 
L 188.479297 17.588892 
L 208.400828 32.964798 
L 228.322359 18.321078 
L 248.243891 25.642938 
L 268.165422 18.321078 
L 288.086953 27.473403 
L 308.008484 37.357913 
L 327.930015 25.642938 
L 347.851546 19.236311 
L 367.773077 27.473403 
L 387.694608 27.473403 
L 407.616139 32.964798 
L 427.53767 43.947587 
" style="fill:none;stroke:#8c564b;stroke-linecap:square;stroke-width:1.5;"/>
   </g>
   <g id="patch_3">
    <path d="M 30.103125 76.895955 
L 30.103125 9.681284 
" style="fill:none;stroke:#000000;stroke-linecap:square;stroke-linejoin:miter;stroke-width:0.8;"/>
   </g>
   <g id="patch_4">
    <path d="M 446.463125 76.895955 
L 446.463125 9.681284 
" style="fill:none;stroke:#000000;stroke-linecap:square;stroke-linejoin:miter;stroke-width:0.8;"/>
   </g>
   <g id="patch_5">
    <path d="M 30.103125 76.895955 
L 446.463125 76.895955 
" style="fill:none;stroke:#000000;stroke-linecap:square;stroke-linejoin:miter;stroke-width:0.8;"/>
   </g>
   <g id="patch_6">
    <path d="M 30.103125 9.681284 
L 446.463125 9.681284 
" style="fill:none;stroke:#000000;stroke-linecap:square;stroke-linejoin:miter;stroke-width:0.8;"/>
   </g>
  </g>
  <g id="axes_2">
   <g id="patch_7">
    <path d="M 30.103125 188.495955 
L 446.463125 188.495955 
L 446.463125 121.281284 
L 30.103125 121.281284 
z
" style="fill:#ffffff;"/>
   </g>
   <g id="matplotlib.axis_3">
    <g id="xtick_9">
     <g id="line2d_18">
      <g>
       <use style="stroke:#000000;stroke-width:0.8;" x="78.910876" xlink:href="#m2ad2589c10" y="188.495955"/>
      </g>
     </g>
     <g id="text_13">
      <!-- 2.5 -->
      <g transform="translate(70.959314 203.094393)scale(0.1 -0.1)">
       <use xlink:href="#DejaVuSans-50"/>
       <use x="63.623047" xlink:href="#DejaVuSans-46"/>
       <use x="95.410156" xlink:href="#DejaVuSans-53"/>
      </g>
     </g>
    </g>
    <g id="xtick_10">
     <g id="line2d_19">
      <g>
       <use style="stroke:#000000;stroke-width:0.8;" x="128.714704" xlink:href="#m2ad2589c10" y="188.495955"/>
      </g>
     </g>
     <g id="text_14">
      <!-- 5.0 -->
      <g transform="translate(120.763141 203.094393)scale(0.1 -0.1)">
       <use xlink:href="#DejaVuSans-53"/>
       <use x="63.623047" xlink:href="#DejaVuSans-46"/>
       <use x="95.410156" xlink:href="#DejaVuSans-48"/>
      </g>
     </g>
    </g>
    <g id="xtick_11">
     <g id="line2d_20">
      <g>
       <use style="stroke:#000000;stroke-width:0.8;" x="178.518532" xlink:href="#m2ad2589c10" y="188.495955"/>
      </g>
     </g>
     <g id="text_15">
      <!-- 7.5 -->
      <g transform="translate(170.566969 203.094393)scale(0.1 -0.1)">
       <use xlink:href="#DejaVuSans-55"/>
       <use x="63.623047" xlink:href="#DejaVuSans-46"/>
       <use x="95.410156" xlink:href="#DejaVuSans-53"/>
      </g>
     </g>
    </g>
    <g id="xtick_12">
     <g id="line2d_21">
      <g>
       <use style="stroke:#000000;stroke-width:0.8;" x="228.322359" xlink:href="#m2ad2589c10" y="188.495955"/>
      </g>
     </g>
     <g id="text_16">
      <!-- 10.0 -->
      <g transform="translate(217.189547 203.094393)scale(0.1 -0.1)">
       <use xlink:href="#DejaVuSans-49"/>
       <use x="63.623047" xlink:href="#DejaVuSans-48"/>
       <use x="127.246094" xlink:href="#DejaVuSans-46"/>
       <use x="159.033203" xlink:href="#DejaVuSans-48"/>
      </g>
     </g>
    </g>
    <g id="xtick_13">
     <g id="line2d_22">
      <g>
       <use style="stroke:#000000;stroke-width:0.8;" x="278.126187" xlink:href="#m2ad2589c10" y="188.495955"/>
      </g>
     </g>
     <g id="text_17">
      <!-- 12.5 -->
      <g transform="translate(266.993375 203.094393)scale(0.1 -0.1)">
       <use xlink:href="#DejaVuSans-49"/>
       <use x="63.623047" xlink:href="#DejaVuSans-50"/>
       <use x="127.246094" xlink:href="#DejaVuSans-46"/>
       <use x="159.033203" xlink:href="#DejaVuSans-53"/>
      </g>
     </g>
    </g>
    <g id="xtick_14">
     <g id="line2d_23">
      <g>
       <use style="stroke:#000000;stroke-width:0.8;" x="327.930015" xlink:href="#m2ad2589c10" y="188.495955"/>
      </g>
     </g>
     <g id="text_18">
      <!-- 15.0 -->
      <g transform="translate(316.797202 203.094393)scale(0.1 -0.1)">
       <use xlink:href="#DejaVuSans-49"/>
       <use x="63.623047" xlink:href="#DejaVuSans-53"/>
       <use x="127.246094" xlink:href="#DejaVuSans-46"/>
       <use x="159.033203" xlink:href="#DejaVuSans-48"/>
      </g>
     </g>
    </g>
    <g id="xtick_15">
     <g id="line2d_24">
      <g>
       <use style="stroke:#000000;stroke-width:0.8;" x="377.733843" xlink:href="#m2ad2589c10" y="188.495955"/>
      </g>
     </g>
     <g id="text_19">
      <!-- 17.5 -->
      <g transform="translate(366.60103 203.094393)scale(0.1 -0.1)">
       <use xlink:href="#DejaVuSans-49"/>
       <use x="63.623047" xlink:href="#DejaVuSans-55"/>
       <use x="127.246094" xlink:href="#DejaVuSans-46"/>
       <use x="159.033203" xlink:href="#DejaVuSans-53"/>
      </g>
     </g>
    </g>
    <g id="xtick_16">
     <g id="line2d_25">
      <g>
       <use style="stroke:#000000;stroke-width:0.8;" x="427.53767" xlink:href="#m2ad2589c10" y="188.495955"/>
      </g>
     </g>
     <g id="text_20">
      <!-- 20.0 -->
      <g transform="translate(416.404858 203.094393)scale(0.1 -0.1)">
       <use xlink:href="#DejaVuSans-50"/>
       <use x="63.623047" xlink:href="#DejaVuSans-48"/>
       <use x="127.246094" xlink:href="#DejaVuSans-46"/>
       <use x="159.033203" xlink:href="#DejaVuSans-48"/>
      </g>
     </g>
    </g>
    <g id="text_21">
     <!-- Precision -->
     <defs>
      <path d="M 19.671875 64.796875 
L 19.671875 37.40625 
L 32.078125 37.40625 
Q 38.96875 37.40625 42.71875 40.96875 
Q 46.484375 44.53125 46.484375 51.125 
Q 46.484375 57.671875 42.71875 61.234375 
Q 38.96875 64.796875 32.078125 64.796875 
z
M 9.8125 72.90625 
L 32.078125 72.90625 
Q 44.34375 72.90625 50.609375 67.359375 
Q 56.890625 61.8125 56.890625 51.125 
Q 56.890625 40.328125 50.609375 34.8125 
Q 44.34375 29.296875 32.078125 29.296875 
L 19.671875 29.296875 
L 19.671875 0 
L 9.8125 0 
z
" id="DejaVuSans-80"/>
      <path d="M 41.109375 46.296875 
Q 39.59375 47.171875 37.8125 47.578125 
Q 36.03125 48 33.890625 48 
Q 26.265625 48 22.1875 43.046875 
Q 18.109375 38.09375 18.109375 28.8125 
L 18.109375 0 
L 9.078125 0 
L 9.078125 54.6875 
L 18.109375 54.6875 
L 18.109375 46.1875 
Q 20.953125 51.171875 25.484375 53.578125 
Q 30.03125 56 36.53125 56 
Q 37.453125 56 38.578125 55.875 
Q 39.703125 55.765625 41.0625 55.515625 
z
" id="DejaVuSans-114"/>
      <path d="M 9.421875 54.6875 
L 18.40625 54.6875 
L 18.40625 0 
L 9.421875 0 
z
M 9.421875 75.984375 
L 18.40625 75.984375 
L 18.40625 64.59375 
L 9.421875 64.59375 
z
" id="DejaVuSans-105"/>
      <path d="M 44.28125 53.078125 
L 44.28125 44.578125 
Q 40.484375 46.53125 36.375 47.5 
Q 32.28125 48.484375 27.875 48.484375 
Q 21.1875 48.484375 17.84375 46.4375 
Q 14.5 44.390625 14.5 40.28125 
Q 14.5 37.15625 16.890625 35.375 
Q 19.28125 33.59375 26.515625 31.984375 
L 29.59375 31.296875 
Q 39.15625 29.25 43.1875 25.515625 
Q 47.21875 21.78125 47.21875 15.09375 
Q 47.21875 7.46875 41.1875 3.015625 
Q 35.15625 -1.421875 24.609375 -1.421875 
Q 20.21875 -1.421875 15.453125 -0.5625 
Q 10.6875 0.296875 5.421875 2 
L 5.421875 11.28125 
Q 10.40625 8.6875 15.234375 7.390625 
Q 20.0625 6.109375 24.8125 6.109375 
Q 31.15625 6.109375 34.5625 8.28125 
Q 37.984375 10.453125 37.984375 14.40625 
Q 37.984375 18.0625 35.515625 20.015625 
Q 33.0625 21.96875 24.703125 23.78125 
L 21.578125 24.515625 
Q 13.234375 26.265625 9.515625 29.90625 
Q 5.8125 33.546875 5.8125 39.890625 
Q 5.8125 47.609375 11.28125 51.796875 
Q 16.75 56 26.8125 56 
Q 31.78125 56 36.171875 55.265625 
Q 40.578125 54.546875 44.28125 53.078125 
z
" id="DejaVuSans-115"/>
      <path d="M 30.609375 48.390625 
Q 23.390625 48.390625 19.1875 42.75 
Q 14.984375 37.109375 14.984375 27.296875 
Q 14.984375 17.484375 19.15625 11.84375 
Q 23.34375 6.203125 30.609375 6.203125 
Q 37.796875 6.203125 41.984375 11.859375 
Q 46.1875 17.53125 46.1875 27.296875 
Q 46.1875 37.015625 41.984375 42.703125 
Q 37.796875 48.390625 30.609375 48.390625 
z
M 30.609375 56 
Q 42.328125 56 49.015625 48.375 
Q 55.71875 40.765625 55.71875 27.296875 
Q 55.71875 13.875 49.015625 6.21875 
Q 42.328125 -1.421875 30.609375 -1.421875 
Q 18.84375 -1.421875 12.171875 6.21875 
Q 5.515625 13.875 5.515625 27.296875 
Q 5.515625 40.765625 12.171875 48.375 
Q 18.84375 56 30.609375 56 
z
" id="DejaVuSans-111"/>
      <path d="M 54.890625 33.015625 
L 54.890625 0 
L 45.90625 0 
L 45.90625 32.71875 
Q 45.90625 40.484375 42.875 44.328125 
Q 39.84375 48.1875 33.796875 48.1875 
Q 26.515625 48.1875 22.3125 43.546875 
Q 18.109375 38.921875 18.109375 30.90625 
L 18.109375 0 
L 9.078125 0 
L 9.078125 54.6875 
L 18.109375 54.6875 
L 18.109375 46.1875 
Q 21.34375 51.125 25.703125 53.5625 
Q 30.078125 56 35.796875 56 
Q 45.21875 56 50.046875 50.171875 
Q 54.890625 44.34375 54.890625 33.015625 
z
" id="DejaVuSans-110"/>
     </defs>
     <g transform="translate(215.778437 216.772518)scale(0.1 -0.1)">
      <use xlink:href="#DejaVuSans-80"/>
      <use x="60.287109" xlink:href="#DejaVuSans-114"/>
      <use x="101.369141" xlink:href="#DejaVuSans-101"/>
      <use x="162.892578" xlink:href="#DejaVuSans-99"/>
      <use x="217.873047" xlink:href="#DejaVuSans-105"/>
      <use x="245.65625" xlink:href="#DejaVuSans-115"/>
      <use x="297.755859" xlink:href="#DejaVuSans-105"/>
      <use x="325.539062" xlink:href="#DejaVuSans-111"/>
      <use x="386.720703" xlink:href="#DejaVuSans-110"/>
     </g>
    </g>
   </g>
   <g id="matplotlib.axis_4">
    <g id="ytick_4">
     <g id="line2d_26">
      <g>
       <use style="stroke:#000000;stroke-width:0.8;" x="30.103125" xlink:href="#mb02f2e4d2d" y="188.495955"/>
      </g>
     </g>
     <g id="text_22">
      <!-- 0.0 -->
      <g transform="translate(7.2 192.295174)scale(0.1 -0.1)">
       <use xlink:href="#DejaVuSans-48"/>
       <use x="63.623047" xlink:href="#DejaVuSans-46"/>
       <use x="95.410156" xlink:href="#DejaVuSans-48"/>
      </g>
     </g>
    </g>
    <g id="ytick_5">
     <g id="line2d_27">
      <g>
       <use style="stroke:#000000;stroke-width:0.8;" x="30.103125" xlink:href="#mb02f2e4d2d" y="155.547587"/>
      </g>
     </g>
     <g id="text_23">
      <!-- 0.5 -->
      <g transform="translate(7.2 159.346806)scale(0.1 -0.1)">
       <use xlink:href="#DejaVuSans-48"/>
       <use x="63.623047" xlink:href="#DejaVuSans-46"/>
       <use x="95.410156" xlink:href="#DejaVuSans-53"/>
      </g>
     </g>
    </g>
    <g id="ytick_6">
     <g id="line2d_28">
      <g>
       <use style="stroke:#000000;stroke-width:0.8;" x="30.103125" xlink:href="#mb02f2e4d2d" y="122.599219"/>
      </g>
     </g>
     <g id="text_24">
      <!-- 1.0 -->
      <g transform="translate(7.2 126.398437)scale(0.1 -0.1)">
       <use xlink:href="#DejaVuSans-49"/>
       <use x="63.623047" xlink:href="#DejaVuSans-46"/>
       <use x="95.410156" xlink:href="#DejaVuSans-48"/>
      </g>
     </g>
    </g>
   </g>
   <g id="line2d_29">
    <path clip-path="url(#p7c2b4101c2)" d="M 49.02858 122.599219 
L 68.950111 122.599219 
L 88.871642 122.599219 
L 108.793173 122.599219 
L 128.714704 122.599219 
L 148.636235 122.599219 
L 168.557766 122.599219 
L 188.479297 122.599219 
L 208.400828 122.599219 
L 228.322359 122.599219 
L 248.243891 122.599219 
L 268.165422 122.599219 
L 288.086953 122.599219 
L 308.008484 122.599219 
L 327.930015 122.599219 
L 347.851546 122.599219 
L 367.773077 122.599219 
L 387.694608 122.599219 
L 407.616139 122.599219 
L 427.53767 122.599219 
" style="fill:none;stroke:#1f77b4;stroke-linecap:square;stroke-width:1.5;"/>
    <g clip-path="url(#p7c2b4101c2)">
     <use style="fill:#1f77b4;stroke:#1f77b4;stroke-linejoin:bevel;" x="49.02858" xlink:href="#m2b4d692b4a" y="122.599219"/>
     <use style="fill:#1f77b4;stroke:#1f77b4;stroke-linejoin:bevel;" x="68.950111" xlink:href="#m2b4d692b4a" y="122.599219"/>
     <use style="fill:#1f77b4;stroke:#1f77b4;stroke-linejoin:bevel;" x="88.871642" xlink:href="#m2b4d692b4a" y="122.599219"/>
     <use style="fill:#1f77b4;stroke:#1f77b4;stroke-linejoin:bevel;" x="108.793173" xlink:href="#m2b4d692b4a" y="122.599219"/>
     <use style="fill:#1f77b4;stroke:#1f77b4;stroke-linejoin:bevel;" x="128.714704" xlink:href="#m2b4d692b4a" y="122.599219"/>
     <use style="fill:#1f77b4;stroke:#1f77b4;stroke-linejoin:bevel;" x="148.636235" xlink:href="#m2b4d692b4a" y="122.599219"/>
     <use style="fill:#1f77b4;stroke:#1f77b4;stroke-linejoin:bevel;" x="168.557766" xlink:href="#m2b4d692b4a" y="122.599219"/>
     <use style="fill:#1f77b4;stroke:#1f77b4;stroke-linejoin:bevel;" x="188.479297" xlink:href="#m2b4d692b4a" y="122.599219"/>
     <use style="fill:#1f77b4;stroke:#1f77b4;stroke-linejoin:bevel;" x="208.400828" xlink:href="#m2b4d692b4a" y="122.599219"/>
     <use style="fill:#1f77b4;stroke:#1f77b4;stroke-linejoin:bevel;" x="228.322359" xlink:href="#m2b4d692b4a" y="122.599219"/>
     <use style="fill:#1f77b4;stroke:#1f77b4;stroke-linejoin:bevel;" x="248.243891" xlink:href="#m2b4d692b4a" y="122.599219"/>
     <use style="fill:#1f77b4;stroke:#1f77b4;stroke-linejoin:bevel;" x="268.165422" xlink:href="#m2b4d692b4a" y="122.599219"/>
     <use style="fill:#1f77b4;stroke:#1f77b4;stroke-linejoin:bevel;" x="288.086953" xlink:href="#m2b4d692b4a" y="122.599219"/>
     <use style="fill:#1f77b4;stroke:#1f77b4;stroke-linejoin:bevel;" x="308.008484" xlink:href="#m2b4d692b4a" y="122.599219"/>
     <use style="fill:#1f77b4;stroke:#1f77b4;stroke-linejoin:bevel;" x="327.930015" xlink:href="#m2b4d692b4a" y="122.599219"/>
     <use style="fill:#1f77b4;stroke:#1f77b4;stroke-linejoin:bevel;" x="347.851546" xlink:href="#m2b4d692b4a" y="122.599219"/>
     <use style="fill:#1f77b4;stroke:#1f77b4;stroke-linejoin:bevel;" x="367.773077" xlink:href="#m2b4d692b4a" y="122.599219"/>
     <use style="fill:#1f77b4;stroke:#1f77b4;stroke-linejoin:bevel;" x="387.694608" xlink:href="#m2b4d692b4a" y="122.599219"/>
     <use style="fill:#1f77b4;stroke:#1f77b4;stroke-linejoin:bevel;" x="407.616139" xlink:href="#m2b4d692b4a" y="122.599219"/>
     <use style="fill:#1f77b4;stroke:#1f77b4;stroke-linejoin:bevel;" x="427.53767" xlink:href="#m2b4d692b4a" y="122.599219"/>
    </g>
   </g>
   <g id="line2d_30">
    <path clip-path="url(#p7c2b4101c2)" d="M 49.02858 134.580444 
L 68.950111 128.589831 
L 88.871642 132.737178 
L 108.793173 136.719948 
L 128.714704 130.351776 
L 148.636235 122.599219 
L 168.557766 126.717765 
L 188.479297 128.589831 
L 208.400828 128.589831 
L 228.322359 122.599219 
L 248.243891 122.599219 
L 268.165422 134.580444 
L 288.086953 142.36824 
L 308.008484 130.836311 
L 327.930015 129.921078 
L 347.851546 122.599219 
L 367.773077 122.599219 
L 387.694608 122.599219 
L 407.616139 122.599219 
L 427.53767 129.188892 
" style="fill:none;stroke:#ff7f0e;stroke-linecap:square;stroke-width:1.5;"/>
   </g>
   <g id="line2d_31">
    <path clip-path="url(#p7c2b4101c2)" d="M 49.02858 134.580444 
L 68.950111 128.589831 
L 88.871642 128.589831 
L 108.793173 132.013038 
L 128.714704 130.351776 
L 148.636235 122.599219 
L 168.557766 126.475497 
L 188.479297 129.188892 
L 208.400828 129.921078 
L 228.322359 122.599219 
L 248.243891 122.599219 
L 268.165422 129.921078 
L 288.086953 144.564798 
L 308.008484 139.073403 
L 327.930015 130.836311 
L 347.851546 122.599219 
L 367.773077 122.599219 
L 387.694608 132.013038 
L 407.616139 122.599219 
L 427.53767 129.921078 
" style="fill:none;stroke:#2ca02c;stroke-linecap:square;stroke-width:1.5;"/>
   </g>
   <g id="line2d_32">
    <path clip-path="url(#p7c2b4101c2)" d="M 49.02858 134.580444 
L 68.950111 128.589831 
L 88.871642 128.589831 
L 108.793173 133.582008 
L 128.714704 131.38545 
L 148.636235 122.599219 
L 168.557766 126.717765 
L 188.479297 128.589831 
L 208.400828 128.589831 
L 228.322359 122.599219 
L 248.243891 122.599219 
L 268.165422 135.778566 
L 288.086953 142.36824 
L 308.008484 130.836311 
L 327.930015 129.921078 
L 347.851546 122.599219 
L 367.773077 122.599219 
L 387.694608 132.013038 
L 407.616139 122.599219 
L 427.53767 133.582008 
" style="fill:none;stroke:#d62728;stroke-linecap:square;stroke-width:1.5;"/>
   </g>
   <g id="line2d_33">
    <path clip-path="url(#p7c2b4101c2)" d="M 49.02858 134.580444 
L 68.950111 128.589831 
L 88.871642 128.589831 
L 108.793173 133.582008 
L 128.714704 131.38545 
L 148.636235 122.599219 
L 168.557766 126.992335 
L 188.479297 129.188892 
L 208.400828 129.921078 
L 228.322359 122.599219 
L 248.243891 122.599219 
L 268.165422 135.778566 
L 288.086953 142.36824 
L 308.008484 130.836311 
L 327.930015 129.921078 
L 347.851546 122.599219 
L 367.773077 122.599219 
L 387.694608 122.599219 
L 407.616139 122.599219 
L 427.53767 133.582008 
" style="fill:none;stroke:#9467bd;stroke-linecap:square;stroke-width:1.5;"/>
   </g>
   <g id="line2d_34">
    <path clip-path="url(#p7c2b4101c2)" d="M 49.02858 141.426858 
L 68.950111 130.836311 
L 88.871642 122.599219 
L 108.793173 122.599219 
L 128.714704 127.306129 
L 148.636235 122.599219 
L 168.557766 126.992335 
L 188.479297 129.188892 
L 208.400828 129.921078 
L 228.322359 122.599219 
L 248.243891 122.599219 
L 268.165422 129.921078 
L 288.086953 144.564798 
L 308.008484 139.073403 
L 327.930015 130.836311 
L 347.851546 122.599219 
L 367.773077 122.599219 
L 387.694608 122.599219 
L 407.616139 122.599219 
L 427.53767 133.582008 
" style="fill:none;stroke:#8c564b;stroke-linecap:square;stroke-width:1.5;"/>
   </g>
   <g id="patch_8">
    <path d="M 30.103125 188.495955 
L 30.103125 121.281284 
" style="fill:none;stroke:#000000;stroke-linecap:square;stroke-linejoin:miter;stroke-width:0.8;"/>
   </g>
   <g id="patch_9">
    <path d="M 446.463125 188.495955 
L 446.463125 121.281284 
" style="fill:none;stroke:#000000;stroke-linecap:square;stroke-linejoin:miter;stroke-width:0.8;"/>
   </g>
   <g id="patch_10">
    <path d="M 30.103125 188.495955 
L 446.463125 188.495955 
" style="fill:none;stroke:#000000;stroke-linecap:square;stroke-linejoin:miter;stroke-width:0.8;"/>
   </g>
   <g id="patch_11">
    <path d="M 30.103125 121.281284 
L 446.463125 121.281284 
" style="fill:none;stroke:#000000;stroke-linecap:square;stroke-linejoin:miter;stroke-width:0.8;"/>
   </g>
  </g>
  <g id="axes_3">
   <g id="patch_12">
    <path d="M 30.103125 300.095955 
L 446.463125 300.095955 
L 446.463125 232.881284 
L 30.103125 232.881284 
z
" style="fill:#ffffff;"/>
   </g>
   <g id="matplotlib.axis_5">
    <g id="xtick_17">
     <g id="line2d_35">
      <g>
       <use style="stroke:#000000;stroke-width:0.8;" x="78.910876" xlink:href="#m2ad2589c10" y="300.095955"/>
      </g>
     </g>
     <g id="text_25">
      <!-- 2.5 -->
      <g transform="translate(70.959314 314.694393)scale(0.1 -0.1)">
       <use xlink:href="#DejaVuSans-50"/>
       <use x="63.623047" xlink:href="#DejaVuSans-46"/>
       <use x="95.410156" xlink:href="#DejaVuSans-53"/>
      </g>
     </g>
    </g>
    <g id="xtick_18">
     <g id="line2d_36">
      <g>
       <use style="stroke:#000000;stroke-width:0.8;" x="128.714704" xlink:href="#m2ad2589c10" y="300.095955"/>
      </g>
     </g>
     <g id="text_26">
      <!-- 5.0 -->
      <g transform="translate(120.763141 314.694393)scale(0.1 -0.1)">
       <use xlink:href="#DejaVuSans-53"/>
       <use x="63.623047" xlink:href="#DejaVuSans-46"/>
       <use x="95.410156" xlink:href="#DejaVuSans-48"/>
      </g>
     </g>
    </g>
    <g id="xtick_19">
     <g id="line2d_37">
      <g>
       <use style="stroke:#000000;stroke-width:0.8;" x="178.518532" xlink:href="#m2ad2589c10" y="300.095955"/>
      </g>
     </g>
     <g id="text_27">
      <!-- 7.5 -->
      <g transform="translate(170.566969 314.694393)scale(0.1 -0.1)">
       <use xlink:href="#DejaVuSans-55"/>
       <use x="63.623047" xlink:href="#DejaVuSans-46"/>
       <use x="95.410156" xlink:href="#DejaVuSans-53"/>
      </g>
     </g>
    </g>
    <g id="xtick_20">
     <g id="line2d_38">
      <g>
       <use style="stroke:#000000;stroke-width:0.8;" x="228.322359" xlink:href="#m2ad2589c10" y="300.095955"/>
      </g>
     </g>
     <g id="text_28">
      <!-- 10.0 -->
      <g transform="translate(217.189547 314.694393)scale(0.1 -0.1)">
       <use xlink:href="#DejaVuSans-49"/>
       <use x="63.623047" xlink:href="#DejaVuSans-48"/>
       <use x="127.246094" xlink:href="#DejaVuSans-46"/>
       <use x="159.033203" xlink:href="#DejaVuSans-48"/>
      </g>
     </g>
    </g>
    <g id="xtick_21">
     <g id="line2d_39">
      <g>
       <use style="stroke:#000000;stroke-width:0.8;" x="278.126187" xlink:href="#m2ad2589c10" y="300.095955"/>
      </g>
     </g>
     <g id="text_29">
      <!-- 12.5 -->
      <g transform="translate(266.993375 314.694393)scale(0.1 -0.1)">
       <use xlink:href="#DejaVuSans-49"/>
       <use x="63.623047" xlink:href="#DejaVuSans-50"/>
       <use x="127.246094" xlink:href="#DejaVuSans-46"/>
       <use x="159.033203" xlink:href="#DejaVuSans-53"/>
      </g>
     </g>
    </g>
    <g id="xtick_22">
     <g id="line2d_40">
      <g>
       <use style="stroke:#000000;stroke-width:0.8;" x="327.930015" xlink:href="#m2ad2589c10" y="300.095955"/>
      </g>
     </g>
     <g id="text_30">
      <!-- 15.0 -->
      <g transform="translate(316.797202 314.694393)scale(0.1 -0.1)">
       <use xlink:href="#DejaVuSans-49"/>
       <use x="63.623047" xlink:href="#DejaVuSans-53"/>
       <use x="127.246094" xlink:href="#DejaVuSans-46"/>
       <use x="159.033203" xlink:href="#DejaVuSans-48"/>
      </g>
     </g>
    </g>
    <g id="xtick_23">
     <g id="line2d_41">
      <g>
       <use style="stroke:#000000;stroke-width:0.8;" x="377.733843" xlink:href="#m2ad2589c10" y="300.095955"/>
      </g>
     </g>
     <g id="text_31">
      <!-- 17.5 -->
      <g transform="translate(366.60103 314.694393)scale(0.1 -0.1)">
       <use xlink:href="#DejaVuSans-49"/>
       <use x="63.623047" xlink:href="#DejaVuSans-55"/>
       <use x="127.246094" xlink:href="#DejaVuSans-46"/>
       <use x="159.033203" xlink:href="#DejaVuSans-53"/>
      </g>
     </g>
    </g>
    <g id="xtick_24">
     <g id="line2d_42">
      <g>
       <use style="stroke:#000000;stroke-width:0.8;" x="427.53767" xlink:href="#m2ad2589c10" y="300.095955"/>
      </g>
     </g>
     <g id="text_32">
      <!-- 20.0 -->
      <g transform="translate(416.404858 314.694393)scale(0.1 -0.1)">
       <use xlink:href="#DejaVuSans-50"/>
       <use x="63.623047" xlink:href="#DejaVuSans-48"/>
       <use x="127.246094" xlink:href="#DejaVuSans-46"/>
       <use x="159.033203" xlink:href="#DejaVuSans-48"/>
      </g>
     </g>
    </g>
    <g id="text_33">
     <!-- F1Score -->
     <defs>
      <path d="M 9.8125 72.90625 
L 51.703125 72.90625 
L 51.703125 64.59375 
L 19.671875 64.59375 
L 19.671875 43.109375 
L 48.578125 43.109375 
L 48.578125 34.8125 
L 19.671875 34.8125 
L 19.671875 0 
L 9.8125 0 
z
" id="DejaVuSans-70"/>
      <path d="M 53.515625 70.515625 
L 53.515625 60.890625 
Q 47.90625 63.578125 42.921875 64.890625 
Q 37.9375 66.21875 33.296875 66.21875 
Q 25.25 66.21875 20.875 63.09375 
Q 16.5 59.96875 16.5 54.203125 
Q 16.5 49.359375 19.40625 46.890625 
Q 22.3125 44.4375 30.421875 42.921875 
L 36.375 41.703125 
Q 47.40625 39.59375 52.65625 34.296875 
Q 57.90625 29 57.90625 20.125 
Q 57.90625 9.515625 50.796875 4.046875 
Q 43.703125 -1.421875 29.984375 -1.421875 
Q 24.8125 -1.421875 18.96875 -0.25 
Q 13.140625 0.921875 6.890625 3.21875 
L 6.890625 13.375 
Q 12.890625 10.015625 18.65625 8.296875 
Q 24.421875 6.59375 29.984375 6.59375 
Q 38.421875 6.59375 43.015625 9.90625 
Q 47.609375 13.234375 47.609375 19.390625 
Q 47.609375 24.75 44.3125 27.78125 
Q 41.015625 30.8125 33.5 32.328125 
L 27.484375 33.5 
Q 16.453125 35.6875 11.515625 40.375 
Q 6.59375 45.0625 6.59375 53.421875 
Q 6.59375 63.09375 13.40625 68.65625 
Q 20.21875 74.21875 32.171875 74.21875 
Q 37.3125 74.21875 42.625 73.28125 
Q 47.953125 72.359375 53.515625 70.515625 
z
" id="DejaVuSans-83"/>
     </defs>
     <g transform="translate(218.112813 328.372518)scale(0.1 -0.1)">
      <use xlink:href="#DejaVuSans-70"/>
      <use x="57.519531" xlink:href="#DejaVuSans-49"/>
      <use x="121.142578" xlink:href="#DejaVuSans-83"/>
      <use x="184.619141" xlink:href="#DejaVuSans-99"/>
      <use x="239.599609" xlink:href="#DejaVuSans-111"/>
      <use x="300.78125" xlink:href="#DejaVuSans-114"/>
      <use x="341.863281" xlink:href="#DejaVuSans-101"/>
     </g>
    </g>
   </g>
   <g id="matplotlib.axis_6">
    <g id="ytick_7">
     <g id="line2d_43">
      <g>
       <use style="stroke:#000000;stroke-width:0.8;" x="30.103125" xlink:href="#mb02f2e4d2d" y="300.095955"/>
      </g>
     </g>
     <g id="text_34">
      <!-- 0.0 -->
      <g transform="translate(7.2 303.895174)scale(0.1 -0.1)">
       <use xlink:href="#DejaVuSans-48"/>
       <use x="63.623047" xlink:href="#DejaVuSans-46"/>
       <use x="95.410156" xlink:href="#DejaVuSans-48"/>
      </g>
     </g>
    </g>
    <g id="ytick_8">
     <g id="line2d_44">
      <g>
       <use style="stroke:#000000;stroke-width:0.8;" x="30.103125" xlink:href="#mb02f2e4d2d" y="267.147587"/>
      </g>
     </g>
     <g id="text_35">
      <!-- 0.5 -->
      <g transform="translate(7.2 270.946806)scale(0.1 -0.1)">
       <use xlink:href="#DejaVuSans-48"/>
       <use x="63.623047" xlink:href="#DejaVuSans-46"/>
       <use x="95.410156" xlink:href="#DejaVuSans-53"/>
      </g>
     </g>
    </g>
    <g id="ytick_9">
     <g id="line2d_45">
      <g>
       <use style="stroke:#000000;stroke-width:0.8;" x="30.103125" xlink:href="#mb02f2e4d2d" y="234.199219"/>
      </g>
     </g>
     <g id="text_36">
      <!-- 1.0 -->
      <g transform="translate(7.2 237.998437)scale(0.1 -0.1)">
       <use xlink:href="#DejaVuSans-49"/>
       <use x="63.623047" xlink:href="#DejaVuSans-46"/>
       <use x="95.410156" xlink:href="#DejaVuSans-48"/>
      </g>
     </g>
    </g>
   </g>
   <g id="line2d_46">
    <path clip-path="url(#p109800ce16)" d="M 49.02858 234.199219 
L 68.950111 234.199219 
L 88.871642 234.199219 
L 108.793173 234.199219 
L 128.714704 234.199219 
L 148.636235 234.199219 
L 168.557766 234.199219 
L 188.479297 234.199219 
L 208.400828 234.199219 
L 228.322359 234.199219 
L 248.243891 234.199219 
L 268.165422 234.199219 
L 288.086953 234.199219 
L 308.008484 234.199219 
L 327.930015 234.199219 
L 347.851546 234.199219 
L 367.773077 234.199219 
L 387.694608 234.199219 
L 407.616139 234.199219 
L 427.53767 234.199219 
" style="fill:none;stroke:#1f77b4;stroke-linecap:square;stroke-width:1.5;"/>
    <g clip-path="url(#p109800ce16)">
     <use style="fill:#1f77b4;stroke:#1f77b4;stroke-linejoin:bevel;" x="49.02858" xlink:href="#m2b4d692b4a" y="234.199219"/>
     <use style="fill:#1f77b4;stroke:#1f77b4;stroke-linejoin:bevel;" x="68.950111" xlink:href="#m2b4d692b4a" y="234.199219"/>
     <use style="fill:#1f77b4;stroke:#1f77b4;stroke-linejoin:bevel;" x="88.871642" xlink:href="#m2b4d692b4a" y="234.199219"/>
     <use style="fill:#1f77b4;stroke:#1f77b4;stroke-linejoin:bevel;" x="108.793173" xlink:href="#m2b4d692b4a" y="234.199219"/>
     <use style="fill:#1f77b4;stroke:#1f77b4;stroke-linejoin:bevel;" x="128.714704" xlink:href="#m2b4d692b4a" y="234.199219"/>
     <use style="fill:#1f77b4;stroke:#1f77b4;stroke-linejoin:bevel;" x="148.636235" xlink:href="#m2b4d692b4a" y="234.199219"/>
     <use style="fill:#1f77b4;stroke:#1f77b4;stroke-linejoin:bevel;" x="168.557766" xlink:href="#m2b4d692b4a" y="234.199219"/>
     <use style="fill:#1f77b4;stroke:#1f77b4;stroke-linejoin:bevel;" x="188.479297" xlink:href="#m2b4d692b4a" y="234.199219"/>
     <use style="fill:#1f77b4;stroke:#1f77b4;stroke-linejoin:bevel;" x="208.400828" xlink:href="#m2b4d692b4a" y="234.199219"/>
     <use style="fill:#1f77b4;stroke:#1f77b4;stroke-linejoin:bevel;" x="228.322359" xlink:href="#m2b4d692b4a" y="234.199219"/>
     <use style="fill:#1f77b4;stroke:#1f77b4;stroke-linejoin:bevel;" x="248.243891" xlink:href="#m2b4d692b4a" y="234.199219"/>
     <use style="fill:#1f77b4;stroke:#1f77b4;stroke-linejoin:bevel;" x="268.165422" xlink:href="#m2b4d692b4a" y="234.199219"/>
     <use style="fill:#1f77b4;stroke:#1f77b4;stroke-linejoin:bevel;" x="288.086953" xlink:href="#m2b4d692b4a" y="234.199219"/>
     <use style="fill:#1f77b4;stroke:#1f77b4;stroke-linejoin:bevel;" x="308.008484" xlink:href="#m2b4d692b4a" y="234.199219"/>
     <use style="fill:#1f77b4;stroke:#1f77b4;stroke-linejoin:bevel;" x="327.930015" xlink:href="#m2b4d692b4a" y="234.199219"/>
     <use style="fill:#1f77b4;stroke:#1f77b4;stroke-linejoin:bevel;" x="347.851546" xlink:href="#m2b4d692b4a" y="234.199219"/>
     <use style="fill:#1f77b4;stroke:#1f77b4;stroke-linejoin:bevel;" x="367.773077" xlink:href="#m2b4d692b4a" y="234.199219"/>
     <use style="fill:#1f77b4;stroke:#1f77b4;stroke-linejoin:bevel;" x="387.694608" xlink:href="#m2b4d692b4a" y="234.199219"/>
     <use style="fill:#1f77b4;stroke:#1f77b4;stroke-linejoin:bevel;" x="407.616139" xlink:href="#m2b4d692b4a" y="234.199219"/>
     <use style="fill:#1f77b4;stroke:#1f77b4;stroke-linejoin:bevel;" x="427.53767" xlink:href="#m2b4d692b4a" y="234.199219"/>
    </g>
   </g>
   <g id="line2d_47">
    <path clip-path="url(#p109800ce16)" d="M 49.02858 240.788892 
L 68.950111 240.189831 
L 88.871642 242.106827 
L 108.793173 248.319948 
L 128.714704 243.613038 
L 148.636235 236.19609 
L 168.557766 240.189831 
L 188.479297 237.337159 
L 208.400828 242.794445 
L 228.322359 234.199219 
L 248.243891 237.667468 
L 268.165422 243.613038 
L 288.086953 248.842938 
L 308.008484 248.842938 
L 327.930015 244.603967 
L 347.851546 238.592335 
L 367.773077 234.199219 
L 387.694608 237.667468 
L 407.616139 237.337159 
L 427.53767 243.613038 
" style="fill:none;stroke:#ff7f0e;stroke-linecap:square;stroke-width:1.5;"/>
   </g>
   <g id="line2d_48">
    <path clip-path="url(#p109800ce16)" d="M 49.02858 240.788892 
L 68.950111 240.189831 
L 88.871642 242.794445 
L 108.793173 243.613038 
L 128.714704 243.613038 
L 148.636235 238.317765 
L 168.557766 238.075497 
L 188.479297 240.788892 
L 208.400828 249.888918 
L 228.322359 234.199219 
L 248.243891 242.436311 
L 268.165422 241.521078 
L 288.086953 253.580612 
L 308.008484 256.164798 
L 327.930015 245.828055 
L 347.851546 238.592335 
L 367.773077 242.436311 
L 387.694608 247.378566 
L 407.616139 238.075497 
L 427.53767 244.603967 
" style="fill:none;stroke:#2ca02c;stroke-linecap:square;stroke-width:1.5;"/>
   </g>
   <g id="line2d_49">
    <path clip-path="url(#p109800ce16)" d="M 49.02858 240.788892 
L 68.950111 240.189831 
L 88.871642 242.794445 
L 108.793173 249.406158 
L 128.714704 248.177314 
L 148.636235 238.317765 
L 168.557766 240.189831 
L 188.479297 237.337159 
L 208.400828 242.794445 
L 228.322359 238.075497 
L 248.243891 238.075497 
L 268.165422 244.603967 
L 288.086953 248.842938 
L 308.008484 248.842938 
L 327.930015 244.603967 
L 347.851546 238.592335 
L 367.773077 242.436311 
L 387.694608 247.378566 
L 407.616139 247.378566 
L 427.53767 258.910495 
" style="fill:none;stroke:#d62728;stroke-linecap:square;stroke-width:1.5;"/>
   </g>
   <g id="line2d_50">
    <path clip-path="url(#p109800ce16)" d="M 49.02858 240.788892 
L 68.950111 240.189831 
L 88.871642 242.794445 
L 108.793173 249.406158 
L 128.714704 248.177314 
L 148.636235 240.576322 
L 168.557766 242.436311 
L 188.479297 240.788892 
L 208.400828 249.888918 
L 228.322359 238.075497 
L 248.243891 238.075497 
L 268.165422 244.603967 
L 288.086953 248.842938 
L 308.008484 248.842938 
L 327.930015 244.603967 
L 347.851546 238.592335 
L 367.773077 243.613038 
L 387.694608 243.613038 
L 407.616139 247.378566 
L 427.53767 258.910495 
" style="fill:none;stroke:#9467bd;stroke-linecap:square;stroke-width:1.5;"/>
   </g>
   <g id="line2d_51">
    <path clip-path="url(#p109800ce16)" d="M 49.02858 258.910495 
L 68.950111 248.842938 
L 88.871642 247.378566 
L 108.793173 248.524596 
L 128.714704 246.554857 
L 148.636235 242.98545 
L 168.557766 242.436311 
L 188.479297 240.788892 
L 208.400828 249.888918 
L 228.322359 238.075497 
L 248.243891 242.436311 
L 268.165422 241.521078 
L 288.086953 253.580612 
L 308.008484 256.164798 
L 327.930015 245.828055 
L 347.851546 238.592335 
L 367.773077 243.613038 
L 387.694608 243.613038 
L 407.616139 247.378566 
L 427.53767 258.910495 
" style="fill:none;stroke:#8c564b;stroke-linecap:square;stroke-width:1.5;"/>
   </g>
   <g id="patch_13">
    <path d="M 30.103125 300.095955 
L 30.103125 232.881284 
" style="fill:none;stroke:#000000;stroke-linecap:square;stroke-linejoin:miter;stroke-width:0.8;"/>
   </g>
   <g id="patch_14">
    <path d="M 446.463125 300.095955 
L 446.463125 232.881284 
" style="fill:none;stroke:#000000;stroke-linecap:square;stroke-linejoin:miter;stroke-width:0.8;"/>
   </g>
   <g id="patch_15">
    <path d="M 30.103125 300.095955 
L 446.463125 300.095955 
" style="fill:none;stroke:#000000;stroke-linecap:square;stroke-linejoin:miter;stroke-width:0.8;"/>
   </g>
   <g id="patch_16">
    <path d="M 30.103125 232.881284 
L 446.463125 232.881284 
" style="fill:none;stroke:#000000;stroke-linecap:square;stroke-linejoin:miter;stroke-width:0.8;"/>
   </g>
  </g>
  <g id="legend_1">
   <g id="patch_17">
    <path d="M 467.8 210.38658 
L 614.004688 210.38658 
Q 616.004688 210.38658 616.004688 208.38658 
L 616.004688 121.31783 
Q 616.004688 119.31783 614.004688 119.31783 
L 467.8 119.31783 
Q 465.8 119.31783 465.8 121.31783 
L 465.8 208.38658 
Q 465.8 210.38658 467.8 210.38658 
z
" style="fill:#ffffff;opacity:0.8;stroke:#cccccc;stroke-linejoin:miter;"/>
   </g>
   <g id="line2d_52">
    <path d="M 469.8 127.416268 
L 489.8 127.416268 
" style="fill:none;stroke:#1f77b4;stroke-linecap:square;stroke-width:1.5;"/>
   </g>
   <g id="line2d_53">
    <g>
     <use style="fill:#1f77b4;stroke:#1f77b4;stroke-linejoin:bevel;" x="479.8" xlink:href="#m2b4d692b4a" y="127.416268"/>
    </g>
   </g>
   <g id="text_37">
    <!-- D30 tracking(baseline) -->
    <defs>
     <path d="M 19.671875 64.796875 
L 19.671875 8.109375 
L 31.59375 8.109375 
Q 46.6875 8.109375 53.6875 14.9375 
Q 60.6875 21.78125 60.6875 36.53125 
Q 60.6875 51.171875 53.6875 57.984375 
Q 46.6875 64.796875 31.59375 64.796875 
z
M 9.8125 72.90625 
L 30.078125 72.90625 
Q 51.265625 72.90625 61.171875 64.09375 
Q 71.09375 55.28125 71.09375 36.53125 
Q 71.09375 17.671875 61.125 8.828125 
Q 51.171875 0 30.078125 0 
L 9.8125 0 
z
" id="DejaVuSans-68"/>
     <path d="M 40.578125 39.3125 
Q 47.65625 37.796875 51.625 33 
Q 55.609375 28.21875 55.609375 21.1875 
Q 55.609375 10.40625 48.1875 4.484375 
Q 40.765625 -1.421875 27.09375 -1.421875 
Q 22.515625 -1.421875 17.65625 -0.515625 
Q 12.796875 0.390625 7.625 2.203125 
L 7.625 11.71875 
Q 11.71875 9.328125 16.59375 8.109375 
Q 21.484375 6.890625 26.8125 6.890625 
Q 36.078125 6.890625 40.9375 10.546875 
Q 45.796875 14.203125 45.796875 21.1875 
Q 45.796875 27.640625 41.28125 31.265625 
Q 36.765625 34.90625 28.71875 34.90625 
L 20.21875 34.90625 
L 20.21875 43.015625 
L 29.109375 43.015625 
Q 36.375 43.015625 40.234375 45.921875 
Q 44.09375 48.828125 44.09375 54.296875 
Q 44.09375 59.90625 40.109375 62.90625 
Q 36.140625 65.921875 28.71875 65.921875 
Q 24.65625 65.921875 20.015625 65.03125 
Q 15.375 64.15625 9.8125 62.3125 
L 9.8125 71.09375 
Q 15.4375 72.65625 20.34375 73.4375 
Q 25.25 74.21875 29.59375 74.21875 
Q 40.828125 74.21875 47.359375 69.109375 
Q 53.90625 64.015625 53.90625 55.328125 
Q 53.90625 49.265625 50.4375 45.09375 
Q 46.96875 40.921875 40.578125 39.3125 
z
" id="DejaVuSans-51"/>
     <path id="DejaVuSans-32"/>
     <path d="M 18.3125 70.21875 
L 18.3125 54.6875 
L 36.8125 54.6875 
L 36.8125 47.703125 
L 18.3125 47.703125 
L 18.3125 18.015625 
Q 18.3125 11.328125 20.140625 9.421875 
Q 21.96875 7.515625 27.59375 7.515625 
L 36.8125 7.515625 
L 36.8125 0 
L 27.59375 0 
Q 17.1875 0 13.234375 3.875 
Q 9.28125 7.765625 9.28125 18.015625 
L 9.28125 47.703125 
L 2.6875 47.703125 
L 2.6875 54.6875 
L 9.28125 54.6875 
L 9.28125 70.21875 
z
" id="DejaVuSans-116"/>
     <path d="M 9.078125 75.984375 
L 18.109375 75.984375 
L 18.109375 31.109375 
L 44.921875 54.6875 
L 56.390625 54.6875 
L 27.390625 29.109375 
L 57.625 0 
L 45.90625 0 
L 18.109375 26.703125 
L 18.109375 0 
L 9.078125 0 
z
" id="DejaVuSans-107"/>
     <path d="M 45.40625 27.984375 
Q 45.40625 37.75 41.375 43.109375 
Q 37.359375 48.484375 30.078125 48.484375 
Q 22.859375 48.484375 18.828125 43.109375 
Q 14.796875 37.75 14.796875 27.984375 
Q 14.796875 18.265625 18.828125 12.890625 
Q 22.859375 7.515625 30.078125 7.515625 
Q 37.359375 7.515625 41.375 12.890625 
Q 45.40625 18.265625 45.40625 27.984375 
z
M 54.390625 6.78125 
Q 54.390625 -7.171875 48.1875 -13.984375 
Q 42 -20.796875 29.203125 -20.796875 
Q 24.46875 -20.796875 20.265625 -20.09375 
Q 16.0625 -19.390625 12.109375 -17.921875 
L 12.109375 -9.1875 
Q 16.0625 -11.328125 19.921875 -12.34375 
Q 23.78125 -13.375 27.78125 -13.375 
Q 36.625 -13.375 41.015625 -8.765625 
Q 45.40625 -4.15625 45.40625 5.171875 
L 45.40625 9.625 
Q 42.625 4.78125 38.28125 2.390625 
Q 33.9375 0 27.875 0 
Q 17.828125 0 11.671875 7.65625 
Q 5.515625 15.328125 5.515625 27.984375 
Q 5.515625 40.671875 11.671875 48.328125 
Q 17.828125 56 27.875 56 
Q 33.9375 56 38.28125 53.609375 
Q 42.625 51.21875 45.40625 46.390625 
L 45.40625 54.6875 
L 54.390625 54.6875 
z
" id="DejaVuSans-103"/>
     <path d="M 31 75.875 
Q 24.46875 64.65625 21.28125 53.65625 
Q 18.109375 42.671875 18.109375 31.390625 
Q 18.109375 20.125 21.3125 9.0625 
Q 24.515625 -2 31 -13.1875 
L 23.1875 -13.1875 
Q 15.875 -1.703125 12.234375 9.375 
Q 8.59375 20.453125 8.59375 31.390625 
Q 8.59375 42.28125 12.203125 53.3125 
Q 15.828125 64.359375 23.1875 75.875 
z
" id="DejaVuSans-40"/>
     <path d="M 48.6875 27.296875 
Q 48.6875 37.203125 44.609375 42.84375 
Q 40.53125 48.484375 33.40625 48.484375 
Q 26.265625 48.484375 22.1875 42.84375 
Q 18.109375 37.203125 18.109375 27.296875 
Q 18.109375 17.390625 22.1875 11.75 
Q 26.265625 6.109375 33.40625 6.109375 
Q 40.53125 6.109375 44.609375 11.75 
Q 48.6875 17.390625 48.6875 27.296875 
z
M 18.109375 46.390625 
Q 20.953125 51.265625 25.265625 53.625 
Q 29.59375 56 35.59375 56 
Q 45.5625 56 51.78125 48.09375 
Q 58.015625 40.1875 58.015625 27.296875 
Q 58.015625 14.40625 51.78125 6.484375 
Q 45.5625 -1.421875 35.59375 -1.421875 
Q 29.59375 -1.421875 25.265625 0.953125 
Q 20.953125 3.328125 18.109375 8.203125 
L 18.109375 0 
L 9.078125 0 
L 9.078125 75.984375 
L 18.109375 75.984375 
z
" id="DejaVuSans-98"/>
     <path d="M 8.015625 75.875 
L 15.828125 75.875 
Q 23.140625 64.359375 26.78125 53.3125 
Q 30.421875 42.28125 30.421875 31.390625 
Q 30.421875 20.453125 26.78125 9.375 
Q 23.140625 -1.703125 15.828125 -13.1875 
L 8.015625 -13.1875 
Q 14.5 -2 17.703125 9.0625 
Q 20.90625 20.125 20.90625 31.390625 
Q 20.90625 42.671875 17.703125 53.65625 
Q 14.5 64.65625 8.015625 75.875 
z
" id="DejaVuSans-41"/>
    </defs>
    <g transform="translate(497.8 130.916268)scale(0.1 -0.1)">
     <use xlink:href="#DejaVuSans-68"/>
     <use x="77.001953" xlink:href="#DejaVuSans-51"/>
     <use x="140.625" xlink:href="#DejaVuSans-48"/>
     <use x="204.248047" xlink:href="#DejaVuSans-32"/>
     <use x="236.035156" xlink:href="#DejaVuSans-116"/>
     <use x="275.244141" xlink:href="#DejaVuSans-114"/>
     <use x="316.357422" xlink:href="#DejaVuSans-97"/>
     <use x="377.636719" xlink:href="#DejaVuSans-99"/>
     <use x="432.617188" xlink:href="#DejaVuSans-107"/>
     <use x="490.527344" xlink:href="#DejaVuSans-105"/>
     <use x="518.310547" xlink:href="#DejaVuSans-110"/>
     <use x="581.689453" xlink:href="#DejaVuSans-103"/>
     <use x="645.166016" xlink:href="#DejaVuSans-40"/>
     <use x="684.179688" xlink:href="#DejaVuSans-98"/>
     <use x="747.65625" xlink:href="#DejaVuSans-97"/>
     <use x="808.935547" xlink:href="#DejaVuSans-115"/>
     <use x="861.035156" xlink:href="#DejaVuSans-101"/>
     <use x="922.558594" xlink:href="#DejaVuSans-108"/>
     <use x="950.341797" xlink:href="#DejaVuSans-105"/>
     <use x="978.125" xlink:href="#DejaVuSans-110"/>
     <use x="1041.503906" xlink:href="#DejaVuSans-101"/>
     <use x="1103.027344" xlink:href="#DejaVuSans-41"/>
    </g>
   </g>
   <g id="line2d_54">
    <path d="M 469.8 142.094393 
L 489.8 142.094393 
" style="fill:none;stroke:#ff7f0e;stroke-linecap:square;stroke-width:1.5;"/>
   </g>
   <g id="line2d_55"/>
   <g id="text_38">
    <!-- D15-R30 tracking -->
    <defs>
     <path d="M 4.890625 31.390625 
L 31.203125 31.390625 
L 31.203125 23.390625 
L 4.890625 23.390625 
z
" id="DejaVuSans-45"/>
    </defs>
    <g transform="translate(497.8 145.594393)scale(0.1 -0.1)">
     <use xlink:href="#DejaVuSans-68"/>
     <use x="77.001953" xlink:href="#DejaVuSans-49"/>
     <use x="140.625" xlink:href="#DejaVuSans-53"/>
     <use x="204.248047" xlink:href="#DejaVuSans-45"/>
     <use x="240.332031" xlink:href="#DejaVuSans-82"/>
     <use x="309.814453" xlink:href="#DejaVuSans-51"/>
     <use x="373.4375" xlink:href="#DejaVuSans-48"/>
     <use x="437.060547" xlink:href="#DejaVuSans-32"/>
     <use x="468.847656" xlink:href="#DejaVuSans-116"/>
     <use x="508.056641" xlink:href="#DejaVuSans-114"/>
     <use x="549.169922" xlink:href="#DejaVuSans-97"/>
     <use x="610.449219" xlink:href="#DejaVuSans-99"/>
     <use x="665.429688" xlink:href="#DejaVuSans-107"/>
     <use x="723.339844" xlink:href="#DejaVuSans-105"/>
     <use x="751.123047" xlink:href="#DejaVuSans-110"/>
     <use x="814.501953" xlink:href="#DejaVuSans-103"/>
    </g>
   </g>
   <g id="line2d_56">
    <path d="M 469.8 156.772518 
L 489.8 156.772518 
" style="fill:none;stroke:#2ca02c;stroke-linecap:square;stroke-width:1.5;"/>
   </g>
   <g id="line2d_57"/>
   <g id="text_39">
    <!-- D10-R30 tracking -->
    <g transform="translate(497.8 160.272518)scale(0.1 -0.1)">
     <use xlink:href="#DejaVuSans-68"/>
     <use x="77.001953" xlink:href="#DejaVuSans-49"/>
     <use x="140.625" xlink:href="#DejaVuSans-48"/>
     <use x="204.248047" xlink:href="#DejaVuSans-45"/>
     <use x="240.332031" xlink:href="#DejaVuSans-82"/>
     <use x="309.814453" xlink:href="#DejaVuSans-51"/>
     <use x="373.4375" xlink:href="#DejaVuSans-48"/>
     <use x="437.060547" xlink:href="#DejaVuSans-32"/>
     <use x="468.847656" xlink:href="#DejaVuSans-116"/>
     <use x="508.056641" xlink:href="#DejaVuSans-114"/>
     <use x="549.169922" xlink:href="#DejaVuSans-97"/>
     <use x="610.449219" xlink:href="#DejaVuSans-99"/>
     <use x="665.429688" xlink:href="#DejaVuSans-107"/>
     <use x="723.339844" xlink:href="#DejaVuSans-105"/>
     <use x="751.123047" xlink:href="#DejaVuSans-110"/>
     <use x="814.501953" xlink:href="#DejaVuSans-103"/>
    </g>
   </g>
   <g id="line2d_58">
    <path d="M 469.8 171.450643 
L 489.8 171.450643 
" style="fill:none;stroke:#d62728;stroke-linecap:square;stroke-width:1.5;"/>
   </g>
   <g id="line2d_59"/>
   <g id="text_40">
    <!-- D6-R30 tracking -->
    <defs>
     <path d="M 33.015625 40.375 
Q 26.375 40.375 22.484375 35.828125 
Q 18.609375 31.296875 18.609375 23.390625 
Q 18.609375 15.53125 22.484375 10.953125 
Q 26.375 6.390625 33.015625 6.390625 
Q 39.65625 6.390625 43.53125 10.953125 
Q 47.40625 15.53125 47.40625 23.390625 
Q 47.40625 31.296875 43.53125 35.828125 
Q 39.65625 40.375 33.015625 40.375 
z
M 52.59375 71.296875 
L 52.59375 62.3125 
Q 48.875 64.0625 45.09375 64.984375 
Q 41.3125 65.921875 37.59375 65.921875 
Q 27.828125 65.921875 22.671875 59.328125 
Q 17.53125 52.734375 16.796875 39.40625 
Q 19.671875 43.65625 24.015625 45.921875 
Q 28.375 48.1875 33.59375 48.1875 
Q 44.578125 48.1875 50.953125 41.515625 
Q 57.328125 34.859375 57.328125 23.390625 
Q 57.328125 12.15625 50.6875 5.359375 
Q 44.046875 -1.421875 33.015625 -1.421875 
Q 20.359375 -1.421875 13.671875 8.265625 
Q 6.984375 17.96875 6.984375 36.375 
Q 6.984375 53.65625 15.1875 63.9375 
Q 23.390625 74.21875 37.203125 74.21875 
Q 40.921875 74.21875 44.703125 73.484375 
Q 48.484375 72.75 52.59375 71.296875 
z
" id="DejaVuSans-54"/>
    </defs>
    <g transform="translate(497.8 174.950643)scale(0.1 -0.1)">
     <use xlink:href="#DejaVuSans-68"/>
     <use x="77.001953" xlink:href="#DejaVuSans-54"/>
     <use x="140.625" xlink:href="#DejaVuSans-45"/>
     <use x="176.708984" xlink:href="#DejaVuSans-82"/>
     <use x="246.191406" xlink:href="#DejaVuSans-51"/>
     <use x="309.814453" xlink:href="#DejaVuSans-48"/>
     <use x="373.4375" xlink:href="#DejaVuSans-32"/>
     <use x="405.224609" xlink:href="#DejaVuSans-116"/>
     <use x="444.433594" xlink:href="#DejaVuSans-114"/>
     <use x="485.546875" xlink:href="#DejaVuSans-97"/>
     <use x="546.826172" xlink:href="#DejaVuSans-99"/>
     <use x="601.806641" xlink:href="#DejaVuSans-107"/>
     <use x="659.716797" xlink:href="#DejaVuSans-105"/>
     <use x="687.5" xlink:href="#DejaVuSans-110"/>
     <use x="750.878906" xlink:href="#DejaVuSans-103"/>
    </g>
   </g>
   <g id="line2d_60">
    <path d="M 469.8 186.128768 
L 489.8 186.128768 
" style="fill:none;stroke:#9467bd;stroke-linecap:square;stroke-width:1.5;"/>
   </g>
   <g id="line2d_61"/>
   <g id="text_41">
    <!-- D3-R30 tracking -->
    <g transform="translate(497.8 189.628768)scale(0.1 -0.1)">
     <use xlink:href="#DejaVuSans-68"/>
     <use x="77.001953" xlink:href="#DejaVuSans-51"/>
     <use x="140.625" xlink:href="#DejaVuSans-45"/>
     <use x="176.708984" xlink:href="#DejaVuSans-82"/>
     <use x="246.191406" xlink:href="#DejaVuSans-51"/>
     <use x="309.814453" xlink:href="#DejaVuSans-48"/>
     <use x="373.4375" xlink:href="#DejaVuSans-32"/>
     <use x="405.224609" xlink:href="#DejaVuSans-116"/>
     <use x="444.433594" xlink:href="#DejaVuSans-114"/>
     <use x="485.546875" xlink:href="#DejaVuSans-97"/>
     <use x="546.826172" xlink:href="#DejaVuSans-99"/>
     <use x="601.806641" xlink:href="#DejaVuSans-107"/>
     <use x="659.716797" xlink:href="#DejaVuSans-105"/>
     <use x="687.5" xlink:href="#DejaVuSans-110"/>
     <use x="750.878906" xlink:href="#DejaVuSans-103"/>
    </g>
   </g>
   <g id="line2d_62">
    <path d="M 469.8 200.806893 
L 489.8 200.806893 
" style="fill:none;stroke:#8c564b;stroke-linecap:square;stroke-width:1.5;"/>
   </g>
   <g id="line2d_63"/>
   <g id="text_42">
    <!-- R30 tracking -->
    <g transform="translate(497.8 204.306893)scale(0.1 -0.1)">
     <use xlink:href="#DejaVuSans-82"/>
     <use x="69.482422" xlink:href="#DejaVuSans-51"/>
     <use x="133.105469" xlink:href="#DejaVuSans-48"/>
     <use x="196.728516" xlink:href="#DejaVuSans-32"/>
     <use x="228.515625" xlink:href="#DejaVuSans-116"/>
     <use x="267.724609" xlink:href="#DejaVuSans-114"/>
     <use x="308.837891" xlink:href="#DejaVuSans-97"/>
     <use x="370.117188" xlink:href="#DejaVuSans-99"/>
     <use x="425.097656" xlink:href="#DejaVuSans-107"/>
     <use x="483.007812" xlink:href="#DejaVuSans-105"/>
     <use x="510.791016" xlink:href="#DejaVuSans-110"/>
     <use x="574.169922" xlink:href="#DejaVuSans-103"/>
    </g>
   </g>
  </g>
 </g>
 <defs>
  <clipPath id="pc7d4239547">
   <rect height="67.214671" width="416.36" x="30.103125" y="9.681284"/>
  </clipPath>
  <clipPath id="p7c2b4101c2">
   <rect height="67.214671" width="416.36" x="30.103125" y="121.281284"/>
  </clipPath>
  <clipPath id="p109800ce16">
   <rect height="67.214671" width="416.36" x="30.103125" y="232.881284"/>
  </clipPath>
 </defs>
</svg>
