<?xml version="1.0" encoding="utf-8" standalone="no"?>
<!DOCTYPE svg PUBLIC "-//W3C//DTD SVG 1.1//EN"
  "http://www.w3.org/Graphics/SVG/1.1/DTD/svg11.dtd">
<!-- Created with matplotlib (https://matplotlib.org/) -->
<svg height="337.652205pt" version="1.1" viewBox="0 0 578.755312 337.652205" width="578.755312pt" xmlns="http://www.w3.org/2000/svg" xmlns:xlink="http://www.w3.org/1999/xlink">
 <defs>
  <style type="text/css">
*{stroke-linecap:butt;stroke-linejoin:round;white-space:pre;}
  </style>
 </defs>
 <g id="figure_1">
  <g id="patch_1">
   <path d="M 0 337.652205 
L 578.755312 337.652205 
L 578.755312 0 
L 0 0 
z
" style="fill:#ffffff;"/>
  </g>
  <g id="axes_1">
   <g id="patch_2">
    <path d="M 30.103125 76.895955 
L 445.200868 76.895955 
L 445.200868 9.681284 
L 30.103125 9.681284 
z
" style="fill:#ffffff;"/>
   </g>
   <g id="matplotlib.axis_1">
    <g id="xtick_1">
     <g id="line2d_1">
      <defs>
       <path d="M 0 0 
L 0 3.5 
" id="mfd3e1dc19d" style="stroke:#000000;stroke-width:0.8;"/>
      </defs>
      <g>
       <use style="stroke:#000000;stroke-width:0.8;" x="48.971204" xlink:href="#mfd3e1dc19d" y="76.895955"/>
      </g>
     </g>
     <g id="text_1">
      <!-- 0 -->
      <defs>
       <path d="M 31.78125 66.40625 
Q 24.171875 66.40625 20.328125 58.90625 
Q 16.5 51.421875 16.5 36.375 
Q 16.5 21.390625 20.328125 13.890625 
Q 24.171875 6.390625 31.78125 6.390625 
Q 39.453125 6.390625 43.28125 13.890625 
Q 47.125 21.390625 47.125 36.375 
Q 47.125 51.421875 43.28125 58.90625 
Q 39.453125 66.40625 31.78125 66.40625 
z
M 31.78125 74.21875 
Q 44.046875 74.21875 50.515625 64.515625 
Q 56.984375 54.828125 56.984375 36.375 
Q 56.984375 17.96875 50.515625 8.265625 
Q 44.046875 -1.421875 31.78125 -1.421875 
Q 19.53125 -1.421875 13.0625 8.265625 
Q 6.59375 17.96875 6.59375 36.375 
Q 6.59375 54.828125 13.0625 64.515625 
Q 19.53125 74.21875 31.78125 74.21875 
z
" id="DejaVuSans-48"/>
      </defs>
      <g transform="translate(45.789954 91.494393)scale(0.1 -0.1)">
       <use xlink:href="#DejaVuSans-48"/>
      </g>
     </g>
    </g>
    <g id="xtick_2">
     <g id="line2d_2">
      <g>
       <use style="stroke:#000000;stroke-width:0.8;" x="114.033546" xlink:href="#mfd3e1dc19d" y="76.895955"/>
      </g>
     </g>
     <g id="text_2">
      <!-- 5 -->
      <defs>
       <path d="M 10.796875 72.90625 
L 49.515625 72.90625 
L 49.515625 64.59375 
L 19.828125 64.59375 
L 19.828125 46.734375 
Q 21.96875 47.46875 24.109375 47.828125 
Q 26.265625 48.1875 28.421875 48.1875 
Q 40.625 48.1875 47.75 41.5 
Q 54.890625 34.8125 54.890625 23.390625 
Q 54.890625 11.625 47.5625 5.09375 
Q 40.234375 -1.421875 26.90625 -1.421875 
Q 22.3125 -1.421875 17.546875 -0.640625 
Q 12.796875 0.140625 7.71875 1.703125 
L 7.71875 11.625 
Q 12.109375 9.234375 16.796875 8.0625 
Q 21.484375 6.890625 26.703125 6.890625 
Q 35.15625 6.890625 40.078125 11.328125 
Q 45.015625 15.765625 45.015625 23.390625 
Q 45.015625 31 40.078125 35.4375 
Q 35.15625 39.890625 26.703125 39.890625 
Q 22.75 39.890625 18.8125 39.015625 
Q 14.890625 38.140625 10.796875 36.28125 
z
" id="DejaVuSans-53"/>
      </defs>
      <g transform="translate(110.852296 91.494393)scale(0.1 -0.1)">
       <use xlink:href="#DejaVuSans-53"/>
      </g>
     </g>
    </g>
    <g id="xtick_3">
     <g id="line2d_3">
      <g>
       <use style="stroke:#000000;stroke-width:0.8;" x="179.095889" xlink:href="#mfd3e1dc19d" y="76.895955"/>
      </g>
     </g>
     <g id="text_3">
      <!-- 10 -->
      <defs>
       <path d="M 12.40625 8.296875 
L 28.515625 8.296875 
L 28.515625 63.921875 
L 10.984375 60.40625 
L 10.984375 69.390625 
L 28.421875 72.90625 
L 38.28125 72.90625 
L 38.28125 8.296875 
L 54.390625 8.296875 
L 54.390625 0 
L 12.40625 0 
z
" id="DejaVuSans-49"/>
      </defs>
      <g transform="translate(172.733389 91.494393)scale(0.1 -0.1)">
       <use xlink:href="#DejaVuSans-49"/>
       <use x="63.623047" xlink:href="#DejaVuSans-48"/>
      </g>
     </g>
    </g>
    <g id="xtick_4">
     <g id="line2d_4">
      <g>
       <use style="stroke:#000000;stroke-width:0.8;" x="244.158231" xlink:href="#mfd3e1dc19d" y="76.895955"/>
      </g>
     </g>
     <g id="text_4">
      <!-- 15 -->
      <g transform="translate(237.795731 91.494393)scale(0.1 -0.1)">
       <use xlink:href="#DejaVuSans-49"/>
       <use x="63.623047" xlink:href="#DejaVuSans-53"/>
      </g>
     </g>
    </g>
    <g id="xtick_5">
     <g id="line2d_5">
      <g>
       <use style="stroke:#000000;stroke-width:0.8;" x="309.220573" xlink:href="#mfd3e1dc19d" y="76.895955"/>
      </g>
     </g>
     <g id="text_5">
      <!-- 20 -->
      <defs>
       <path d="M 19.1875 8.296875 
L 53.609375 8.296875 
L 53.609375 0 
L 7.328125 0 
L 7.328125 8.296875 
Q 12.9375 14.109375 22.625 23.890625 
Q 32.328125 33.6875 34.8125 36.53125 
Q 39.546875 41.84375 41.421875 45.53125 
Q 43.3125 49.21875 43.3125 52.78125 
Q 43.3125 58.59375 39.234375 62.25 
Q 35.15625 65.921875 28.609375 65.921875 
Q 23.96875 65.921875 18.8125 64.3125 
Q 13.671875 62.703125 7.8125 59.421875 
L 7.8125 69.390625 
Q 13.765625 71.78125 18.9375 73 
Q 24.125 74.21875 28.421875 74.21875 
Q 39.75 74.21875 46.484375 68.546875 
Q 53.21875 62.890625 53.21875 53.421875 
Q 53.21875 48.921875 51.53125 44.890625 
Q 49.859375 40.875 45.40625 35.40625 
Q 44.1875 33.984375 37.640625 27.21875 
Q 31.109375 20.453125 19.1875 8.296875 
z
" id="DejaVuSans-50"/>
      </defs>
      <g transform="translate(302.858073 91.494393)scale(0.1 -0.1)">
       <use xlink:href="#DejaVuSans-50"/>
       <use x="63.623047" xlink:href="#DejaVuSans-48"/>
      </g>
     </g>
    </g>
    <g id="xtick_6">
     <g id="line2d_6">
      <g>
       <use style="stroke:#000000;stroke-width:0.8;" x="374.282915" xlink:href="#mfd3e1dc19d" y="76.895955"/>
      </g>
     </g>
     <g id="text_6">
      <!-- 25 -->
      <g transform="translate(367.920415 91.494393)scale(0.1 -0.1)">
       <use xlink:href="#DejaVuSans-50"/>
       <use x="63.623047" xlink:href="#DejaVuSans-53"/>
      </g>
     </g>
    </g>
    <g id="xtick_7">
     <g id="line2d_7">
      <g>
       <use style="stroke:#000000;stroke-width:0.8;" x="439.345257" xlink:href="#mfd3e1dc19d" y="76.895955"/>
      </g>
     </g>
     <g id="text_7">
      <!-- 30 -->
      <defs>
       <path d="M 40.578125 39.3125 
Q 47.65625 37.796875 51.625 33 
Q 55.609375 28.21875 55.609375 21.1875 
Q 55.609375 10.40625 48.1875 4.484375 
Q 40.765625 -1.421875 27.09375 -1.421875 
Q 22.515625 -1.421875 17.65625 -0.515625 
Q 12.796875 0.390625 7.625 2.203125 
L 7.625 11.71875 
Q 11.71875 9.328125 16.59375 8.109375 
Q 21.484375 6.890625 26.8125 6.890625 
Q 36.078125 6.890625 40.9375 10.546875 
Q 45.796875 14.203125 45.796875 21.1875 
Q 45.796875 27.640625 41.28125 31.265625 
Q 36.765625 34.90625 28.71875 34.90625 
L 20.21875 34.90625 
L 20.21875 43.015625 
L 29.109375 43.015625 
Q 36.375 43.015625 40.234375 45.921875 
Q 44.09375 48.828125 44.09375 54.296875 
Q 44.09375 59.90625 40.109375 62.90625 
Q 36.140625 65.921875 28.71875 65.921875 
Q 24.65625 65.921875 20.015625 65.03125 
Q 15.375 64.15625 9.8125 62.3125 
L 9.8125 71.09375 
Q 15.4375 72.65625 20.34375 73.4375 
Q 25.25 74.21875 29.59375 74.21875 
Q 40.828125 74.21875 47.359375 69.109375 
Q 53.90625 64.015625 53.90625 55.328125 
Q 53.90625 49.265625 50.4375 45.09375 
Q 46.96875 40.921875 40.578125 39.3125 
z
" id="DejaVuSans-51"/>
      </defs>
      <g transform="translate(432.982757 91.494393)scale(0.1 -0.1)">
       <use xlink:href="#DejaVuSans-51"/>
       <use x="63.623047" xlink:href="#DejaVuSans-48"/>
      </g>
     </g>
    </g>
    <g id="text_8">
     <!-- Recall -->
     <defs>
      <path d="M 44.390625 34.1875 
Q 47.5625 33.109375 50.5625 29.59375 
Q 53.5625 26.078125 56.59375 19.921875 
L 66.609375 0 
L 56 0 
L 46.6875 18.703125 
Q 43.0625 26.03125 39.671875 28.421875 
Q 36.28125 30.8125 30.421875 30.8125 
L 19.671875 30.8125 
L 19.671875 0 
L 9.8125 0 
L 9.8125 72.90625 
L 32.078125 72.90625 
Q 44.578125 72.90625 50.734375 67.671875 
Q 56.890625 62.453125 56.890625 51.90625 
Q 56.890625 45.015625 53.6875 40.46875 
Q 50.484375 35.9375 44.390625 34.1875 
z
M 19.671875 64.796875 
L 19.671875 38.921875 
L 32.078125 38.921875 
Q 39.203125 38.921875 42.84375 42.21875 
Q 46.484375 45.515625 46.484375 51.90625 
Q 46.484375 58.296875 42.84375 61.546875 
Q 39.203125 64.796875 32.078125 64.796875 
z
" id="DejaVuSans-82"/>
      <path d="M 56.203125 29.59375 
L 56.203125 25.203125 
L 14.890625 25.203125 
Q 15.484375 15.921875 20.484375 11.0625 
Q 25.484375 6.203125 34.421875 6.203125 
Q 39.59375 6.203125 44.453125 7.46875 
Q 49.3125 8.734375 54.109375 11.28125 
L 54.109375 2.78125 
Q 49.265625 0.734375 44.1875 -0.34375 
Q 39.109375 -1.421875 33.890625 -1.421875 
Q 20.796875 -1.421875 13.15625 6.1875 
Q 5.515625 13.8125 5.515625 26.8125 
Q 5.515625 40.234375 12.765625 48.109375 
Q 20.015625 56 32.328125 56 
Q 43.359375 56 49.78125 48.890625 
Q 56.203125 41.796875 56.203125 29.59375 
z
M 47.21875 32.234375 
Q 47.125 39.59375 43.09375 43.984375 
Q 39.0625 48.390625 32.421875 48.390625 
Q 24.90625 48.390625 20.390625 44.140625 
Q 15.875 39.890625 15.1875 32.171875 
z
" id="DejaVuSans-101"/>
      <path d="M 48.78125 52.59375 
L 48.78125 44.1875 
Q 44.96875 46.296875 41.140625 47.34375 
Q 37.3125 48.390625 33.40625 48.390625 
Q 24.65625 48.390625 19.8125 42.84375 
Q 14.984375 37.3125 14.984375 27.296875 
Q 14.984375 17.28125 19.8125 11.734375 
Q 24.65625 6.203125 33.40625 6.203125 
Q 37.3125 6.203125 41.140625 7.25 
Q 44.96875 8.296875 48.78125 10.40625 
L 48.78125 2.09375 
Q 45.015625 0.34375 40.984375 -0.53125 
Q 36.96875 -1.421875 32.421875 -1.421875 
Q 20.0625 -1.421875 12.78125 6.34375 
Q 5.515625 14.109375 5.515625 27.296875 
Q 5.515625 40.671875 12.859375 48.328125 
Q 20.21875 56 33.015625 56 
Q 37.15625 56 41.109375 55.140625 
Q 45.0625 54.296875 48.78125 52.59375 
z
" id="DejaVuSans-99"/>
      <path d="M 34.28125 27.484375 
Q 23.390625 27.484375 19.1875 25 
Q 14.984375 22.515625 14.984375 16.5 
Q 14.984375 11.71875 18.140625 8.90625 
Q 21.296875 6.109375 26.703125 6.109375 
Q 34.1875 6.109375 38.703125 11.40625 
Q 43.21875 16.703125 43.21875 25.484375 
L 43.21875 27.484375 
z
M 52.203125 31.203125 
L 52.203125 0 
L 43.21875 0 
L 43.21875 8.296875 
Q 40.140625 3.328125 35.546875 0.953125 
Q 30.953125 -1.421875 24.3125 -1.421875 
Q 15.921875 -1.421875 10.953125 3.296875 
Q 6 8.015625 6 15.921875 
Q 6 25.140625 12.171875 29.828125 
Q 18.359375 34.515625 30.609375 34.515625 
L 43.21875 34.515625 
L 43.21875 35.40625 
Q 43.21875 41.609375 39.140625 45 
Q 35.0625 48.390625 27.6875 48.390625 
Q 23 48.390625 18.546875 47.265625 
Q 14.109375 46.140625 10.015625 43.890625 
L 10.015625 52.203125 
Q 14.9375 54.109375 19.578125 55.046875 
Q 24.21875 56 28.609375 56 
Q 40.484375 56 46.34375 49.84375 
Q 52.203125 43.703125 52.203125 31.203125 
z
" id="DejaVuSans-97"/>
      <path d="M 9.421875 75.984375 
L 18.40625 75.984375 
L 18.40625 0 
L 9.421875 0 
z
" id="DejaVuSans-108"/>
     </defs>
     <g transform="translate(222.512934 105.172518)scale(0.1 -0.1)">
      <use xlink:href="#DejaVuSans-82"/>
      <use x="69.419922" xlink:href="#DejaVuSans-101"/>
      <use x="130.943359" xlink:href="#DejaVuSans-99"/>
      <use x="185.923828" xlink:href="#DejaVuSans-97"/>
      <use x="247.203125" xlink:href="#DejaVuSans-108"/>
      <use x="274.986328" xlink:href="#DejaVuSans-108"/>
     </g>
    </g>
   </g>
   <g id="matplotlib.axis_2">
    <g id="ytick_1">
     <g id="line2d_8">
      <defs>
       <path d="M 0 0 
L -3.5 0 
" id="me3b21d97d1" style="stroke:#000000;stroke-width:0.8;"/>
      </defs>
      <g>
       <use style="stroke:#000000;stroke-width:0.8;" x="30.103125" xlink:href="#me3b21d97d1" y="76.895955"/>
      </g>
     </g>
     <g id="text_9">
      <!-- 0.0 -->
      <defs>
       <path d="M 10.6875 12.40625 
L 21 12.40625 
L 21 0 
L 10.6875 0 
z
" id="DejaVuSans-46"/>
      </defs>
      <g transform="translate(7.2 80.695174)scale(0.1 -0.1)">
       <use xlink:href="#DejaVuSans-48"/>
       <use x="63.623047" xlink:href="#DejaVuSans-46"/>
       <use x="95.410156" xlink:href="#DejaVuSans-48"/>
      </g>
     </g>
    </g>
    <g id="ytick_2">
     <g id="line2d_9">
      <g>
       <use style="stroke:#000000;stroke-width:0.8;" x="30.103125" xlink:href="#me3b21d97d1" y="43.947587"/>
      </g>
     </g>
     <g id="text_10">
      <!-- 0.5 -->
      <g transform="translate(7.2 47.746806)scale(0.1 -0.1)">
       <use xlink:href="#DejaVuSans-48"/>
       <use x="63.623047" xlink:href="#DejaVuSans-46"/>
       <use x="95.410156" xlink:href="#DejaVuSans-53"/>
      </g>
     </g>
    </g>
    <g id="ytick_3">
     <g id="line2d_10">
      <g>
       <use style="stroke:#000000;stroke-width:0.8;" x="30.103125" xlink:href="#me3b21d97d1" y="10.999219"/>
      </g>
     </g>
     <g id="text_11">
      <!-- 1.0 -->
      <g transform="translate(7.2 14.798437)scale(0.1 -0.1)">
       <use xlink:href="#DejaVuSans-49"/>
       <use x="63.623047" xlink:href="#DejaVuSans-46"/>
       <use x="95.410156" xlink:href="#DejaVuSans-48"/>
      </g>
     </g>
    </g>
   </g>
   <g id="line2d_11">
    <path clip-path="url(#p419b46b97c)" d="M 48.971204 10.999219 
L 61.983673 10.999219 
L 74.996141 10.999219 
L 88.00861 10.999219 
L 101.021078 10.999219 
L 114.033546 10.999219 
L 127.046015 10.999219 
L 140.058483 10.999219 
L 153.070952 10.999219 
L 166.08342 10.999219 
L 179.095889 10.999219 
L 192.108357 10.999219 
L 205.120825 10.999219 
L 218.133294 10.999219 
L 231.145762 10.999219 
L 244.158231 10.999219 
L 257.170699 10.999219 
L 270.183168 10.999219 
L 283.195636 10.999219 
L 296.208104 10.999219 
L 309.220573 10.999219 
L 322.233041 10.999219 
L 335.24551 10.999219 
L 348.257978 10.999219 
L 361.270447 10.999219 
L 374.282915 10.999219 
L 387.295383 10.999219 
L 400.307852 10.999219 
L 413.32032 10.999219 
L 426.332789 10.999219 
" style="fill:none;stroke:#1f77b4;stroke-linecap:square;stroke-width:1.5;"/>
    <defs>
     <path d="M 0 -3 
L -0.673542 -0.927051 
L -2.85317 -0.927051 
L -1.089814 0.354102 
L -1.763356 2.427051 
L -0 1.145898 
L 1.763356 2.427051 
L 1.089814 0.354102 
L 2.85317 -0.927051 
L 0.673542 -0.927051 
z
" id="mf993f29e72" style="stroke:#1f77b4;stroke-linejoin:bevel;"/>
    </defs>
    <g clip-path="url(#p419b46b97c)">
     <use style="fill:#1f77b4;stroke:#1f77b4;stroke-linejoin:bevel;" x="48.971204" xlink:href="#mf993f29e72" y="10.999219"/>
     <use style="fill:#1f77b4;stroke:#1f77b4;stroke-linejoin:bevel;" x="61.983673" xlink:href="#mf993f29e72" y="10.999219"/>
     <use style="fill:#1f77b4;stroke:#1f77b4;stroke-linejoin:bevel;" x="74.996141" xlink:href="#mf993f29e72" y="10.999219"/>
     <use style="fill:#1f77b4;stroke:#1f77b4;stroke-linejoin:bevel;" x="88.00861" xlink:href="#mf993f29e72" y="10.999219"/>
     <use style="fill:#1f77b4;stroke:#1f77b4;stroke-linejoin:bevel;" x="101.021078" xlink:href="#mf993f29e72" y="10.999219"/>
     <use style="fill:#1f77b4;stroke:#1f77b4;stroke-linejoin:bevel;" x="114.033546" xlink:href="#mf993f29e72" y="10.999219"/>
     <use style="fill:#1f77b4;stroke:#1f77b4;stroke-linejoin:bevel;" x="127.046015" xlink:href="#mf993f29e72" y="10.999219"/>
     <use style="fill:#1f77b4;stroke:#1f77b4;stroke-linejoin:bevel;" x="140.058483" xlink:href="#mf993f29e72" y="10.999219"/>
     <use style="fill:#1f77b4;stroke:#1f77b4;stroke-linejoin:bevel;" x="153.070952" xlink:href="#mf993f29e72" y="10.999219"/>
     <use style="fill:#1f77b4;stroke:#1f77b4;stroke-linejoin:bevel;" x="166.08342" xlink:href="#mf993f29e72" y="10.999219"/>
     <use style="fill:#1f77b4;stroke:#1f77b4;stroke-linejoin:bevel;" x="179.095889" xlink:href="#mf993f29e72" y="10.999219"/>
     <use style="fill:#1f77b4;stroke:#1f77b4;stroke-linejoin:bevel;" x="192.108357" xlink:href="#mf993f29e72" y="10.999219"/>
     <use style="fill:#1f77b4;stroke:#1f77b4;stroke-linejoin:bevel;" x="205.120825" xlink:href="#mf993f29e72" y="10.999219"/>
     <use style="fill:#1f77b4;stroke:#1f77b4;stroke-linejoin:bevel;" x="218.133294" xlink:href="#mf993f29e72" y="10.999219"/>
     <use style="fill:#1f77b4;stroke:#1f77b4;stroke-linejoin:bevel;" x="231.145762" xlink:href="#mf993f29e72" y="10.999219"/>
     <use style="fill:#1f77b4;stroke:#1f77b4;stroke-linejoin:bevel;" x="244.158231" xlink:href="#mf993f29e72" y="10.999219"/>
     <use style="fill:#1f77b4;stroke:#1f77b4;stroke-linejoin:bevel;" x="257.170699" xlink:href="#mf993f29e72" y="10.999219"/>
     <use style="fill:#1f77b4;stroke:#1f77b4;stroke-linejoin:bevel;" x="270.183168" xlink:href="#mf993f29e72" y="10.999219"/>
     <use style="fill:#1f77b4;stroke:#1f77b4;stroke-linejoin:bevel;" x="283.195636" xlink:href="#mf993f29e72" y="10.999219"/>
     <use style="fill:#1f77b4;stroke:#1f77b4;stroke-linejoin:bevel;" x="296.208104" xlink:href="#mf993f29e72" y="10.999219"/>
     <use style="fill:#1f77b4;stroke:#1f77b4;stroke-linejoin:bevel;" x="309.220573" xlink:href="#mf993f29e72" y="10.999219"/>
     <use style="fill:#1f77b4;stroke:#1f77b4;stroke-linejoin:bevel;" x="322.233041" xlink:href="#mf993f29e72" y="10.999219"/>
     <use style="fill:#1f77b4;stroke:#1f77b4;stroke-linejoin:bevel;" x="335.24551" xlink:href="#mf993f29e72" y="10.999219"/>
     <use style="fill:#1f77b4;stroke:#1f77b4;stroke-linejoin:bevel;" x="348.257978" xlink:href="#mf993f29e72" y="10.999219"/>
     <use style="fill:#1f77b4;stroke:#1f77b4;stroke-linejoin:bevel;" x="361.270447" xlink:href="#mf993f29e72" y="10.999219"/>
     <use style="fill:#1f77b4;stroke:#1f77b4;stroke-linejoin:bevel;" x="374.282915" xlink:href="#mf993f29e72" y="10.999219"/>
     <use style="fill:#1f77b4;stroke:#1f77b4;stroke-linejoin:bevel;" x="387.295383" xlink:href="#mf993f29e72" y="10.999219"/>
     <use style="fill:#1f77b4;stroke:#1f77b4;stroke-linejoin:bevel;" x="400.307852" xlink:href="#mf993f29e72" y="10.999219"/>
     <use style="fill:#1f77b4;stroke:#1f77b4;stroke-linejoin:bevel;" x="413.32032" xlink:href="#mf993f29e72" y="10.999219"/>
     <use style="fill:#1f77b4;stroke:#1f77b4;stroke-linejoin:bevel;" x="426.332789" xlink:href="#mf993f29e72" y="10.999219"/>
    </g>
   </g>
   <g id="line2d_12">
    <path clip-path="url(#p419b46b97c)" d="M 48.971204 10.999219 
L 61.983673 10.999219 
L 74.996141 10.999219 
L 88.00861 10.999219 
L 101.021078 10.999219 
L 114.033546 10.999219 
L 127.046015 10.999219 
L 140.058483 10.999219 
L 153.070952 10.999219 
L 166.08342 10.999219 
L 179.095889 10.999219 
L 192.108357 10.999219 
L 205.120825 10.999219 
L 218.133294 10.999219 
L 231.145762 10.999219 
L 244.158231 10.999219 
L 257.170699 10.999219 
L 270.183168 10.999219 
L 283.195636 10.999219 
L 296.208104 10.999219 
L 309.220573 10.999219 
L 322.233041 10.999219 
L 335.24551 10.999219 
L 348.257978 10.999219 
L 361.270447 10.999219 
L 374.282915 10.999219 
L 387.295383 10.999219 
L 400.307852 10.999219 
L 413.32032 10.999219 
L 426.332789 10.999219 
" style="fill:none;stroke:#ff7f0e;stroke-linecap:square;stroke-width:1.5;"/>
   </g>
   <g id="line2d_13">
    <path clip-path="url(#p419b46b97c)" d="M 48.971204 10.999219 
L 61.983673 33.122729 
L 74.996141 10.999219 
L 88.00861 37.869944 
L 101.021078 10.999219 
L 114.033546 38.282538 
L 127.046015 10.999219 
L 140.058483 37.859847 
L 153.070952 10.999219 
L 166.08342 35.548631 
L 179.095889 10.999219 
L 192.108357 37.871937 
L 205.120825 10.999219 
L 218.133294 36.379777 
L 231.145762 10.999219 
L 244.158231 35.354993 
L 257.170699 10.999219 
L 270.183168 36.071328 
L 283.195636 10.999219 
L 296.208104 36.987122 
L 309.220573 10.999219 
L 322.233041 36.46787 
L 335.24551 10.999219 
L 348.257978 34.350712 
L 361.270447 10.999219 
L 374.282915 31.894073 
L 387.295383 10.999219 
L 400.307852 31.791019 
L 413.32032 10.999219 
L 426.332789 33.873643 
" style="fill:none;stroke:#2ca02c;stroke-linecap:square;stroke-width:1.5;"/>
   </g>
   <g id="line2d_14">
    <path clip-path="url(#p419b46b97c)" d="M 48.971204 10.999219 
L 61.983673 33.122729 
L 74.996141 35.664736 
L 88.00861 10.999219 
L 101.021078 37.196609 
L 114.033546 38.282538 
L 127.046015 10.999219 
L 140.058483 37.859847 
L 153.070952 37.580415 
L 166.08342 10.999219 
L 179.095889 36.334982 
L 192.108357 37.871937 
L 205.120825 10.999219 
L 218.133294 36.379777 
L 231.145762 37.790438 
L 244.158231 10.999219 
L 257.170699 37.857419 
L 270.183168 36.071328 
L 283.195636 10.999219 
L 296.208104 36.987122 
L 309.220573 35.592399 
L 322.233041 10.999219 
L 335.24551 34.071725 
L 348.257978 34.350712 
L 361.270447 10.999219 
L 374.282915 31.894073 
L 387.295383 34.143747 
L 400.307852 10.999219 
L 413.32032 34.528207 
L 426.332789 33.873643 
" style="fill:none;stroke:#d62728;stroke-linecap:square;stroke-width:1.5;"/>
   </g>
   <g id="line2d_15">
    <path clip-path="url(#p419b46b97c)" d="M 48.971204 10.999219 
L 61.983673 33.122729 
L 74.996141 35.664736 
L 88.00861 37.869944 
L 101.021078 37.196609 
L 114.033546 10.999219 
L 127.046015 36.351014 
L 140.058483 37.859847 
L 153.070952 37.580415 
L 166.08342 35.548631 
L 179.095889 10.999219 
L 192.108357 37.871937 
L 205.120825 38.933122 
L 218.133294 36.379777 
L 231.145762 37.790438 
L 244.158231 10.999219 
L 257.170699 37.857419 
L 270.183168 36.071328 
L 283.195636 37.407715 
L 296.208104 36.987122 
L 309.220573 10.999219 
L 322.233041 36.46787 
L 335.24551 34.071725 
L 348.257978 34.350712 
L 361.270447 32.83617 
L 374.282915 10.999219 
L 387.295383 34.143747 
L 400.307852 31.791019 
L 413.32032 34.528207 
L 426.332789 33.873643 
" style="fill:none;stroke:#9467bd;stroke-linecap:square;stroke-width:1.5;"/>
   </g>
   <g id="line2d_16">
    <path clip-path="url(#p419b46b97c)" d="M 48.971204 10.999219 
L 61.983673 33.122729 
L 74.996141 35.664736 
L 88.00861 37.869944 
L 101.021078 37.196609 
L 114.033546 38.282538 
L 127.046015 36.351014 
L 140.058483 37.859847 
L 153.070952 37.580415 
L 166.08342 35.548631 
L 179.095889 10.999219 
L 192.108357 37.871937 
L 205.120825 38.933122 
L 218.133294 36.379777 
L 231.145762 37.790438 
L 244.158231 35.354993 
L 257.170699 37.857419 
L 270.183168 36.071328 
L 283.195636 37.407715 
L 296.208104 36.987122 
L 309.220573 10.999219 
L 322.233041 36.46787 
L 335.24551 34.071725 
L 348.257978 34.350712 
L 361.270447 32.83617 
L 374.282915 31.894073 
L 387.295383 34.143747 
L 400.307852 31.791019 
L 413.32032 34.528207 
L 426.332789 33.873643 
" style="fill:none;stroke:#8c564b;stroke-linecap:square;stroke-width:1.5;"/>
   </g>
   <g id="line2d_17">
    <path clip-path="url(#p419b46b97c)" d="M 48.971204 34.556001 
L 61.983673 33.122729 
L 74.996141 35.664736 
L 88.00861 37.869944 
L 101.021078 37.196609 
L 114.033546 38.282538 
L 127.046015 36.351014 
L 140.058483 37.859847 
L 153.070952 37.580415 
L 166.08342 35.548631 
L 179.095889 36.334982 
L 192.108357 37.871937 
L 205.120825 38.933122 
L 218.133294 36.379777 
L 231.145762 37.790438 
L 244.158231 35.354993 
L 257.170699 37.857419 
L 270.183168 36.071328 
L 283.195636 37.407715 
L 296.208104 36.987122 
L 309.220573 35.592399 
L 322.233041 36.46787 
L 335.24551 34.071725 
L 348.257978 34.350712 
L 361.270447 32.83617 
L 374.282915 31.894073 
L 387.295383 34.143747 
L 400.307852 31.791019 
L 413.32032 34.528207 
L 426.332789 33.873643 
" style="fill:none;stroke:#e377c2;stroke-linecap:square;stroke-width:1.5;"/>
    <defs>
     <path d="M -3 0 
L 3 0 
M 0 3 
L 0 -3 
" id="ma1bf24ad54" style="stroke:#e377c2;"/>
    </defs>
    <g clip-path="url(#p419b46b97c)">
     <use style="fill:#e377c2;stroke:#e377c2;" x="48.971204" xlink:href="#ma1bf24ad54" y="34.556001"/>
     <use style="fill:#e377c2;stroke:#e377c2;" x="61.983673" xlink:href="#ma1bf24ad54" y="33.122729"/>
     <use style="fill:#e377c2;stroke:#e377c2;" x="74.996141" xlink:href="#ma1bf24ad54" y="35.664736"/>
     <use style="fill:#e377c2;stroke:#e377c2;" x="88.00861" xlink:href="#ma1bf24ad54" y="37.869944"/>
     <use style="fill:#e377c2;stroke:#e377c2;" x="101.021078" xlink:href="#ma1bf24ad54" y="37.196609"/>
     <use style="fill:#e377c2;stroke:#e377c2;" x="114.033546" xlink:href="#ma1bf24ad54" y="38.282538"/>
     <use style="fill:#e377c2;stroke:#e377c2;" x="127.046015" xlink:href="#ma1bf24ad54" y="36.351014"/>
     <use style="fill:#e377c2;stroke:#e377c2;" x="140.058483" xlink:href="#ma1bf24ad54" y="37.859847"/>
     <use style="fill:#e377c2;stroke:#e377c2;" x="153.070952" xlink:href="#ma1bf24ad54" y="37.580415"/>
     <use style="fill:#e377c2;stroke:#e377c2;" x="166.08342" xlink:href="#ma1bf24ad54" y="35.548631"/>
     <use style="fill:#e377c2;stroke:#e377c2;" x="179.095889" xlink:href="#ma1bf24ad54" y="36.334982"/>
     <use style="fill:#e377c2;stroke:#e377c2;" x="192.108357" xlink:href="#ma1bf24ad54" y="37.871937"/>
     <use style="fill:#e377c2;stroke:#e377c2;" x="205.120825" xlink:href="#ma1bf24ad54" y="38.933122"/>
     <use style="fill:#e377c2;stroke:#e377c2;" x="218.133294" xlink:href="#ma1bf24ad54" y="36.379777"/>
     <use style="fill:#e377c2;stroke:#e377c2;" x="231.145762" xlink:href="#ma1bf24ad54" y="37.790438"/>
     <use style="fill:#e377c2;stroke:#e377c2;" x="244.158231" xlink:href="#ma1bf24ad54" y="35.354993"/>
     <use style="fill:#e377c2;stroke:#e377c2;" x="257.170699" xlink:href="#ma1bf24ad54" y="37.857419"/>
     <use style="fill:#e377c2;stroke:#e377c2;" x="270.183168" xlink:href="#ma1bf24ad54" y="36.071328"/>
     <use style="fill:#e377c2;stroke:#e377c2;" x="283.195636" xlink:href="#ma1bf24ad54" y="37.407715"/>
     <use style="fill:#e377c2;stroke:#e377c2;" x="296.208104" xlink:href="#ma1bf24ad54" y="36.987122"/>
     <use style="fill:#e377c2;stroke:#e377c2;" x="309.220573" xlink:href="#ma1bf24ad54" y="35.592399"/>
     <use style="fill:#e377c2;stroke:#e377c2;" x="322.233041" xlink:href="#ma1bf24ad54" y="36.46787"/>
     <use style="fill:#e377c2;stroke:#e377c2;" x="335.24551" xlink:href="#ma1bf24ad54" y="34.071725"/>
     <use style="fill:#e377c2;stroke:#e377c2;" x="348.257978" xlink:href="#ma1bf24ad54" y="34.350712"/>
     <use style="fill:#e377c2;stroke:#e377c2;" x="361.270447" xlink:href="#ma1bf24ad54" y="32.83617"/>
     <use style="fill:#e377c2;stroke:#e377c2;" x="374.282915" xlink:href="#ma1bf24ad54" y="31.894073"/>
     <use style="fill:#e377c2;stroke:#e377c2;" x="387.295383" xlink:href="#ma1bf24ad54" y="34.143747"/>
     <use style="fill:#e377c2;stroke:#e377c2;" x="400.307852" xlink:href="#ma1bf24ad54" y="31.791019"/>
     <use style="fill:#e377c2;stroke:#e377c2;" x="413.32032" xlink:href="#ma1bf24ad54" y="34.528207"/>
     <use style="fill:#e377c2;stroke:#e377c2;" x="426.332789" xlink:href="#ma1bf24ad54" y="33.873643"/>
    </g>
   </g>
   <g id="patch_3">
    <path d="M 30.103125 76.895955 
L 30.103125 9.681284 
" style="fill:none;stroke:#000000;stroke-linecap:square;stroke-linejoin:miter;stroke-width:0.8;"/>
   </g>
   <g id="patch_4">
    <path d="M 445.200868 76.895955 
L 445.200868 9.681284 
" style="fill:none;stroke:#000000;stroke-linecap:square;stroke-linejoin:miter;stroke-width:0.8;"/>
   </g>
   <g id="patch_5">
    <path d="M 30.103125 76.895955 
L 445.200868 76.895955 
" style="fill:none;stroke:#000000;stroke-linecap:square;stroke-linejoin:miter;stroke-width:0.8;"/>
   </g>
   <g id="patch_6">
    <path d="M 30.103125 9.681284 
L 445.200868 9.681284 
" style="fill:none;stroke:#000000;stroke-linecap:square;stroke-linejoin:miter;stroke-width:0.8;"/>
   </g>
  </g>
  <g id="axes_2">
   <g id="patch_7">
    <path d="M 30.103125 188.495955 
L 445.200868 188.495955 
L 445.200868 121.281284 
L 30.103125 121.281284 
z
" style="fill:#ffffff;"/>
   </g>
   <g id="matplotlib.axis_3">
    <g id="xtick_8">
     <g id="line2d_18">
      <g>
       <use style="stroke:#000000;stroke-width:0.8;" x="48.971204" xlink:href="#mfd3e1dc19d" y="188.495955"/>
      </g>
     </g>
     <g id="text_12">
      <!-- 0 -->
      <g transform="translate(45.789954 203.094393)scale(0.1 -0.1)">
       <use xlink:href="#DejaVuSans-48"/>
      </g>
     </g>
    </g>
    <g id="xtick_9">
     <g id="line2d_19">
      <g>
       <use style="stroke:#000000;stroke-width:0.8;" x="114.033546" xlink:href="#mfd3e1dc19d" y="188.495955"/>
      </g>
     </g>
     <g id="text_13">
      <!-- 5 -->
      <g transform="translate(110.852296 203.094393)scale(0.1 -0.1)">
       <use xlink:href="#DejaVuSans-53"/>
      </g>
     </g>
    </g>
    <g id="xtick_10">
     <g id="line2d_20">
      <g>
       <use style="stroke:#000000;stroke-width:0.8;" x="179.095889" xlink:href="#mfd3e1dc19d" y="188.495955"/>
      </g>
     </g>
     <g id="text_14">
      <!-- 10 -->
      <g transform="translate(172.733389 203.094393)scale(0.1 -0.1)">
       <use xlink:href="#DejaVuSans-49"/>
       <use x="63.623047" xlink:href="#DejaVuSans-48"/>
      </g>
     </g>
    </g>
    <g id="xtick_11">
     <g id="line2d_21">
      <g>
       <use style="stroke:#000000;stroke-width:0.8;" x="244.158231" xlink:href="#mfd3e1dc19d" y="188.495955"/>
      </g>
     </g>
     <g id="text_15">
      <!-- 15 -->
      <g transform="translate(237.795731 203.094393)scale(0.1 -0.1)">
       <use xlink:href="#DejaVuSans-49"/>
       <use x="63.623047" xlink:href="#DejaVuSans-53"/>
      </g>
     </g>
    </g>
    <g id="xtick_12">
     <g id="line2d_22">
      <g>
       <use style="stroke:#000000;stroke-width:0.8;" x="309.220573" xlink:href="#mfd3e1dc19d" y="188.495955"/>
      </g>
     </g>
     <g id="text_16">
      <!-- 20 -->
      <g transform="translate(302.858073 203.094393)scale(0.1 -0.1)">
       <use xlink:href="#DejaVuSans-50"/>
       <use x="63.623047" xlink:href="#DejaVuSans-48"/>
      </g>
     </g>
    </g>
    <g id="xtick_13">
     <g id="line2d_23">
      <g>
       <use style="stroke:#000000;stroke-width:0.8;" x="374.282915" xlink:href="#mfd3e1dc19d" y="188.495955"/>
      </g>
     </g>
     <g id="text_17">
      <!-- 25 -->
      <g transform="translate(367.920415 203.094393)scale(0.1 -0.1)">
       <use xlink:href="#DejaVuSans-50"/>
       <use x="63.623047" xlink:href="#DejaVuSans-53"/>
      </g>
     </g>
    </g>
    <g id="xtick_14">
     <g id="line2d_24">
      <g>
       <use style="stroke:#000000;stroke-width:0.8;" x="439.345257" xlink:href="#mfd3e1dc19d" y="188.495955"/>
      </g>
     </g>
     <g id="text_18">
      <!-- 30 -->
      <g transform="translate(432.982757 203.094393)scale(0.1 -0.1)">
       <use xlink:href="#DejaVuSans-51"/>
       <use x="63.623047" xlink:href="#DejaVuSans-48"/>
      </g>
     </g>
    </g>
    <g id="text_19">
     <!-- Precision -->
     <defs>
      <path d="M 19.671875 64.796875 
L 19.671875 37.40625 
L 32.078125 37.40625 
Q 38.96875 37.40625 42.71875 40.96875 
Q 46.484375 44.53125 46.484375 51.125 
Q 46.484375 57.671875 42.71875 61.234375 
Q 38.96875 64.796875 32.078125 64.796875 
z
M 9.8125 72.90625 
L 32.078125 72.90625 
Q 44.34375 72.90625 50.609375 67.359375 
Q 56.890625 61.8125 56.890625 51.125 
Q 56.890625 40.328125 50.609375 34.8125 
Q 44.34375 29.296875 32.078125 29.296875 
L 19.671875 29.296875 
L 19.671875 0 
L 9.8125 0 
z
" id="DejaVuSans-80"/>
      <path d="M 41.109375 46.296875 
Q 39.59375 47.171875 37.8125 47.578125 
Q 36.03125 48 33.890625 48 
Q 26.265625 48 22.1875 43.046875 
Q 18.109375 38.09375 18.109375 28.8125 
L 18.109375 0 
L 9.078125 0 
L 9.078125 54.6875 
L 18.109375 54.6875 
L 18.109375 46.1875 
Q 20.953125 51.171875 25.484375 53.578125 
Q 30.03125 56 36.53125 56 
Q 37.453125 56 38.578125 55.875 
Q 39.703125 55.765625 41.0625 55.515625 
z
" id="DejaVuSans-114"/>
      <path d="M 9.421875 54.6875 
L 18.40625 54.6875 
L 18.40625 0 
L 9.421875 0 
z
M 9.421875 75.984375 
L 18.40625 75.984375 
L 18.40625 64.59375 
L 9.421875 64.59375 
z
" id="DejaVuSans-105"/>
      <path d="M 44.28125 53.078125 
L 44.28125 44.578125 
Q 40.484375 46.53125 36.375 47.5 
Q 32.28125 48.484375 27.875 48.484375 
Q 21.1875 48.484375 17.84375 46.4375 
Q 14.5 44.390625 14.5 40.28125 
Q 14.5 37.15625 16.890625 35.375 
Q 19.28125 33.59375 26.515625 31.984375 
L 29.59375 31.296875 
Q 39.15625 29.25 43.1875 25.515625 
Q 47.21875 21.78125 47.21875 15.09375 
Q 47.21875 7.46875 41.1875 3.015625 
Q 35.15625 -1.421875 24.609375 -1.421875 
Q 20.21875 -1.421875 15.453125 -0.5625 
Q 10.6875 0.296875 5.421875 2 
L 5.421875 11.28125 
Q 10.40625 8.6875 15.234375 7.390625 
Q 20.0625 6.109375 24.8125 6.109375 
Q 31.15625 6.109375 34.5625 8.28125 
Q 37.984375 10.453125 37.984375 14.40625 
Q 37.984375 18.0625 35.515625 20.015625 
Q 33.0625 21.96875 24.703125 23.78125 
L 21.578125 24.515625 
Q 13.234375 26.265625 9.515625 29.90625 
Q 5.8125 33.546875 5.8125 39.890625 
Q 5.8125 47.609375 11.28125 51.796875 
Q 16.75 56 26.8125 56 
Q 31.78125 56 36.171875 55.265625 
Q 40.578125 54.546875 44.28125 53.078125 
z
" id="DejaVuSans-115"/>
      <path d="M 30.609375 48.390625 
Q 23.390625 48.390625 19.1875 42.75 
Q 14.984375 37.109375 14.984375 27.296875 
Q 14.984375 17.484375 19.15625 11.84375 
Q 23.34375 6.203125 30.609375 6.203125 
Q 37.796875 6.203125 41.984375 11.859375 
Q 46.1875 17.53125 46.1875 27.296875 
Q 46.1875 37.015625 41.984375 42.703125 
Q 37.796875 48.390625 30.609375 48.390625 
z
M 30.609375 56 
Q 42.328125 56 49.015625 48.375 
Q 55.71875 40.765625 55.71875 27.296875 
Q 55.71875 13.875 49.015625 6.21875 
Q 42.328125 -1.421875 30.609375 -1.421875 
Q 18.84375 -1.421875 12.171875 6.21875 
Q 5.515625 13.875 5.515625 27.296875 
Q 5.515625 40.765625 12.171875 48.375 
Q 18.84375 56 30.609375 56 
z
" id="DejaVuSans-111"/>
      <path d="M 54.890625 33.015625 
L 54.890625 0 
L 45.90625 0 
L 45.90625 32.71875 
Q 45.90625 40.484375 42.875 44.328125 
Q 39.84375 48.1875 33.796875 48.1875 
Q 26.515625 48.1875 22.3125 43.546875 
Q 18.109375 38.921875 18.109375 30.90625 
L 18.109375 0 
L 9.078125 0 
L 9.078125 54.6875 
L 18.109375 54.6875 
L 18.109375 46.1875 
Q 21.34375 51.125 25.703125 53.5625 
Q 30.078125 56 35.796875 56 
Q 45.21875 56 50.046875 50.171875 
Q 54.890625 44.34375 54.890625 33.015625 
z
" id="DejaVuSans-110"/>
     </defs>
     <g transform="translate(215.147309 216.772518)scale(0.1 -0.1)">
      <use xlink:href="#DejaVuSans-80"/>
      <use x="60.287109" xlink:href="#DejaVuSans-114"/>
      <use x="101.369141" xlink:href="#DejaVuSans-101"/>
      <use x="162.892578" xlink:href="#DejaVuSans-99"/>
      <use x="217.873047" xlink:href="#DejaVuSans-105"/>
      <use x="245.65625" xlink:href="#DejaVuSans-115"/>
      <use x="297.755859" xlink:href="#DejaVuSans-105"/>
      <use x="325.539062" xlink:href="#DejaVuSans-111"/>
      <use x="386.720703" xlink:href="#DejaVuSans-110"/>
     </g>
    </g>
   </g>
   <g id="matplotlib.axis_4">
    <g id="ytick_4">
     <g id="line2d_25">
      <g>
       <use style="stroke:#000000;stroke-width:0.8;" x="30.103125" xlink:href="#me3b21d97d1" y="188.495955"/>
      </g>
     </g>
     <g id="text_20">
      <!-- 0.0 -->
      <g transform="translate(7.2 192.295174)scale(0.1 -0.1)">
       <use xlink:href="#DejaVuSans-48"/>
       <use x="63.623047" xlink:href="#DejaVuSans-46"/>
       <use x="95.410156" xlink:href="#DejaVuSans-48"/>
      </g>
     </g>
    </g>
    <g id="ytick_5">
     <g id="line2d_26">
      <g>
       <use style="stroke:#000000;stroke-width:0.8;" x="30.103125" xlink:href="#me3b21d97d1" y="155.547587"/>
      </g>
     </g>
     <g id="text_21">
      <!-- 0.5 -->
      <g transform="translate(7.2 159.346806)scale(0.1 -0.1)">
       <use xlink:href="#DejaVuSans-48"/>
       <use x="63.623047" xlink:href="#DejaVuSans-46"/>
       <use x="95.410156" xlink:href="#DejaVuSans-53"/>
      </g>
     </g>
    </g>
    <g id="ytick_6">
     <g id="line2d_27">
      <g>
       <use style="stroke:#000000;stroke-width:0.8;" x="30.103125" xlink:href="#me3b21d97d1" y="122.599219"/>
      </g>
     </g>
     <g id="text_22">
      <!-- 1.0 -->
      <g transform="translate(7.2 126.398437)scale(0.1 -0.1)">
       <use xlink:href="#DejaVuSans-49"/>
       <use x="63.623047" xlink:href="#DejaVuSans-46"/>
       <use x="95.410156" xlink:href="#DejaVuSans-48"/>
      </g>
     </g>
    </g>
   </g>
   <g id="line2d_28">
    <path clip-path="url(#p64c8f0e3e6)" d="M 48.971204 122.599219 
L 61.983673 122.599219 
L 74.996141 122.599219 
L 88.00861 122.599219 
L 101.021078 122.599219 
L 114.033546 122.599219 
L 127.046015 122.599219 
L 140.058483 122.599219 
L 153.070952 122.599219 
L 166.08342 122.599219 
L 179.095889 122.599219 
L 192.108357 122.599219 
L 205.120825 122.599219 
L 218.133294 122.599219 
L 231.145762 122.599219 
L 244.158231 122.599219 
L 257.170699 122.599219 
L 270.183168 122.599219 
L 283.195636 122.599219 
L 296.208104 122.599219 
L 309.220573 122.599219 
L 322.233041 122.599219 
L 335.24551 122.599219 
L 348.257978 122.599219 
L 361.270447 122.599219 
L 374.282915 122.599219 
L 387.295383 122.599219 
L 400.307852 122.599219 
L 413.32032 122.599219 
L 426.332789 122.599219 
" style="fill:none;stroke:#1f77b4;stroke-linecap:square;stroke-width:1.5;"/>
    <g clip-path="url(#p64c8f0e3e6)">
     <use style="fill:#1f77b4;stroke:#1f77b4;stroke-linejoin:bevel;" x="48.971204" xlink:href="#mf993f29e72" y="122.599219"/>
     <use style="fill:#1f77b4;stroke:#1f77b4;stroke-linejoin:bevel;" x="61.983673" xlink:href="#mf993f29e72" y="122.599219"/>
     <use style="fill:#1f77b4;stroke:#1f77b4;stroke-linejoin:bevel;" x="74.996141" xlink:href="#mf993f29e72" y="122.599219"/>
     <use style="fill:#1f77b4;stroke:#1f77b4;stroke-linejoin:bevel;" x="88.00861" xlink:href="#mf993f29e72" y="122.599219"/>
     <use style="fill:#1f77b4;stroke:#1f77b4;stroke-linejoin:bevel;" x="101.021078" xlink:href="#mf993f29e72" y="122.599219"/>
     <use style="fill:#1f77b4;stroke:#1f77b4;stroke-linejoin:bevel;" x="114.033546" xlink:href="#mf993f29e72" y="122.599219"/>
     <use style="fill:#1f77b4;stroke:#1f77b4;stroke-linejoin:bevel;" x="127.046015" xlink:href="#mf993f29e72" y="122.599219"/>
     <use style="fill:#1f77b4;stroke:#1f77b4;stroke-linejoin:bevel;" x="140.058483" xlink:href="#mf993f29e72" y="122.599219"/>
     <use style="fill:#1f77b4;stroke:#1f77b4;stroke-linejoin:bevel;" x="153.070952" xlink:href="#mf993f29e72" y="122.599219"/>
     <use style="fill:#1f77b4;stroke:#1f77b4;stroke-linejoin:bevel;" x="166.08342" xlink:href="#mf993f29e72" y="122.599219"/>
     <use style="fill:#1f77b4;stroke:#1f77b4;stroke-linejoin:bevel;" x="179.095889" xlink:href="#mf993f29e72" y="122.599219"/>
     <use style="fill:#1f77b4;stroke:#1f77b4;stroke-linejoin:bevel;" x="192.108357" xlink:href="#mf993f29e72" y="122.599219"/>
     <use style="fill:#1f77b4;stroke:#1f77b4;stroke-linejoin:bevel;" x="205.120825" xlink:href="#mf993f29e72" y="122.599219"/>
     <use style="fill:#1f77b4;stroke:#1f77b4;stroke-linejoin:bevel;" x="218.133294" xlink:href="#mf993f29e72" y="122.599219"/>
     <use style="fill:#1f77b4;stroke:#1f77b4;stroke-linejoin:bevel;" x="231.145762" xlink:href="#mf993f29e72" y="122.599219"/>
     <use style="fill:#1f77b4;stroke:#1f77b4;stroke-linejoin:bevel;" x="244.158231" xlink:href="#mf993f29e72" y="122.599219"/>
     <use style="fill:#1f77b4;stroke:#1f77b4;stroke-linejoin:bevel;" x="257.170699" xlink:href="#mf993f29e72" y="122.599219"/>
     <use style="fill:#1f77b4;stroke:#1f77b4;stroke-linejoin:bevel;" x="270.183168" xlink:href="#mf993f29e72" y="122.599219"/>
     <use style="fill:#1f77b4;stroke:#1f77b4;stroke-linejoin:bevel;" x="283.195636" xlink:href="#mf993f29e72" y="122.599219"/>
     <use style="fill:#1f77b4;stroke:#1f77b4;stroke-linejoin:bevel;" x="296.208104" xlink:href="#mf993f29e72" y="122.599219"/>
     <use style="fill:#1f77b4;stroke:#1f77b4;stroke-linejoin:bevel;" x="309.220573" xlink:href="#mf993f29e72" y="122.599219"/>
     <use style="fill:#1f77b4;stroke:#1f77b4;stroke-linejoin:bevel;" x="322.233041" xlink:href="#mf993f29e72" y="122.599219"/>
     <use style="fill:#1f77b4;stroke:#1f77b4;stroke-linejoin:bevel;" x="335.24551" xlink:href="#mf993f29e72" y="122.599219"/>
     <use style="fill:#1f77b4;stroke:#1f77b4;stroke-linejoin:bevel;" x="348.257978" xlink:href="#mf993f29e72" y="122.599219"/>
     <use style="fill:#1f77b4;stroke:#1f77b4;stroke-linejoin:bevel;" x="361.270447" xlink:href="#mf993f29e72" y="122.599219"/>
     <use style="fill:#1f77b4;stroke:#1f77b4;stroke-linejoin:bevel;" x="374.282915" xlink:href="#mf993f29e72" y="122.599219"/>
     <use style="fill:#1f77b4;stroke:#1f77b4;stroke-linejoin:bevel;" x="387.295383" xlink:href="#mf993f29e72" y="122.599219"/>
     <use style="fill:#1f77b4;stroke:#1f77b4;stroke-linejoin:bevel;" x="400.307852" xlink:href="#mf993f29e72" y="122.599219"/>
     <use style="fill:#1f77b4;stroke:#1f77b4;stroke-linejoin:bevel;" x="413.32032" xlink:href="#mf993f29e72" y="122.599219"/>
     <use style="fill:#1f77b4;stroke:#1f77b4;stroke-linejoin:bevel;" x="426.332789" xlink:href="#mf993f29e72" y="122.599219"/>
    </g>
   </g>
   <g id="line2d_29">
    <path clip-path="url(#p64c8f0e3e6)" d="M 48.971204 133.319966 
L 61.983673 132.232103 
L 74.996141 132.831742 
L 88.00861 132.425845 
L 101.021078 132.710697 
L 114.033546 131.993012 
L 127.046015 132.594591 
L 140.058483 133.064509 
L 153.070952 133.317639 
L 166.08342 133.405076 
L 179.095889 132.440156 
L 192.108357 132.237317 
L 205.120825 131.84109 
L 218.133294 132.009916 
L 231.145762 133.353875 
L 244.158231 133.132368 
L 257.170699 133.576148 
L 270.183168 134.170685 
L 283.195636 132.515468 
L 296.208104 134.814935 
L 309.220573 133.547848 
L 322.233041 132.676423 
L 335.24551 131.716465 
L 348.257978 133.615318 
L 361.270447 131.745746 
L 374.282915 131.161698 
L 387.295383 132.012213 
L 400.307852 132.303897 
L 413.32032 132.822558 
L 426.332789 131.950291 
" style="fill:none;stroke:#ff7f0e;stroke-linecap:square;stroke-width:1.5;"/>
   </g>
   <g id="line2d_30">
    <path clip-path="url(#p64c8f0e3e6)" d="M 48.971204 133.319966 
L 61.983673 137.134514 
L 74.996141 132.831742 
L 88.00861 138.025101 
L 101.021078 132.710697 
L 114.033546 137.327686 
L 127.046015 132.594591 
L 140.058483 138.342289 
L 153.070952 133.317639 
L 166.08342 139.095731 
L 179.095889 132.440156 
L 192.108357 138.182733 
L 205.120825 131.84109 
L 218.133294 137.326236 
L 231.145762 133.353875 
L 244.158231 138.524406 
L 257.170699 133.576148 
L 270.183168 140.037273 
L 283.195636 132.515468 
L 296.208104 140.885739 
L 309.220573 133.547848 
L 322.233041 137.753808 
L 335.24551 131.716465 
L 348.257978 138.856322 
L 361.270447 131.745746 
L 374.282915 135.074158 
L 387.295383 132.012213 
L 400.307852 136.541314 
L 413.32032 132.822558 
L 426.332789 136.904633 
" style="fill:none;stroke:#2ca02c;stroke-linecap:square;stroke-width:1.5;"/>
   </g>
   <g id="line2d_31">
    <path clip-path="url(#p64c8f0e3e6)" d="M 48.971204 133.319966 
L 61.983673 137.134514 
L 74.996141 137.932738 
L 88.00861 132.425845 
L 101.021078 137.8443 
L 114.033546 137.327686 
L 127.046015 132.594591 
L 140.058483 138.342289 
L 153.070952 139.169392 
L 166.08342 133.405076 
L 179.095889 137.110186 
L 192.108357 138.182733 
L 205.120825 131.84109 
L 218.133294 137.326236 
L 231.145762 139.688744 
L 244.158231 133.132368 
L 257.170699 139.848233 
L 270.183168 140.037273 
L 283.195636 132.515468 
L 296.208104 140.885739 
L 309.220573 138.73762 
L 322.233041 132.676423 
L 335.24551 137.027702 
L 348.257978 138.856322 
L 361.270447 131.745746 
L 374.282915 135.074158 
L 387.295383 136.24952 
L 400.307852 132.303897 
L 413.32032 138.214677 
L 426.332789 136.904633 
" style="fill:none;stroke:#d62728;stroke-linecap:square;stroke-width:1.5;"/>
   </g>
   <g id="line2d_32">
    <path clip-path="url(#p64c8f0e3e6)" d="M 48.971204 133.319966 
L 61.983673 137.134514 
L 74.996141 137.932738 
L 88.00861 138.025101 
L 101.021078 137.8443 
L 114.033546 131.993012 
L 127.046015 137.416452 
L 140.058483 138.342289 
L 153.070952 139.169392 
L 166.08342 139.095731 
L 179.095889 132.440156 
L 192.108357 138.182733 
L 205.120825 137.496447 
L 218.133294 137.326236 
L 231.145762 139.688744 
L 244.158231 133.132368 
L 257.170699 139.848233 
L 270.183168 140.037273 
L 283.195636 137.973586 
L 296.208104 140.885739 
L 309.220573 133.547848 
L 322.233041 137.753808 
L 335.24551 137.027702 
L 348.257978 138.856322 
L 361.270447 136.203348 
L 374.282915 131.161698 
L 387.295383 136.24952 
L 400.307852 136.541314 
L 413.32032 138.214677 
L 426.332789 136.904633 
" style="fill:none;stroke:#9467bd;stroke-linecap:square;stroke-width:1.5;"/>
   </g>
   <g id="line2d_33">
    <path clip-path="url(#p64c8f0e3e6)" d="M 48.971204 133.319966 
L 61.983673 137.134514 
L 74.996141 137.932738 
L 88.00861 138.025101 
L 101.021078 137.8443 
L 114.033546 137.327686 
L 127.046015 137.416452 
L 140.058483 138.342289 
L 153.070952 139.169392 
L 166.08342 139.095731 
L 179.095889 132.440156 
L 192.108357 138.182733 
L 205.120825 137.496447 
L 218.133294 137.326236 
L 231.145762 139.688744 
L 244.158231 138.524406 
L 257.170699 139.848233 
L 270.183168 140.037273 
L 283.195636 137.973586 
L 296.208104 140.885739 
L 309.220573 133.547848 
L 322.233041 137.753808 
L 335.24551 137.027702 
L 348.257978 138.856322 
L 361.270447 136.203348 
L 374.282915 135.074158 
L 387.295383 136.24952 
L 400.307852 136.541314 
L 413.32032 138.214677 
L 426.332789 136.904633 
" style="fill:none;stroke:#8c564b;stroke-linecap:square;stroke-width:1.5;"/>
   </g>
   <g id="line2d_34">
    <path clip-path="url(#p64c8f0e3e6)" d="M 48.971204 138.536384 
L 61.983673 137.134514 
L 74.996141 137.932738 
L 88.00861 138.025101 
L 101.021078 137.8443 
L 114.033546 137.327686 
L 127.046015 137.416452 
L 140.058483 138.342289 
L 153.070952 139.169392 
L 166.08342 139.095731 
L 179.095889 137.110186 
L 192.108357 138.182733 
L 205.120825 137.496447 
L 218.133294 137.326236 
L 231.145762 139.688744 
L 244.158231 138.524406 
L 257.170699 139.848233 
L 270.183168 140.037273 
L 283.195636 137.973586 
L 296.208104 140.885739 
L 309.220573 138.73762 
L 322.233041 137.753808 
L 335.24551 137.027702 
L 348.257978 138.856322 
L 361.270447 136.203348 
L 374.282915 135.074158 
L 387.295383 136.24952 
L 400.307852 136.541314 
L 413.32032 138.214677 
L 426.332789 136.904633 
" style="fill:none;stroke:#e377c2;stroke-linecap:square;stroke-width:1.5;"/>
    <g clip-path="url(#p64c8f0e3e6)">
     <use style="fill:#e377c2;stroke:#e377c2;" x="48.971204" xlink:href="#ma1bf24ad54" y="138.536384"/>
     <use style="fill:#e377c2;stroke:#e377c2;" x="61.983673" xlink:href="#ma1bf24ad54" y="137.134514"/>
     <use style="fill:#e377c2;stroke:#e377c2;" x="74.996141" xlink:href="#ma1bf24ad54" y="137.932738"/>
     <use style="fill:#e377c2;stroke:#e377c2;" x="88.00861" xlink:href="#ma1bf24ad54" y="138.025101"/>
     <use style="fill:#e377c2;stroke:#e377c2;" x="101.021078" xlink:href="#ma1bf24ad54" y="137.8443"/>
     <use style="fill:#e377c2;stroke:#e377c2;" x="114.033546" xlink:href="#ma1bf24ad54" y="137.327686"/>
     <use style="fill:#e377c2;stroke:#e377c2;" x="127.046015" xlink:href="#ma1bf24ad54" y="137.416452"/>
     <use style="fill:#e377c2;stroke:#e377c2;" x="140.058483" xlink:href="#ma1bf24ad54" y="138.342289"/>
     <use style="fill:#e377c2;stroke:#e377c2;" x="153.070952" xlink:href="#ma1bf24ad54" y="139.169392"/>
     <use style="fill:#e377c2;stroke:#e377c2;" x="166.08342" xlink:href="#ma1bf24ad54" y="139.095731"/>
     <use style="fill:#e377c2;stroke:#e377c2;" x="179.095889" xlink:href="#ma1bf24ad54" y="137.110186"/>
     <use style="fill:#e377c2;stroke:#e377c2;" x="192.108357" xlink:href="#ma1bf24ad54" y="138.182733"/>
     <use style="fill:#e377c2;stroke:#e377c2;" x="205.120825" xlink:href="#ma1bf24ad54" y="137.496447"/>
     <use style="fill:#e377c2;stroke:#e377c2;" x="218.133294" xlink:href="#ma1bf24ad54" y="137.326236"/>
     <use style="fill:#e377c2;stroke:#e377c2;" x="231.145762" xlink:href="#ma1bf24ad54" y="139.688744"/>
     <use style="fill:#e377c2;stroke:#e377c2;" x="244.158231" xlink:href="#ma1bf24ad54" y="138.524406"/>
     <use style="fill:#e377c2;stroke:#e377c2;" x="257.170699" xlink:href="#ma1bf24ad54" y="139.848233"/>
     <use style="fill:#e377c2;stroke:#e377c2;" x="270.183168" xlink:href="#ma1bf24ad54" y="140.037273"/>
     <use style="fill:#e377c2;stroke:#e377c2;" x="283.195636" xlink:href="#ma1bf24ad54" y="137.973586"/>
     <use style="fill:#e377c2;stroke:#e377c2;" x="296.208104" xlink:href="#ma1bf24ad54" y="140.885739"/>
     <use style="fill:#e377c2;stroke:#e377c2;" x="309.220573" xlink:href="#ma1bf24ad54" y="138.73762"/>
     <use style="fill:#e377c2;stroke:#e377c2;" x="322.233041" xlink:href="#ma1bf24ad54" y="137.753808"/>
     <use style="fill:#e377c2;stroke:#e377c2;" x="335.24551" xlink:href="#ma1bf24ad54" y="137.027702"/>
     <use style="fill:#e377c2;stroke:#e377c2;" x="348.257978" xlink:href="#ma1bf24ad54" y="138.856322"/>
     <use style="fill:#e377c2;stroke:#e377c2;" x="361.270447" xlink:href="#ma1bf24ad54" y="136.203348"/>
     <use style="fill:#e377c2;stroke:#e377c2;" x="374.282915" xlink:href="#ma1bf24ad54" y="135.074158"/>
     <use style="fill:#e377c2;stroke:#e377c2;" x="387.295383" xlink:href="#ma1bf24ad54" y="136.24952"/>
     <use style="fill:#e377c2;stroke:#e377c2;" x="400.307852" xlink:href="#ma1bf24ad54" y="136.541314"/>
     <use style="fill:#e377c2;stroke:#e377c2;" x="413.32032" xlink:href="#ma1bf24ad54" y="138.214677"/>
     <use style="fill:#e377c2;stroke:#e377c2;" x="426.332789" xlink:href="#ma1bf24ad54" y="136.904633"/>
    </g>
   </g>
   <g id="patch_8">
    <path d="M 30.103125 188.495955 
L 30.103125 121.281284 
" style="fill:none;stroke:#000000;stroke-linecap:square;stroke-linejoin:miter;stroke-width:0.8;"/>
   </g>
   <g id="patch_9">
    <path d="M 445.200868 188.495955 
L 445.200868 121.281284 
" style="fill:none;stroke:#000000;stroke-linecap:square;stroke-linejoin:miter;stroke-width:0.8;"/>
   </g>
   <g id="patch_10">
    <path d="M 30.103125 188.495955 
L 445.200868 188.495955 
" style="fill:none;stroke:#000000;stroke-linecap:square;stroke-linejoin:miter;stroke-width:0.8;"/>
   </g>
   <g id="patch_11">
    <path d="M 30.103125 121.281284 
L 445.200868 121.281284 
" style="fill:none;stroke:#000000;stroke-linecap:square;stroke-linejoin:miter;stroke-width:0.8;"/>
   </g>
  </g>
  <g id="axes_3">
   <g id="patch_12">
    <path d="M 30.103125 300.095955 
L 445.200868 300.095955 
L 445.200868 232.881284 
L 30.103125 232.881284 
z
" style="fill:#ffffff;"/>
   </g>
   <g id="matplotlib.axis_5">
    <g id="xtick_15">
     <g id="line2d_35">
      <g>
       <use style="stroke:#000000;stroke-width:0.8;" x="48.971204" xlink:href="#mfd3e1dc19d" y="300.095955"/>
      </g>
     </g>
     <g id="text_23">
      <!-- 0 -->
      <g transform="translate(45.789954 314.694393)scale(0.1 -0.1)">
       <use xlink:href="#DejaVuSans-48"/>
      </g>
     </g>
    </g>
    <g id="xtick_16">
     <g id="line2d_36">
      <g>
       <use style="stroke:#000000;stroke-width:0.8;" x="114.033546" xlink:href="#mfd3e1dc19d" y="300.095955"/>
      </g>
     </g>
     <g id="text_24">
      <!-- 5 -->
      <g transform="translate(110.852296 314.694393)scale(0.1 -0.1)">
       <use xlink:href="#DejaVuSans-53"/>
      </g>
     </g>
    </g>
    <g id="xtick_17">
     <g id="line2d_37">
      <g>
       <use style="stroke:#000000;stroke-width:0.8;" x="179.095889" xlink:href="#mfd3e1dc19d" y="300.095955"/>
      </g>
     </g>
     <g id="text_25">
      <!-- 10 -->
      <g transform="translate(172.733389 314.694393)scale(0.1 -0.1)">
       <use xlink:href="#DejaVuSans-49"/>
       <use x="63.623047" xlink:href="#DejaVuSans-48"/>
      </g>
     </g>
    </g>
    <g id="xtick_18">
     <g id="line2d_38">
      <g>
       <use style="stroke:#000000;stroke-width:0.8;" x="244.158231" xlink:href="#mfd3e1dc19d" y="300.095955"/>
      </g>
     </g>
     <g id="text_26">
      <!-- 15 -->
      <g transform="translate(237.795731 314.694393)scale(0.1 -0.1)">
       <use xlink:href="#DejaVuSans-49"/>
       <use x="63.623047" xlink:href="#DejaVuSans-53"/>
      </g>
     </g>
    </g>
    <g id="xtick_19">
     <g id="line2d_39">
      <g>
       <use style="stroke:#000000;stroke-width:0.8;" x="309.220573" xlink:href="#mfd3e1dc19d" y="300.095955"/>
      </g>
     </g>
     <g id="text_27">
      <!-- 20 -->
      <g transform="translate(302.858073 314.694393)scale(0.1 -0.1)">
       <use xlink:href="#DejaVuSans-50"/>
       <use x="63.623047" xlink:href="#DejaVuSans-48"/>
      </g>
     </g>
    </g>
    <g id="xtick_20">
     <g id="line2d_40">
      <g>
       <use style="stroke:#000000;stroke-width:0.8;" x="374.282915" xlink:href="#mfd3e1dc19d" y="300.095955"/>
      </g>
     </g>
     <g id="text_28">
      <!-- 25 -->
      <g transform="translate(367.920415 314.694393)scale(0.1 -0.1)">
       <use xlink:href="#DejaVuSans-50"/>
       <use x="63.623047" xlink:href="#DejaVuSans-53"/>
      </g>
     </g>
    </g>
    <g id="xtick_21">
     <g id="line2d_41">
      <g>
       <use style="stroke:#000000;stroke-width:0.8;" x="439.345257" xlink:href="#mfd3e1dc19d" y="300.095955"/>
      </g>
     </g>
     <g id="text_29">
      <!-- 30 -->
      <g transform="translate(432.982757 314.694393)scale(0.1 -0.1)">
       <use xlink:href="#DejaVuSans-51"/>
       <use x="63.623047" xlink:href="#DejaVuSans-48"/>
      </g>
     </g>
    </g>
    <g id="text_30">
     <!-- F1Score -->
     <defs>
      <path d="M 9.8125 72.90625 
L 51.703125 72.90625 
L 51.703125 64.59375 
L 19.671875 64.59375 
L 19.671875 43.109375 
L 48.578125 43.109375 
L 48.578125 34.8125 
L 19.671875 34.8125 
L 19.671875 0 
L 9.8125 0 
z
" id="DejaVuSans-70"/>
      <path d="M 53.515625 70.515625 
L 53.515625 60.890625 
Q 47.90625 63.578125 42.921875 64.890625 
Q 37.9375 66.21875 33.296875 66.21875 
Q 25.25 66.21875 20.875 63.09375 
Q 16.5 59.96875 16.5 54.203125 
Q 16.5 49.359375 19.40625 46.890625 
Q 22.3125 44.4375 30.421875 42.921875 
L 36.375 41.703125 
Q 47.40625 39.59375 52.65625 34.296875 
Q 57.90625 29 57.90625 20.125 
Q 57.90625 9.515625 50.796875 4.046875 
Q 43.703125 -1.421875 29.984375 -1.421875 
Q 24.8125 -1.421875 18.96875 -0.25 
Q 13.140625 0.921875 6.890625 3.21875 
L 6.890625 13.375 
Q 12.890625 10.015625 18.65625 8.296875 
Q 24.421875 6.59375 29.984375 6.59375 
Q 38.421875 6.59375 43.015625 9.90625 
Q 47.609375 13.234375 47.609375 19.390625 
Q 47.609375 24.75 44.3125 27.78125 
Q 41.015625 30.8125 33.5 32.328125 
L 27.484375 33.5 
Q 16.453125 35.6875 11.515625 40.375 
Q 6.59375 45.0625 6.59375 53.421875 
Q 6.59375 63.09375 13.40625 68.65625 
Q 20.21875 74.21875 32.171875 74.21875 
Q 37.3125 74.21875 42.625 73.28125 
Q 47.953125 72.359375 53.515625 70.515625 
z
" id="DejaVuSans-83"/>
     </defs>
     <g transform="translate(217.481684 328.372518)scale(0.1 -0.1)">
      <use xlink:href="#DejaVuSans-70"/>
      <use x="57.519531" xlink:href="#DejaVuSans-49"/>
      <use x="121.142578" xlink:href="#DejaVuSans-83"/>
      <use x="184.619141" xlink:href="#DejaVuSans-99"/>
      <use x="239.599609" xlink:href="#DejaVuSans-111"/>
      <use x="300.78125" xlink:href="#DejaVuSans-114"/>
      <use x="341.863281" xlink:href="#DejaVuSans-101"/>
     </g>
    </g>
   </g>
   <g id="matplotlib.axis_6">
    <g id="ytick_7">
     <g id="line2d_42">
      <g>
       <use style="stroke:#000000;stroke-width:0.8;" x="30.103125" xlink:href="#me3b21d97d1" y="300.095955"/>
      </g>
     </g>
     <g id="text_31">
      <!-- 0.0 -->
      <g transform="translate(7.2 303.895174)scale(0.1 -0.1)">
       <use xlink:href="#DejaVuSans-48"/>
       <use x="63.623047" xlink:href="#DejaVuSans-46"/>
       <use x="95.410156" xlink:href="#DejaVuSans-48"/>
      </g>
     </g>
    </g>
    <g id="ytick_8">
     <g id="line2d_43">
      <g>
       <use style="stroke:#000000;stroke-width:0.8;" x="30.103125" xlink:href="#me3b21d97d1" y="267.147587"/>
      </g>
     </g>
     <g id="text_32">
      <!-- 0.5 -->
      <g transform="translate(7.2 270.946806)scale(0.1 -0.1)">
       <use xlink:href="#DejaVuSans-48"/>
       <use x="63.623047" xlink:href="#DejaVuSans-46"/>
       <use x="95.410156" xlink:href="#DejaVuSans-53"/>
      </g>
     </g>
    </g>
    <g id="ytick_9">
     <g id="line2d_44">
      <g>
       <use style="stroke:#000000;stroke-width:0.8;" x="30.103125" xlink:href="#me3b21d97d1" y="234.199219"/>
      </g>
     </g>
     <g id="text_33">
      <!-- 1.0 -->
      <g transform="translate(7.2 237.998437)scale(0.1 -0.1)">
       <use xlink:href="#DejaVuSans-49"/>
       <use x="63.623047" xlink:href="#DejaVuSans-46"/>
       <use x="95.410156" xlink:href="#DejaVuSans-48"/>
      </g>
     </g>
    </g>
   </g>
   <g id="line2d_45">
    <path clip-path="url(#pbb883b3656)" d="M 48.971204 234.199219 
L 61.983673 234.199219 
L 74.996141 234.199219 
L 88.00861 234.199219 
L 101.021078 234.199219 
L 114.033546 234.199219 
L 127.046015 234.199219 
L 140.058483 234.199219 
L 153.070952 234.199219 
L 166.08342 234.199219 
L 179.095889 234.199219 
L 192.108357 234.199219 
L 205.120825 234.199219 
L 218.133294 234.199219 
L 231.145762 234.199219 
L 244.158231 234.199219 
L 257.170699 234.199219 
L 270.183168 234.199219 
L 283.195636 234.199219 
L 296.208104 234.199219 
L 309.220573 234.199219 
L 322.233041 234.199219 
L 335.24551 234.199219 
L 348.257978 234.199219 
L 361.270447 234.199219 
L 374.282915 234.199219 
L 387.295383 234.199219 
L 400.307852 234.199219 
L 413.32032 234.199219 
L 426.332789 234.199219 
" style="fill:none;stroke:#1f77b4;stroke-linecap:square;stroke-width:1.5;"/>
    <g clip-path="url(#pbb883b3656)">
     <use style="fill:#1f77b4;stroke:#1f77b4;stroke-linejoin:bevel;" x="48.971204" xlink:href="#mf993f29e72" y="234.199219"/>
     <use style="fill:#1f77b4;stroke:#1f77b4;stroke-linejoin:bevel;" x="61.983673" xlink:href="#mf993f29e72" y="234.199219"/>
     <use style="fill:#1f77b4;stroke:#1f77b4;stroke-linejoin:bevel;" x="74.996141" xlink:href="#mf993f29e72" y="234.199219"/>
     <use style="fill:#1f77b4;stroke:#1f77b4;stroke-linejoin:bevel;" x="88.00861" xlink:href="#mf993f29e72" y="234.199219"/>
     <use style="fill:#1f77b4;stroke:#1f77b4;stroke-linejoin:bevel;" x="101.021078" xlink:href="#mf993f29e72" y="234.199219"/>
     <use style="fill:#1f77b4;stroke:#1f77b4;stroke-linejoin:bevel;" x="114.033546" xlink:href="#mf993f29e72" y="234.199219"/>
     <use style="fill:#1f77b4;stroke:#1f77b4;stroke-linejoin:bevel;" x="127.046015" xlink:href="#mf993f29e72" y="234.199219"/>
     <use style="fill:#1f77b4;stroke:#1f77b4;stroke-linejoin:bevel;" x="140.058483" xlink:href="#mf993f29e72" y="234.199219"/>
     <use style="fill:#1f77b4;stroke:#1f77b4;stroke-linejoin:bevel;" x="153.070952" xlink:href="#mf993f29e72" y="234.199219"/>
     <use style="fill:#1f77b4;stroke:#1f77b4;stroke-linejoin:bevel;" x="166.08342" xlink:href="#mf993f29e72" y="234.199219"/>
     <use style="fill:#1f77b4;stroke:#1f77b4;stroke-linejoin:bevel;" x="179.095889" xlink:href="#mf993f29e72" y="234.199219"/>
     <use style="fill:#1f77b4;stroke:#1f77b4;stroke-linejoin:bevel;" x="192.108357" xlink:href="#mf993f29e72" y="234.199219"/>
     <use style="fill:#1f77b4;stroke:#1f77b4;stroke-linejoin:bevel;" x="205.120825" xlink:href="#mf993f29e72" y="234.199219"/>
     <use style="fill:#1f77b4;stroke:#1f77b4;stroke-linejoin:bevel;" x="218.133294" xlink:href="#mf993f29e72" y="234.199219"/>
     <use style="fill:#1f77b4;stroke:#1f77b4;stroke-linejoin:bevel;" x="231.145762" xlink:href="#mf993f29e72" y="234.199219"/>
     <use style="fill:#1f77b4;stroke:#1f77b4;stroke-linejoin:bevel;" x="244.158231" xlink:href="#mf993f29e72" y="234.199219"/>
     <use style="fill:#1f77b4;stroke:#1f77b4;stroke-linejoin:bevel;" x="257.170699" xlink:href="#mf993f29e72" y="234.199219"/>
     <use style="fill:#1f77b4;stroke:#1f77b4;stroke-linejoin:bevel;" x="270.183168" xlink:href="#mf993f29e72" y="234.199219"/>
     <use style="fill:#1f77b4;stroke:#1f77b4;stroke-linejoin:bevel;" x="283.195636" xlink:href="#mf993f29e72" y="234.199219"/>
     <use style="fill:#1f77b4;stroke:#1f77b4;stroke-linejoin:bevel;" x="296.208104" xlink:href="#mf993f29e72" y="234.199219"/>
     <use style="fill:#1f77b4;stroke:#1f77b4;stroke-linejoin:bevel;" x="309.220573" xlink:href="#mf993f29e72" y="234.199219"/>
     <use style="fill:#1f77b4;stroke:#1f77b4;stroke-linejoin:bevel;" x="322.233041" xlink:href="#mf993f29e72" y="234.199219"/>
     <use style="fill:#1f77b4;stroke:#1f77b4;stroke-linejoin:bevel;" x="335.24551" xlink:href="#mf993f29e72" y="234.199219"/>
     <use style="fill:#1f77b4;stroke:#1f77b4;stroke-linejoin:bevel;" x="348.257978" xlink:href="#mf993f29e72" y="234.199219"/>
     <use style="fill:#1f77b4;stroke:#1f77b4;stroke-linejoin:bevel;" x="361.270447" xlink:href="#mf993f29e72" y="234.199219"/>
     <use style="fill:#1f77b4;stroke:#1f77b4;stroke-linejoin:bevel;" x="374.282915" xlink:href="#mf993f29e72" y="234.199219"/>
     <use style="fill:#1f77b4;stroke:#1f77b4;stroke-linejoin:bevel;" x="387.295383" xlink:href="#mf993f29e72" y="234.199219"/>
     <use style="fill:#1f77b4;stroke:#1f77b4;stroke-linejoin:bevel;" x="400.307852" xlink:href="#mf993f29e72" y="234.199219"/>
     <use style="fill:#1f77b4;stroke:#1f77b4;stroke-linejoin:bevel;" x="413.32032" xlink:href="#mf993f29e72" y="234.199219"/>
     <use style="fill:#1f77b4;stroke:#1f77b4;stroke-linejoin:bevel;" x="426.332789" xlink:href="#mf993f29e72" y="234.199219"/>
    </g>
   </g>
   <g id="line2d_46">
    <path clip-path="url(#pbb883b3656)" d="M 48.971204 240.383898 
L 61.983673 239.626997 
L 74.996141 240.028809 
L 88.00861 239.800912 
L 101.021078 239.942507 
L 114.033546 239.553982 
L 127.046015 239.950915 
L 140.058483 240.157894 
L 153.070952 240.301761 
L 166.08342 240.384263 
L 179.095889 239.78303 
L 192.108357 239.650706 
L 205.120825 239.53645 
L 218.133294 239.556215 
L 231.145762 240.305644 
L 244.158231 240.231824 
L 257.170699 240.487542 
L 270.183168 240.876421 
L 283.195636 239.918593 
L 296.208104 241.311185 
L 309.220573 240.507839 
L 322.233041 239.909566 
L 335.24551 239.254119 
L 348.257978 240.996211 
L 361.270447 239.368082 
L 374.282915 238.989974 
L 387.295383 239.460751 
L 400.307852 239.718522 
L 413.32032 239.987902 
L 426.332789 239.441155 
" style="fill:none;stroke:#ff7f0e;stroke-linecap:square;stroke-width:1.5;"/>
   </g>
   <g id="line2d_47">
    <path clip-path="url(#pbb883b3656)" d="M 48.971204 240.383898 
L 61.983673 253.488243 
L 74.996141 240.028809 
L 88.00861 257.464747 
L 101.021078 239.942507 
L 114.033546 257.889002 
L 127.046015 239.950915 
L 140.058483 258.044769 
L 153.070952 240.301761 
L 166.08342 255.896492 
L 179.095889 239.78303 
L 192.108357 257.426219 
L 205.120825 239.53645 
L 218.133294 256.608624 
L 231.145762 240.305644 
L 244.158231 256.033576 
L 257.170699 240.487542 
L 270.183168 257.102354 
L 283.195636 239.918593 
L 296.208104 258.067927 
L 309.220573 240.507839 
L 322.233041 256.732133 
L 335.24551 239.254119 
L 348.257978 255.623703 
L 361.270447 239.368082 
L 374.282915 251.874485 
L 387.295383 239.460751 
L 400.307852 252.604438 
L 413.32032 239.987902 
L 426.332789 253.742385 
" style="fill:none;stroke:#2ca02c;stroke-linecap:square;stroke-width:1.5;"/>
   </g>
   <g id="line2d_48">
    <path clip-path="url(#pbb883b3656)" d="M 48.971204 240.383898 
L 61.983673 253.488243 
L 74.996141 256.036114 
L 88.00861 239.800912 
L 101.021078 257.569584 
L 114.033546 257.889002 
L 127.046015 239.950915 
L 140.058483 258.044769 
L 153.070952 258.045365 
L 166.08342 240.384263 
L 179.095889 256.676596 
L 192.108357 257.426219 
L 205.120825 239.53645 
L 218.133294 256.608624 
L 231.145762 257.949294 
L 244.158231 240.231824 
L 257.170699 258.450237 
L 270.183168 257.102354 
L 283.195636 239.918593 
L 296.208104 258.067927 
L 309.220573 256.378539 
L 322.233041 239.909566 
L 335.24551 253.93913 
L 348.257978 255.623703 
L 361.270447 239.368082 
L 374.282915 251.874485 
L 387.295383 254.220737 
L 400.307852 239.718522 
L 413.32032 254.686699 
L 426.332789 253.742385 
" style="fill:none;stroke:#d62728;stroke-linecap:square;stroke-width:1.5;"/>
   </g>
   <g id="line2d_49">
    <path clip-path="url(#pbb883b3656)" d="M 48.971204 240.383898 
L 61.983673 253.488243 
L 74.996141 256.036114 
L 88.00861 257.464747 
L 101.021078 257.569584 
L 114.033546 239.553982 
L 127.046015 256.944335 
L 140.058483 258.044769 
L 153.070952 258.045365 
L 166.08342 255.896492 
L 179.095889 239.78303 
L 192.108357 257.426219 
L 205.120825 258.401031 
L 218.133294 256.608624 
L 231.145762 257.949294 
L 244.158231 240.231824 
L 257.170699 258.450237 
L 270.183168 257.102354 
L 283.195636 257.095551 
L 296.208104 258.067927 
L 309.220573 240.507839 
L 322.233041 256.732133 
L 335.24551 253.93913 
L 348.257978 255.623703 
L 361.270447 253.008199 
L 374.282915 238.989974 
L 387.295383 254.220737 
L 400.307852 252.604438 
L 413.32032 254.686699 
L 426.332789 253.742385 
" style="fill:none;stroke:#9467bd;stroke-linecap:square;stroke-width:1.5;"/>
   </g>
   <g id="line2d_50">
    <path clip-path="url(#pbb883b3656)" d="M 48.971204 240.383898 
L 61.983673 253.488243 
L 74.996141 256.036114 
L 88.00861 257.464747 
L 101.021078 257.569584 
L 114.033546 257.889002 
L 127.046015 256.944335 
L 140.058483 258.044769 
L 153.070952 258.045365 
L 166.08342 255.896492 
L 179.095889 239.78303 
L 192.108357 257.426219 
L 205.120825 258.401031 
L 218.133294 256.608624 
L 231.145762 257.949294 
L 244.158231 256.033576 
L 257.170699 258.450237 
L 270.183168 257.102354 
L 283.195636 257.095551 
L 296.208104 258.067927 
L 309.220573 240.507839 
L 322.233041 256.732133 
L 335.24551 253.93913 
L 348.257978 255.623703 
L 361.270447 253.008199 
L 374.282915 251.874485 
L 387.295383 254.220737 
L 400.307852 252.604438 
L 413.32032 254.686699 
L 426.332789 253.742385 
" style="fill:none;stroke:#8c564b;stroke-linecap:square;stroke-width:1.5;"/>
   </g>
   <g id="line2d_51">
    <path clip-path="url(#pbb883b3656)" d="M 48.971204 255.467248 
L 61.983673 253.488243 
L 74.996141 256.036114 
L 88.00861 257.464747 
L 101.021078 257.569584 
L 114.033546 257.889002 
L 127.046015 256.944335 
L 140.058483 258.044769 
L 153.070952 258.045365 
L 166.08342 255.896492 
L 179.095889 256.676596 
L 192.108357 257.426219 
L 205.120825 258.401031 
L 218.133294 256.608624 
L 231.145762 257.949294 
L 244.158231 256.033576 
L 257.170699 258.450237 
L 270.183168 257.102354 
L 283.195636 257.095551 
L 296.208104 258.067927 
L 309.220573 256.378539 
L 322.233041 256.732133 
L 335.24551 253.93913 
L 348.257978 255.623703 
L 361.270447 253.008199 
L 374.282915 251.874485 
L 387.295383 254.220737 
L 400.307852 252.604438 
L 413.32032 254.686699 
L 426.332789 253.742385 
" style="fill:none;stroke:#e377c2;stroke-linecap:square;stroke-width:1.5;"/>
    <g clip-path="url(#pbb883b3656)">
     <use style="fill:#e377c2;stroke:#e377c2;" x="48.971204" xlink:href="#ma1bf24ad54" y="255.467248"/>
     <use style="fill:#e377c2;stroke:#e377c2;" x="61.983673" xlink:href="#ma1bf24ad54" y="253.488243"/>
     <use style="fill:#e377c2;stroke:#e377c2;" x="74.996141" xlink:href="#ma1bf24ad54" y="256.036114"/>
     <use style="fill:#e377c2;stroke:#e377c2;" x="88.00861" xlink:href="#ma1bf24ad54" y="257.464747"/>
     <use style="fill:#e377c2;stroke:#e377c2;" x="101.021078" xlink:href="#ma1bf24ad54" y="257.569584"/>
     <use style="fill:#e377c2;stroke:#e377c2;" x="114.033546" xlink:href="#ma1bf24ad54" y="257.889002"/>
     <use style="fill:#e377c2;stroke:#e377c2;" x="127.046015" xlink:href="#ma1bf24ad54" y="256.944335"/>
     <use style="fill:#e377c2;stroke:#e377c2;" x="140.058483" xlink:href="#ma1bf24ad54" y="258.044769"/>
     <use style="fill:#e377c2;stroke:#e377c2;" x="153.070952" xlink:href="#ma1bf24ad54" y="258.045365"/>
     <use style="fill:#e377c2;stroke:#e377c2;" x="166.08342" xlink:href="#ma1bf24ad54" y="255.896492"/>
     <use style="fill:#e377c2;stroke:#e377c2;" x="179.095889" xlink:href="#ma1bf24ad54" y="256.676596"/>
     <use style="fill:#e377c2;stroke:#e377c2;" x="192.108357" xlink:href="#ma1bf24ad54" y="257.426219"/>
     <use style="fill:#e377c2;stroke:#e377c2;" x="205.120825" xlink:href="#ma1bf24ad54" y="258.401031"/>
     <use style="fill:#e377c2;stroke:#e377c2;" x="218.133294" xlink:href="#ma1bf24ad54" y="256.608624"/>
     <use style="fill:#e377c2;stroke:#e377c2;" x="231.145762" xlink:href="#ma1bf24ad54" y="257.949294"/>
     <use style="fill:#e377c2;stroke:#e377c2;" x="244.158231" xlink:href="#ma1bf24ad54" y="256.033576"/>
     <use style="fill:#e377c2;stroke:#e377c2;" x="257.170699" xlink:href="#ma1bf24ad54" y="258.450237"/>
     <use style="fill:#e377c2;stroke:#e377c2;" x="270.183168" xlink:href="#ma1bf24ad54" y="257.102354"/>
     <use style="fill:#e377c2;stroke:#e377c2;" x="283.195636" xlink:href="#ma1bf24ad54" y="257.095551"/>
     <use style="fill:#e377c2;stroke:#e377c2;" x="296.208104" xlink:href="#ma1bf24ad54" y="258.067927"/>
     <use style="fill:#e377c2;stroke:#e377c2;" x="309.220573" xlink:href="#ma1bf24ad54" y="256.378539"/>
     <use style="fill:#e377c2;stroke:#e377c2;" x="322.233041" xlink:href="#ma1bf24ad54" y="256.732133"/>
     <use style="fill:#e377c2;stroke:#e377c2;" x="335.24551" xlink:href="#ma1bf24ad54" y="253.93913"/>
     <use style="fill:#e377c2;stroke:#e377c2;" x="348.257978" xlink:href="#ma1bf24ad54" y="255.623703"/>
     <use style="fill:#e377c2;stroke:#e377c2;" x="361.270447" xlink:href="#ma1bf24ad54" y="253.008199"/>
     <use style="fill:#e377c2;stroke:#e377c2;" x="374.282915" xlink:href="#ma1bf24ad54" y="251.874485"/>
     <use style="fill:#e377c2;stroke:#e377c2;" x="387.295383" xlink:href="#ma1bf24ad54" y="254.220737"/>
     <use style="fill:#e377c2;stroke:#e377c2;" x="400.307852" xlink:href="#ma1bf24ad54" y="252.604438"/>
     <use style="fill:#e377c2;stroke:#e377c2;" x="413.32032" xlink:href="#ma1bf24ad54" y="254.686699"/>
     <use style="fill:#e377c2;stroke:#e377c2;" x="426.332789" xlink:href="#ma1bf24ad54" y="253.742385"/>
    </g>
   </g>
   <g id="patch_13">
    <path d="M 30.103125 300.095955 
L 30.103125 232.881284 
" style="fill:none;stroke:#000000;stroke-linecap:square;stroke-linejoin:miter;stroke-width:0.8;"/>
   </g>
   <g id="patch_14">
    <path d="M 445.200868 300.095955 
L 445.200868 232.881284 
" style="fill:none;stroke:#000000;stroke-linecap:square;stroke-linejoin:miter;stroke-width:0.8;"/>
   </g>
   <g id="patch_15">
    <path d="M 30.103125 300.095955 
L 445.200868 300.095955 
" style="fill:none;stroke:#000000;stroke-linecap:square;stroke-linejoin:miter;stroke-width:0.8;"/>
   </g>
   <g id="patch_16">
    <path d="M 30.103125 232.881284 
L 445.200868 232.881284 
" style="fill:none;stroke:#000000;stroke-linecap:square;stroke-linejoin:miter;stroke-width:0.8;"/>
   </g>
  </g>
  <g id="legend_1">
   <g id="patch_17">
    <path d="M 467.8 217.725643 
L 573.092188 217.725643 
Q 575.092188 217.725643 575.092188 215.725643 
L 575.092188 113.978768 
Q 575.092188 111.978768 573.092188 111.978768 
L 467.8 111.978768 
Q 465.8 111.978768 465.8 113.978768 
L 465.8 215.725643 
Q 465.8 217.725643 467.8 217.725643 
z
" style="fill:#ffffff;opacity:0.8;stroke:#cccccc;stroke-linejoin:miter;"/>
   </g>
   <g id="line2d_52">
    <path d="M 469.8 120.077205 
L 489.8 120.077205 
" style="fill:none;stroke:#1f77b4;stroke-linecap:square;stroke-width:1.5;"/>
   </g>
   <g id="line2d_53">
    <g>
     <use style="fill:#1f77b4;stroke:#1f77b4;stroke-linejoin:bevel;" x="479.8" xlink:href="#mf993f29e72" y="120.077205"/>
    </g>
   </g>
   <g id="text_34">
    <!-- D30 (baseline) -->
    <defs>
     <path d="M 19.671875 64.796875 
L 19.671875 8.109375 
L 31.59375 8.109375 
Q 46.6875 8.109375 53.6875 14.9375 
Q 60.6875 21.78125 60.6875 36.53125 
Q 60.6875 51.171875 53.6875 57.984375 
Q 46.6875 64.796875 31.59375 64.796875 
z
M 9.8125 72.90625 
L 30.078125 72.90625 
Q 51.265625 72.90625 61.171875 64.09375 
Q 71.09375 55.28125 71.09375 36.53125 
Q 71.09375 17.671875 61.125 8.828125 
Q 51.171875 0 30.078125 0 
L 9.8125 0 
z
" id="DejaVuSans-68"/>
     <path id="DejaVuSans-32"/>
     <path d="M 31 75.875 
Q 24.46875 64.65625 21.28125 53.65625 
Q 18.109375 42.671875 18.109375 31.390625 
Q 18.109375 20.125 21.3125 9.0625 
Q 24.515625 -2 31 -13.1875 
L 23.1875 -13.1875 
Q 15.875 -1.703125 12.234375 9.375 
Q 8.59375 20.453125 8.59375 31.390625 
Q 8.59375 42.28125 12.203125 53.3125 
Q 15.828125 64.359375 23.1875 75.875 
z
" id="DejaVuSans-40"/>
     <path d="M 48.6875 27.296875 
Q 48.6875 37.203125 44.609375 42.84375 
Q 40.53125 48.484375 33.40625 48.484375 
Q 26.265625 48.484375 22.1875 42.84375 
Q 18.109375 37.203125 18.109375 27.296875 
Q 18.109375 17.390625 22.1875 11.75 
Q 26.265625 6.109375 33.40625 6.109375 
Q 40.53125 6.109375 44.609375 11.75 
Q 48.6875 17.390625 48.6875 27.296875 
z
M 18.109375 46.390625 
Q 20.953125 51.265625 25.265625 53.625 
Q 29.59375 56 35.59375 56 
Q 45.5625 56 51.78125 48.09375 
Q 58.015625 40.1875 58.015625 27.296875 
Q 58.015625 14.40625 51.78125 6.484375 
Q 45.5625 -1.421875 35.59375 -1.421875 
Q 29.59375 -1.421875 25.265625 0.953125 
Q 20.953125 3.328125 18.109375 8.203125 
L 18.109375 0 
L 9.078125 0 
L 9.078125 75.984375 
L 18.109375 75.984375 
z
" id="DejaVuSans-98"/>
     <path d="M 8.015625 75.875 
L 15.828125 75.875 
Q 23.140625 64.359375 26.78125 53.3125 
Q 30.421875 42.28125 30.421875 31.390625 
Q 30.421875 20.453125 26.78125 9.375 
Q 23.140625 -1.703125 15.828125 -13.1875 
L 8.015625 -13.1875 
Q 14.5 -2 17.703125 9.0625 
Q 20.90625 20.125 20.90625 31.390625 
Q 20.90625 42.671875 17.703125 53.65625 
Q 14.5 64.65625 8.015625 75.875 
z
" id="DejaVuSans-41"/>
    </defs>
    <g transform="translate(497.8 123.577205)scale(0.1 -0.1)">
     <use xlink:href="#DejaVuSans-68"/>
     <use x="77.001953" xlink:href="#DejaVuSans-51"/>
     <use x="140.625" xlink:href="#DejaVuSans-48"/>
     <use x="204.248047" xlink:href="#DejaVuSans-32"/>
     <use x="236.035156" xlink:href="#DejaVuSans-40"/>
     <use x="275.048828" xlink:href="#DejaVuSans-98"/>
     <use x="338.525391" xlink:href="#DejaVuSans-97"/>
     <use x="399.804688" xlink:href="#DejaVuSans-115"/>
     <use x="451.904297" xlink:href="#DejaVuSans-101"/>
     <use x="513.427734" xlink:href="#DejaVuSans-108"/>
     <use x="541.210938" xlink:href="#DejaVuSans-105"/>
     <use x="568.994141" xlink:href="#DejaVuSans-110"/>
     <use x="632.373047" xlink:href="#DejaVuSans-101"/>
     <use x="693.896484" xlink:href="#DejaVuSans-41"/>
    </g>
   </g>
   <g id="line2d_54">
    <path d="M 469.8 134.75533 
L 489.8 134.75533 
" style="fill:none;stroke:#ff7f0e;stroke-linecap:square;stroke-width:1.5;"/>
   </g>
   <g id="line2d_55"/>
   <g id="text_35">
    <!-- D30-R30 -->
    <defs>
     <path d="M 4.890625 31.390625 
L 31.203125 31.390625 
L 31.203125 23.390625 
L 4.890625 23.390625 
z
" id="DejaVuSans-45"/>
    </defs>
    <g transform="translate(497.8 138.25533)scale(0.1 -0.1)">
     <use xlink:href="#DejaVuSans-68"/>
     <use x="77.001953" xlink:href="#DejaVuSans-51"/>
     <use x="140.625" xlink:href="#DejaVuSans-48"/>
     <use x="204.248047" xlink:href="#DejaVuSans-45"/>
     <use x="240.332031" xlink:href="#DejaVuSans-82"/>
     <use x="309.814453" xlink:href="#DejaVuSans-51"/>
     <use x="373.4375" xlink:href="#DejaVuSans-48"/>
    </g>
   </g>
   <g id="line2d_56">
    <path d="M 469.8 149.433455 
L 489.8 149.433455 
" style="fill:none;stroke:#2ca02c;stroke-linecap:square;stroke-width:1.5;"/>
   </g>
   <g id="line2d_57"/>
   <g id="text_36">
    <!-- D15-R30 -->
    <g transform="translate(497.8 152.933455)scale(0.1 -0.1)">
     <use xlink:href="#DejaVuSans-68"/>
     <use x="77.001953" xlink:href="#DejaVuSans-49"/>
     <use x="140.625" xlink:href="#DejaVuSans-53"/>
     <use x="204.248047" xlink:href="#DejaVuSans-45"/>
     <use x="240.332031" xlink:href="#DejaVuSans-82"/>
     <use x="309.814453" xlink:href="#DejaVuSans-51"/>
     <use x="373.4375" xlink:href="#DejaVuSans-48"/>
    </g>
   </g>
   <g id="line2d_58">
    <path d="M 469.8 164.11158 
L 489.8 164.11158 
" style="fill:none;stroke:#d62728;stroke-linecap:square;stroke-width:1.5;"/>
   </g>
   <g id="line2d_59"/>
   <g id="text_37">
    <!-- D10-R30 -->
    <g transform="translate(497.8 167.61158)scale(0.1 -0.1)">
     <use xlink:href="#DejaVuSans-68"/>
     <use x="77.001953" xlink:href="#DejaVuSans-49"/>
     <use x="140.625" xlink:href="#DejaVuSans-48"/>
     <use x="204.248047" xlink:href="#DejaVuSans-45"/>
     <use x="240.332031" xlink:href="#DejaVuSans-82"/>
     <use x="309.814453" xlink:href="#DejaVuSans-51"/>
     <use x="373.4375" xlink:href="#DejaVuSans-48"/>
    </g>
   </g>
   <g id="line2d_60">
    <path d="M 469.8 178.789705 
L 489.8 178.789705 
" style="fill:none;stroke:#9467bd;stroke-linecap:square;stroke-width:1.5;"/>
   </g>
   <g id="line2d_61"/>
   <g id="text_38">
    <!-- D6-R30 -->
    <defs>
     <path d="M 33.015625 40.375 
Q 26.375 40.375 22.484375 35.828125 
Q 18.609375 31.296875 18.609375 23.390625 
Q 18.609375 15.53125 22.484375 10.953125 
Q 26.375 6.390625 33.015625 6.390625 
Q 39.65625 6.390625 43.53125 10.953125 
Q 47.40625 15.53125 47.40625 23.390625 
Q 47.40625 31.296875 43.53125 35.828125 
Q 39.65625 40.375 33.015625 40.375 
z
M 52.59375 71.296875 
L 52.59375 62.3125 
Q 48.875 64.0625 45.09375 64.984375 
Q 41.3125 65.921875 37.59375 65.921875 
Q 27.828125 65.921875 22.671875 59.328125 
Q 17.53125 52.734375 16.796875 39.40625 
Q 19.671875 43.65625 24.015625 45.921875 
Q 28.375 48.1875 33.59375 48.1875 
Q 44.578125 48.1875 50.953125 41.515625 
Q 57.328125 34.859375 57.328125 23.390625 
Q 57.328125 12.15625 50.6875 5.359375 
Q 44.046875 -1.421875 33.015625 -1.421875 
Q 20.359375 -1.421875 13.671875 8.265625 
Q 6.984375 17.96875 6.984375 36.375 
Q 6.984375 53.65625 15.1875 63.9375 
Q 23.390625 74.21875 37.203125 74.21875 
Q 40.921875 74.21875 44.703125 73.484375 
Q 48.484375 72.75 52.59375 71.296875 
z
" id="DejaVuSans-54"/>
    </defs>
    <g transform="translate(497.8 182.289705)scale(0.1 -0.1)">
     <use xlink:href="#DejaVuSans-68"/>
     <use x="77.001953" xlink:href="#DejaVuSans-54"/>
     <use x="140.625" xlink:href="#DejaVuSans-45"/>
     <use x="176.708984" xlink:href="#DejaVuSans-82"/>
     <use x="246.191406" xlink:href="#DejaVuSans-51"/>
     <use x="309.814453" xlink:href="#DejaVuSans-48"/>
    </g>
   </g>
   <g id="line2d_62">
    <path d="M 469.8 193.46783 
L 489.8 193.46783 
" style="fill:none;stroke:#8c564b;stroke-linecap:square;stroke-width:1.5;"/>
   </g>
   <g id="line2d_63"/>
   <g id="text_39">
    <!-- D3-R30 -->
    <g transform="translate(497.8 196.96783)scale(0.1 -0.1)">
     <use xlink:href="#DejaVuSans-68"/>
     <use x="77.001953" xlink:href="#DejaVuSans-51"/>
     <use x="140.625" xlink:href="#DejaVuSans-45"/>
     <use x="176.708984" xlink:href="#DejaVuSans-82"/>
     <use x="246.191406" xlink:href="#DejaVuSans-51"/>
     <use x="309.814453" xlink:href="#DejaVuSans-48"/>
    </g>
   </g>
   <g id="line2d_64">
    <path d="M 469.8 208.145955 
L 489.8 208.145955 
" style="fill:none;stroke:#e377c2;stroke-linecap:square;stroke-width:1.5;"/>
   </g>
   <g id="line2d_65">
    <g>
     <use style="fill:#e377c2;stroke:#e377c2;" x="479.8" xlink:href="#ma1bf24ad54" y="208.145955"/>
    </g>
   </g>
   <g id="text_40">
    <!-- R30 -->
    <g transform="translate(497.8 211.645955)scale(0.1 -0.1)">
     <use xlink:href="#DejaVuSans-82"/>
     <use x="69.482422" xlink:href="#DejaVuSans-51"/>
     <use x="133.105469" xlink:href="#DejaVuSans-48"/>
    </g>
   </g>
  </g>
 </g>
 <defs>
  <clipPath id="p419b46b97c">
   <rect height="67.214671" width="415.097743" x="30.103125" y="9.681284"/>
  </clipPath>
  <clipPath id="p64c8f0e3e6">
   <rect height="67.214671" width="415.097743" x="30.103125" y="121.281284"/>
  </clipPath>
  <clipPath id="pbb883b3656">
   <rect height="67.214671" width="415.097743" x="30.103125" y="232.881284"/>
  </clipPath>
 </defs>
</svg>
