<?xml version="1.0" encoding="utf-8" standalone="no"?>
<!DOCTYPE svg PUBLIC "-//W3C//DTD SVG 1.1//EN"
  "http://www.w3.org/Graphics/SVG/1.1/DTD/svg11.dtd">
<!-- Created with matplotlib (https://matplotlib.org/) -->
<svg height="337.652205pt" version="1.1" viewBox="0 0 578.755312 337.652205" width="578.755312pt" xmlns="http://www.w3.org/2000/svg" xmlns:xlink="http://www.w3.org/1999/xlink">
 <defs>
  <style type="text/css">
*{stroke-linecap:butt;stroke-linejoin:round;white-space:pre;}
  </style>
 </defs>
 <g id="figure_1">
  <g id="patch_1">
   <path d="M 0 337.652205 
L 578.755312 337.652205 
L 578.755312 0 
L 0 0 
z
" style="fill:#ffffff;"/>
  </g>
  <g id="axes_1">
   <g id="patch_2">
    <path d="M 30.103125 76.895955 
L 445.200868 76.895955 
L 445.200868 9.681284 
L 30.103125 9.681284 
z
" style="fill:#ffffff;"/>
   </g>
   <g id="matplotlib.axis_1">
    <g id="xtick_1">
     <g id="line2d_1">
      <defs>
       <path d="M 0 0 
L 0 3.5 
" id="m275e1442be" style="stroke:#000000;stroke-width:0.8;"/>
      </defs>
      <g>
       <use style="stroke:#000000;stroke-width:0.8;" x="48.971204" xlink:href="#m275e1442be" y="76.895955"/>
      </g>
     </g>
     <g id="text_1">
      <!-- 0 -->
      <defs>
       <path d="M 31.78125 66.40625 
Q 24.171875 66.40625 20.328125 58.90625 
Q 16.5 51.421875 16.5 36.375 
Q 16.5 21.390625 20.328125 13.890625 
Q 24.171875 6.390625 31.78125 6.390625 
Q 39.453125 6.390625 43.28125 13.890625 
Q 47.125 21.390625 47.125 36.375 
Q 47.125 51.421875 43.28125 58.90625 
Q 39.453125 66.40625 31.78125 66.40625 
z
M 31.78125 74.21875 
Q 44.046875 74.21875 50.515625 64.515625 
Q 56.984375 54.828125 56.984375 36.375 
Q 56.984375 17.96875 50.515625 8.265625 
Q 44.046875 -1.421875 31.78125 -1.421875 
Q 19.53125 -1.421875 13.0625 8.265625 
Q 6.59375 17.96875 6.59375 36.375 
Q 6.59375 54.828125 13.0625 64.515625 
Q 19.53125 74.21875 31.78125 74.21875 
z
" id="DejaVuSans-48"/>
      </defs>
      <g transform="translate(45.789954 91.494393)scale(0.1 -0.1)">
       <use xlink:href="#DejaVuSans-48"/>
      </g>
     </g>
    </g>
    <g id="xtick_2">
     <g id="line2d_2">
      <g>
       <use style="stroke:#000000;stroke-width:0.8;" x="114.033546" xlink:href="#m275e1442be" y="76.895955"/>
      </g>
     </g>
     <g id="text_2">
      <!-- 5 -->
      <defs>
       <path d="M 10.796875 72.90625 
L 49.515625 72.90625 
L 49.515625 64.59375 
L 19.828125 64.59375 
L 19.828125 46.734375 
Q 21.96875 47.46875 24.109375 47.828125 
Q 26.265625 48.1875 28.421875 48.1875 
Q 40.625 48.1875 47.75 41.5 
Q 54.890625 34.8125 54.890625 23.390625 
Q 54.890625 11.625 47.5625 5.09375 
Q 40.234375 -1.421875 26.90625 -1.421875 
Q 22.3125 -1.421875 17.546875 -0.640625 
Q 12.796875 0.140625 7.71875 1.703125 
L 7.71875 11.625 
Q 12.109375 9.234375 16.796875 8.0625 
Q 21.484375 6.890625 26.703125 6.890625 
Q 35.15625 6.890625 40.078125 11.328125 
Q 45.015625 15.765625 45.015625 23.390625 
Q 45.015625 31 40.078125 35.4375 
Q 35.15625 39.890625 26.703125 39.890625 
Q 22.75 39.890625 18.8125 39.015625 
Q 14.890625 38.140625 10.796875 36.28125 
z
" id="DejaVuSans-53"/>
      </defs>
      <g transform="translate(110.852296 91.494393)scale(0.1 -0.1)">
       <use xlink:href="#DejaVuSans-53"/>
      </g>
     </g>
    </g>
    <g id="xtick_3">
     <g id="line2d_3">
      <g>
       <use style="stroke:#000000;stroke-width:0.8;" x="179.095889" xlink:href="#m275e1442be" y="76.895955"/>
      </g>
     </g>
     <g id="text_3">
      <!-- 10 -->
      <defs>
       <path d="M 12.40625 8.296875 
L 28.515625 8.296875 
L 28.515625 63.921875 
L 10.984375 60.40625 
L 10.984375 69.390625 
L 28.421875 72.90625 
L 38.28125 72.90625 
L 38.28125 8.296875 
L 54.390625 8.296875 
L 54.390625 0 
L 12.40625 0 
z
" id="DejaVuSans-49"/>
      </defs>
      <g transform="translate(172.733389 91.494393)scale(0.1 -0.1)">
       <use xlink:href="#DejaVuSans-49"/>
       <use x="63.623047" xlink:href="#DejaVuSans-48"/>
      </g>
     </g>
    </g>
    <g id="xtick_4">
     <g id="line2d_4">
      <g>
       <use style="stroke:#000000;stroke-width:0.8;" x="244.158231" xlink:href="#m275e1442be" y="76.895955"/>
      </g>
     </g>
     <g id="text_4">
      <!-- 15 -->
      <g transform="translate(237.795731 91.494393)scale(0.1 -0.1)">
       <use xlink:href="#DejaVuSans-49"/>
       <use x="63.623047" xlink:href="#DejaVuSans-53"/>
      </g>
     </g>
    </g>
    <g id="xtick_5">
     <g id="line2d_5">
      <g>
       <use style="stroke:#000000;stroke-width:0.8;" x="309.220573" xlink:href="#m275e1442be" y="76.895955"/>
      </g>
     </g>
     <g id="text_5">
      <!-- 20 -->
      <defs>
       <path d="M 19.1875 8.296875 
L 53.609375 8.296875 
L 53.609375 0 
L 7.328125 0 
L 7.328125 8.296875 
Q 12.9375 14.109375 22.625 23.890625 
Q 32.328125 33.6875 34.8125 36.53125 
Q 39.546875 41.84375 41.421875 45.53125 
Q 43.3125 49.21875 43.3125 52.78125 
Q 43.3125 58.59375 39.234375 62.25 
Q 35.15625 65.921875 28.609375 65.921875 
Q 23.96875 65.921875 18.8125 64.3125 
Q 13.671875 62.703125 7.8125 59.421875 
L 7.8125 69.390625 
Q 13.765625 71.78125 18.9375 73 
Q 24.125 74.21875 28.421875 74.21875 
Q 39.75 74.21875 46.484375 68.546875 
Q 53.21875 62.890625 53.21875 53.421875 
Q 53.21875 48.921875 51.53125 44.890625 
Q 49.859375 40.875 45.40625 35.40625 
Q 44.1875 33.984375 37.640625 27.21875 
Q 31.109375 20.453125 19.1875 8.296875 
z
" id="DejaVuSans-50"/>
      </defs>
      <g transform="translate(302.858073 91.494393)scale(0.1 -0.1)">
       <use xlink:href="#DejaVuSans-50"/>
       <use x="63.623047" xlink:href="#DejaVuSans-48"/>
      </g>
     </g>
    </g>
    <g id="xtick_6">
     <g id="line2d_6">
      <g>
       <use style="stroke:#000000;stroke-width:0.8;" x="374.282915" xlink:href="#m275e1442be" y="76.895955"/>
      </g>
     </g>
     <g id="text_6">
      <!-- 25 -->
      <g transform="translate(367.920415 91.494393)scale(0.1 -0.1)">
       <use xlink:href="#DejaVuSans-50"/>
       <use x="63.623047" xlink:href="#DejaVuSans-53"/>
      </g>
     </g>
    </g>
    <g id="xtick_7">
     <g id="line2d_7">
      <g>
       <use style="stroke:#000000;stroke-width:0.8;" x="439.345257" xlink:href="#m275e1442be" y="76.895955"/>
      </g>
     </g>
     <g id="text_7">
      <!-- 30 -->
      <defs>
       <path d="M 40.578125 39.3125 
Q 47.65625 37.796875 51.625 33 
Q 55.609375 28.21875 55.609375 21.1875 
Q 55.609375 10.40625 48.1875 4.484375 
Q 40.765625 -1.421875 27.09375 -1.421875 
Q 22.515625 -1.421875 17.65625 -0.515625 
Q 12.796875 0.390625 7.625 2.203125 
L 7.625 11.71875 
Q 11.71875 9.328125 16.59375 8.109375 
Q 21.484375 6.890625 26.8125 6.890625 
Q 36.078125 6.890625 40.9375 10.546875 
Q 45.796875 14.203125 45.796875 21.1875 
Q 45.796875 27.640625 41.28125 31.265625 
Q 36.765625 34.90625 28.71875 34.90625 
L 20.21875 34.90625 
L 20.21875 43.015625 
L 29.109375 43.015625 
Q 36.375 43.015625 40.234375 45.921875 
Q 44.09375 48.828125 44.09375 54.296875 
Q 44.09375 59.90625 40.109375 62.90625 
Q 36.140625 65.921875 28.71875 65.921875 
Q 24.65625 65.921875 20.015625 65.03125 
Q 15.375 64.15625 9.8125 62.3125 
L 9.8125 71.09375 
Q 15.4375 72.65625 20.34375 73.4375 
Q 25.25 74.21875 29.59375 74.21875 
Q 40.828125 74.21875 47.359375 69.109375 
Q 53.90625 64.015625 53.90625 55.328125 
Q 53.90625 49.265625 50.4375 45.09375 
Q 46.96875 40.921875 40.578125 39.3125 
z
" id="DejaVuSans-51"/>
      </defs>
      <g transform="translate(432.982757 91.494393)scale(0.1 -0.1)">
       <use xlink:href="#DejaVuSans-51"/>
       <use x="63.623047" xlink:href="#DejaVuSans-48"/>
      </g>
     </g>
    </g>
    <g id="text_8">
     <!-- Recall -->
     <defs>
      <path d="M 44.390625 34.1875 
Q 47.5625 33.109375 50.5625 29.59375 
Q 53.5625 26.078125 56.59375 19.921875 
L 66.609375 0 
L 56 0 
L 46.6875 18.703125 
Q 43.0625 26.03125 39.671875 28.421875 
Q 36.28125 30.8125 30.421875 30.8125 
L 19.671875 30.8125 
L 19.671875 0 
L 9.8125 0 
L 9.8125 72.90625 
L 32.078125 72.90625 
Q 44.578125 72.90625 50.734375 67.671875 
Q 56.890625 62.453125 56.890625 51.90625 
Q 56.890625 45.015625 53.6875 40.46875 
Q 50.484375 35.9375 44.390625 34.1875 
z
M 19.671875 64.796875 
L 19.671875 38.921875 
L 32.078125 38.921875 
Q 39.203125 38.921875 42.84375 42.21875 
Q 46.484375 45.515625 46.484375 51.90625 
Q 46.484375 58.296875 42.84375 61.546875 
Q 39.203125 64.796875 32.078125 64.796875 
z
" id="DejaVuSans-82"/>
      <path d="M 56.203125 29.59375 
L 56.203125 25.203125 
L 14.890625 25.203125 
Q 15.484375 15.921875 20.484375 11.0625 
Q 25.484375 6.203125 34.421875 6.203125 
Q 39.59375 6.203125 44.453125 7.46875 
Q 49.3125 8.734375 54.109375 11.28125 
L 54.109375 2.78125 
Q 49.265625 0.734375 44.1875 -0.34375 
Q 39.109375 -1.421875 33.890625 -1.421875 
Q 20.796875 -1.421875 13.15625 6.1875 
Q 5.515625 13.8125 5.515625 26.8125 
Q 5.515625 40.234375 12.765625 48.109375 
Q 20.015625 56 32.328125 56 
Q 43.359375 56 49.78125 48.890625 
Q 56.203125 41.796875 56.203125 29.59375 
z
M 47.21875 32.234375 
Q 47.125 39.59375 43.09375 43.984375 
Q 39.0625 48.390625 32.421875 48.390625 
Q 24.90625 48.390625 20.390625 44.140625 
Q 15.875 39.890625 15.1875 32.171875 
z
" id="DejaVuSans-101"/>
      <path d="M 48.78125 52.59375 
L 48.78125 44.1875 
Q 44.96875 46.296875 41.140625 47.34375 
Q 37.3125 48.390625 33.40625 48.390625 
Q 24.65625 48.390625 19.8125 42.84375 
Q 14.984375 37.3125 14.984375 27.296875 
Q 14.984375 17.28125 19.8125 11.734375 
Q 24.65625 6.203125 33.40625 6.203125 
Q 37.3125 6.203125 41.140625 7.25 
Q 44.96875 8.296875 48.78125 10.40625 
L 48.78125 2.09375 
Q 45.015625 0.34375 40.984375 -0.53125 
Q 36.96875 -1.421875 32.421875 -1.421875 
Q 20.0625 -1.421875 12.78125 6.34375 
Q 5.515625 14.109375 5.515625 27.296875 
Q 5.515625 40.671875 12.859375 48.328125 
Q 20.21875 56 33.015625 56 
Q 37.15625 56 41.109375 55.140625 
Q 45.0625 54.296875 48.78125 52.59375 
z
" id="DejaVuSans-99"/>
      <path d="M 34.28125 27.484375 
Q 23.390625 27.484375 19.1875 25 
Q 14.984375 22.515625 14.984375 16.5 
Q 14.984375 11.71875 18.140625 8.90625 
Q 21.296875 6.109375 26.703125 6.109375 
Q 34.1875 6.109375 38.703125 11.40625 
Q 43.21875 16.703125 43.21875 25.484375 
L 43.21875 27.484375 
z
M 52.203125 31.203125 
L 52.203125 0 
L 43.21875 0 
L 43.21875 8.296875 
Q 40.140625 3.328125 35.546875 0.953125 
Q 30.953125 -1.421875 24.3125 -1.421875 
Q 15.921875 -1.421875 10.953125 3.296875 
Q 6 8.015625 6 15.921875 
Q 6 25.140625 12.171875 29.828125 
Q 18.359375 34.515625 30.609375 34.515625 
L 43.21875 34.515625 
L 43.21875 35.40625 
Q 43.21875 41.609375 39.140625 45 
Q 35.0625 48.390625 27.6875 48.390625 
Q 23 48.390625 18.546875 47.265625 
Q 14.109375 46.140625 10.015625 43.890625 
L 10.015625 52.203125 
Q 14.9375 54.109375 19.578125 55.046875 
Q 24.21875 56 28.609375 56 
Q 40.484375 56 46.34375 49.84375 
Q 52.203125 43.703125 52.203125 31.203125 
z
" id="DejaVuSans-97"/>
      <path d="M 9.421875 75.984375 
L 18.40625 75.984375 
L 18.40625 0 
L 9.421875 0 
z
" id="DejaVuSans-108"/>
     </defs>
     <g transform="translate(222.512934 105.172518)scale(0.1 -0.1)">
      <use xlink:href="#DejaVuSans-82"/>
      <use x="69.419922" xlink:href="#DejaVuSans-101"/>
      <use x="130.943359" xlink:href="#DejaVuSans-99"/>
      <use x="185.923828" xlink:href="#DejaVuSans-97"/>
      <use x="247.203125" xlink:href="#DejaVuSans-108"/>
      <use x="274.986328" xlink:href="#DejaVuSans-108"/>
     </g>
    </g>
   </g>
   <g id="matplotlib.axis_2">
    <g id="ytick_1">
     <g id="line2d_8">
      <defs>
       <path d="M 0 0 
L -3.5 0 
" id="ma3fe08121c" style="stroke:#000000;stroke-width:0.8;"/>
      </defs>
      <g>
       <use style="stroke:#000000;stroke-width:0.8;" x="30.103125" xlink:href="#ma3fe08121c" y="76.895955"/>
      </g>
     </g>
     <g id="text_9">
      <!-- 0.0 -->
      <defs>
       <path d="M 10.6875 12.40625 
L 21 12.40625 
L 21 0 
L 10.6875 0 
z
" id="DejaVuSans-46"/>
      </defs>
      <g transform="translate(7.2 80.695174)scale(0.1 -0.1)">
       <use xlink:href="#DejaVuSans-48"/>
       <use x="63.623047" xlink:href="#DejaVuSans-46"/>
       <use x="95.410156" xlink:href="#DejaVuSans-48"/>
      </g>
     </g>
    </g>
    <g id="ytick_2">
     <g id="line2d_9">
      <g>
       <use style="stroke:#000000;stroke-width:0.8;" x="30.103125" xlink:href="#ma3fe08121c" y="43.947587"/>
      </g>
     </g>
     <g id="text_10">
      <!-- 0.5 -->
      <g transform="translate(7.2 47.746806)scale(0.1 -0.1)">
       <use xlink:href="#DejaVuSans-48"/>
       <use x="63.623047" xlink:href="#DejaVuSans-46"/>
       <use x="95.410156" xlink:href="#DejaVuSans-53"/>
      </g>
     </g>
    </g>
    <g id="ytick_3">
     <g id="line2d_10">
      <g>
       <use style="stroke:#000000;stroke-width:0.8;" x="30.103125" xlink:href="#ma3fe08121c" y="10.999219"/>
      </g>
     </g>
     <g id="text_11">
      <!-- 1.0 -->
      <g transform="translate(7.2 14.798437)scale(0.1 -0.1)">
       <use xlink:href="#DejaVuSans-49"/>
       <use x="63.623047" xlink:href="#DejaVuSans-46"/>
       <use x="95.410156" xlink:href="#DejaVuSans-48"/>
      </g>
     </g>
    </g>
   </g>
   <g id="line2d_11">
    <path clip-path="url(#p0ca1f6dd97)" d="M 48.971204 10.999219 
L 61.983673 10.999219 
L 74.996141 10.999219 
L 88.00861 10.999219 
L 101.021078 10.999219 
L 114.033546 10.999219 
L 127.046015 10.999219 
L 140.058483 10.999219 
L 153.070952 10.999219 
L 166.08342 10.999219 
L 179.095889 10.999219 
L 192.108357 10.999219 
L 205.120825 10.999219 
L 218.133294 10.999219 
L 231.145762 10.999219 
L 244.158231 10.999219 
L 257.170699 10.999219 
L 270.183168 10.999219 
L 283.195636 10.999219 
L 296.208104 10.999219 
L 309.220573 10.999219 
L 322.233041 10.999219 
L 335.24551 10.999219 
L 348.257978 10.999219 
L 361.270447 10.999219 
L 374.282915 10.999219 
L 387.295383 10.999219 
L 400.307852 10.999219 
L 413.32032 10.999219 
L 426.332789 10.999219 
" style="fill:none;stroke:#1f77b4;stroke-linecap:square;stroke-width:1.5;"/>
    <defs>
     <path d="M 0 -3 
L -0.673542 -0.927051 
L -2.85317 -0.927051 
L -1.089814 0.354102 
L -1.763356 2.427051 
L -0 1.145898 
L 1.763356 2.427051 
L 1.089814 0.354102 
L 2.85317 -0.927051 
L 0.673542 -0.927051 
z
" id="m080be93048" style="stroke:#1f77b4;stroke-linejoin:bevel;"/>
    </defs>
    <g clip-path="url(#p0ca1f6dd97)">
     <use style="fill:#1f77b4;stroke:#1f77b4;stroke-linejoin:bevel;" x="48.971204" xlink:href="#m080be93048" y="10.999219"/>
     <use style="fill:#1f77b4;stroke:#1f77b4;stroke-linejoin:bevel;" x="61.983673" xlink:href="#m080be93048" y="10.999219"/>
     <use style="fill:#1f77b4;stroke:#1f77b4;stroke-linejoin:bevel;" x="74.996141" xlink:href="#m080be93048" y="10.999219"/>
     <use style="fill:#1f77b4;stroke:#1f77b4;stroke-linejoin:bevel;" x="88.00861" xlink:href="#m080be93048" y="10.999219"/>
     <use style="fill:#1f77b4;stroke:#1f77b4;stroke-linejoin:bevel;" x="101.021078" xlink:href="#m080be93048" y="10.999219"/>
     <use style="fill:#1f77b4;stroke:#1f77b4;stroke-linejoin:bevel;" x="114.033546" xlink:href="#m080be93048" y="10.999219"/>
     <use style="fill:#1f77b4;stroke:#1f77b4;stroke-linejoin:bevel;" x="127.046015" xlink:href="#m080be93048" y="10.999219"/>
     <use style="fill:#1f77b4;stroke:#1f77b4;stroke-linejoin:bevel;" x="140.058483" xlink:href="#m080be93048" y="10.999219"/>
     <use style="fill:#1f77b4;stroke:#1f77b4;stroke-linejoin:bevel;" x="153.070952" xlink:href="#m080be93048" y="10.999219"/>
     <use style="fill:#1f77b4;stroke:#1f77b4;stroke-linejoin:bevel;" x="166.08342" xlink:href="#m080be93048" y="10.999219"/>
     <use style="fill:#1f77b4;stroke:#1f77b4;stroke-linejoin:bevel;" x="179.095889" xlink:href="#m080be93048" y="10.999219"/>
     <use style="fill:#1f77b4;stroke:#1f77b4;stroke-linejoin:bevel;" x="192.108357" xlink:href="#m080be93048" y="10.999219"/>
     <use style="fill:#1f77b4;stroke:#1f77b4;stroke-linejoin:bevel;" x="205.120825" xlink:href="#m080be93048" y="10.999219"/>
     <use style="fill:#1f77b4;stroke:#1f77b4;stroke-linejoin:bevel;" x="218.133294" xlink:href="#m080be93048" y="10.999219"/>
     <use style="fill:#1f77b4;stroke:#1f77b4;stroke-linejoin:bevel;" x="231.145762" xlink:href="#m080be93048" y="10.999219"/>
     <use style="fill:#1f77b4;stroke:#1f77b4;stroke-linejoin:bevel;" x="244.158231" xlink:href="#m080be93048" y="10.999219"/>
     <use style="fill:#1f77b4;stroke:#1f77b4;stroke-linejoin:bevel;" x="257.170699" xlink:href="#m080be93048" y="10.999219"/>
     <use style="fill:#1f77b4;stroke:#1f77b4;stroke-linejoin:bevel;" x="270.183168" xlink:href="#m080be93048" y="10.999219"/>
     <use style="fill:#1f77b4;stroke:#1f77b4;stroke-linejoin:bevel;" x="283.195636" xlink:href="#m080be93048" y="10.999219"/>
     <use style="fill:#1f77b4;stroke:#1f77b4;stroke-linejoin:bevel;" x="296.208104" xlink:href="#m080be93048" y="10.999219"/>
     <use style="fill:#1f77b4;stroke:#1f77b4;stroke-linejoin:bevel;" x="309.220573" xlink:href="#m080be93048" y="10.999219"/>
     <use style="fill:#1f77b4;stroke:#1f77b4;stroke-linejoin:bevel;" x="322.233041" xlink:href="#m080be93048" y="10.999219"/>
     <use style="fill:#1f77b4;stroke:#1f77b4;stroke-linejoin:bevel;" x="335.24551" xlink:href="#m080be93048" y="10.999219"/>
     <use style="fill:#1f77b4;stroke:#1f77b4;stroke-linejoin:bevel;" x="348.257978" xlink:href="#m080be93048" y="10.999219"/>
     <use style="fill:#1f77b4;stroke:#1f77b4;stroke-linejoin:bevel;" x="361.270447" xlink:href="#m080be93048" y="10.999219"/>
     <use style="fill:#1f77b4;stroke:#1f77b4;stroke-linejoin:bevel;" x="374.282915" xlink:href="#m080be93048" y="10.999219"/>
     <use style="fill:#1f77b4;stroke:#1f77b4;stroke-linejoin:bevel;" x="387.295383" xlink:href="#m080be93048" y="10.999219"/>
     <use style="fill:#1f77b4;stroke:#1f77b4;stroke-linejoin:bevel;" x="400.307852" xlink:href="#m080be93048" y="10.999219"/>
     <use style="fill:#1f77b4;stroke:#1f77b4;stroke-linejoin:bevel;" x="413.32032" xlink:href="#m080be93048" y="10.999219"/>
     <use style="fill:#1f77b4;stroke:#1f77b4;stroke-linejoin:bevel;" x="426.332789" xlink:href="#m080be93048" y="10.999219"/>
    </g>
   </g>
   <g id="line2d_12">
    <path clip-path="url(#p0ca1f6dd97)" d="M 48.971204 14.031363 
L 61.983673 17.018645 
L 74.996141 15.305244 
L 88.00861 18.446785 
L 101.021078 15.982141 
L 114.033546 16.247402 
L 127.046015 16.636345 
L 140.058483 16.549655 
L 153.070952 16.404987 
L 166.08342 17.925549 
L 179.095889 17.568908 
L 192.108357 17.470605 
L 205.120825 16.199706 
L 218.133294 17.253303 
L 231.145762 14.807187 
L 244.158231 14.921835 
L 257.170699 15.160258 
L 270.183168 16.315377 
L 283.195636 15.945944 
L 296.208104 18.177056 
L 309.220573 17.04409 
L 322.233041 18.655331 
L 335.24551 17.785905 
L 348.257978 17.322203 
L 361.270447 17.878019 
L 374.282915 16.687329 
L 387.295383 17.842449 
L 400.307852 18.731714 
L 413.32032 17.013595 
L 426.332789 17.723173 
" style="fill:none;stroke:#ff7f0e;stroke-linecap:square;stroke-width:1.5;"/>
   </g>
   <g id="line2d_13">
    <path clip-path="url(#p0ca1f6dd97)" d="M 48.971204 15.66687 
L 61.983673 20.867003 
L 74.996141 23.211752 
L 88.00861 17.674434 
L 101.021078 21.934489 
L 114.033546 22.563823 
L 127.046015 16.918457 
L 140.058483 21.135517 
L 153.070952 22.838987 
L 166.08342 17.259182 
L 179.095889 23.520252 
L 192.108357 23.548875 
L 205.120825 16.69703 
L 218.133294 20.659702 
L 231.145762 22.107108 
L 244.158231 17.073515 
L 257.170699 22.90281 
L 270.183168 24.184801 
L 283.195636 17.268611 
L 296.208104 22.148523 
L 309.220573 21.930761 
L 322.233041 16.48784 
L 335.24551 20.663107 
L 348.257978 22.062862 
L 361.270447 18.871598 
L 374.282915 22.42048 
L 387.295383 23.673922 
L 400.307852 18.664312 
L 413.32032 24.051622 
L 426.332789 24.65934 
" style="fill:none;stroke:#2ca02c;stroke-linecap:square;stroke-width:1.5;"/>
   </g>
   <g id="line2d_14">
    <path clip-path="url(#p0ca1f6dd97)" d="M 48.971204 18.792103 
L 61.983673 20.837487 
L 74.996141 23.215881 
L 88.00861 25.93772 
L 101.021078 38.709203 
L 114.033546 21.666042 
L 127.046015 20.885346 
L 140.058483 21.408528 
L 153.070952 22.672674 
L 166.08342 39.527019 
L 179.095889 22.224062 
L 192.108357 22.572493 
L 205.120825 23.905541 
L 218.133294 25.230521 
L 231.145762 39.600307 
L 244.158231 23.082242 
L 257.170699 22.745737 
L 270.183168 24.000162 
L 283.195636 25.977925 
L 296.208104 39.646878 
L 309.220573 22.066634 
L 322.233041 23.519756 
L 335.24551 22.714332 
L 348.257978 23.446648 
L 361.270447 38.903264 
L 374.282915 22.267286 
L 387.295383 23.013148 
L 400.307852 24.141929 
L 413.32032 24.85758 
L 426.332789 37.67786 
" style="fill:none;stroke:#d62728;stroke-linecap:square;stroke-width:1.5;"/>
   </g>
   <g id="line2d_15">
    <path clip-path="url(#p0ca1f6dd97)" d="M 48.971204 18.792103 
L 61.983673 20.84081 
L 74.996141 23.222157 
L 88.00861 25.772978 
L 101.021078 38.709203 
L 114.033546 38.65928 
L 127.046015 39.342482 
L 140.058483 39.233464 
L 153.070952 39.997191 
L 166.08342 39.526779 
L 179.095889 22.236983 
L 192.108357 22.572493 
L 205.120825 23.905541 
L 218.133294 25.376958 
L 231.145762 39.600307 
L 244.158231 38.696945 
L 257.170699 40.695602 
L 270.183168 39.96687 
L 283.195636 39.859372 
L 296.208104 39.672631 
L 309.220573 22.066634 
L 322.233041 23.519756 
L 335.24551 22.720415 
L 348.257978 23.452708 
L 361.270447 38.845963 
L 374.282915 37.781139 
L 387.295383 37.379104 
L 400.307852 37.415601 
L 413.32032 37.753404 
L 426.332789 37.648573 
" style="fill:none;stroke:#9467bd;stroke-linecap:square;stroke-width:1.5;"/>
   </g>
   <g id="line2d_16">
    <path clip-path="url(#p0ca1f6dd97)" d="M 48.971204 36.764961 
L 61.983673 36.458839 
L 74.996141 38.283151 
L 88.00861 39.436343 
L 101.021078 38.732215 
L 114.033546 38.787495 
L 127.046015 39.342482 
L 140.058483 39.233464 
L 153.070952 39.997191 
L 166.08342 39.526779 
L 179.095889 38.956345 
L 192.108357 38.749665 
L 205.120825 39.328631 
L 218.133294 39.263936 
L 231.145762 39.581772 
L 244.158231 38.714543 
L 257.170699 39.243339 
L 270.183168 39.96687 
L 283.195636 39.859372 
L 296.208104 39.672631 
L 309.220573 39.487547 
L 322.233041 39.707605 
L 335.24551 38.649147 
L 348.257978 38.476724 
L 361.270447 38.903264 
L 374.282915 37.781139 
L 387.295383 37.379104 
L 400.307852 37.415601 
L 413.32032 37.753404 
L 426.332789 37.648573 
" style="fill:none;stroke:#8c564b;stroke-linecap:square;stroke-width:1.5;"/>
    <defs>
     <path d="M -3 0 
L 3 0 
M 0 3 
L 0 -3 
" id="m4c19022973" style="stroke:#8c564b;"/>
    </defs>
    <g clip-path="url(#p0ca1f6dd97)">
     <use style="fill:#8c564b;stroke:#8c564b;" x="48.971204" xlink:href="#m4c19022973" y="36.764961"/>
     <use style="fill:#8c564b;stroke:#8c564b;" x="61.983673" xlink:href="#m4c19022973" y="36.458839"/>
     <use style="fill:#8c564b;stroke:#8c564b;" x="74.996141" xlink:href="#m4c19022973" y="38.283151"/>
     <use style="fill:#8c564b;stroke:#8c564b;" x="88.00861" xlink:href="#m4c19022973" y="39.436343"/>
     <use style="fill:#8c564b;stroke:#8c564b;" x="101.021078" xlink:href="#m4c19022973" y="38.732215"/>
     <use style="fill:#8c564b;stroke:#8c564b;" x="114.033546" xlink:href="#m4c19022973" y="38.787495"/>
     <use style="fill:#8c564b;stroke:#8c564b;" x="127.046015" xlink:href="#m4c19022973" y="39.342482"/>
     <use style="fill:#8c564b;stroke:#8c564b;" x="140.058483" xlink:href="#m4c19022973" y="39.233464"/>
     <use style="fill:#8c564b;stroke:#8c564b;" x="153.070952" xlink:href="#m4c19022973" y="39.997191"/>
     <use style="fill:#8c564b;stroke:#8c564b;" x="166.08342" xlink:href="#m4c19022973" y="39.526779"/>
     <use style="fill:#8c564b;stroke:#8c564b;" x="179.095889" xlink:href="#m4c19022973" y="38.956345"/>
     <use style="fill:#8c564b;stroke:#8c564b;" x="192.108357" xlink:href="#m4c19022973" y="38.749665"/>
     <use style="fill:#8c564b;stroke:#8c564b;" x="205.120825" xlink:href="#m4c19022973" y="39.328631"/>
     <use style="fill:#8c564b;stroke:#8c564b;" x="218.133294" xlink:href="#m4c19022973" y="39.263936"/>
     <use style="fill:#8c564b;stroke:#8c564b;" x="231.145762" xlink:href="#m4c19022973" y="39.581772"/>
     <use style="fill:#8c564b;stroke:#8c564b;" x="244.158231" xlink:href="#m4c19022973" y="38.714543"/>
     <use style="fill:#8c564b;stroke:#8c564b;" x="257.170699" xlink:href="#m4c19022973" y="39.243339"/>
     <use style="fill:#8c564b;stroke:#8c564b;" x="270.183168" xlink:href="#m4c19022973" y="39.96687"/>
     <use style="fill:#8c564b;stroke:#8c564b;" x="283.195636" xlink:href="#m4c19022973" y="39.859372"/>
     <use style="fill:#8c564b;stroke:#8c564b;" x="296.208104" xlink:href="#m4c19022973" y="39.672631"/>
     <use style="fill:#8c564b;stroke:#8c564b;" x="309.220573" xlink:href="#m4c19022973" y="39.487547"/>
     <use style="fill:#8c564b;stroke:#8c564b;" x="322.233041" xlink:href="#m4c19022973" y="39.707605"/>
     <use style="fill:#8c564b;stroke:#8c564b;" x="335.24551" xlink:href="#m4c19022973" y="38.649147"/>
     <use style="fill:#8c564b;stroke:#8c564b;" x="348.257978" xlink:href="#m4c19022973" y="38.476724"/>
     <use style="fill:#8c564b;stroke:#8c564b;" x="361.270447" xlink:href="#m4c19022973" y="38.903264"/>
     <use style="fill:#8c564b;stroke:#8c564b;" x="374.282915" xlink:href="#m4c19022973" y="37.781139"/>
     <use style="fill:#8c564b;stroke:#8c564b;" x="387.295383" xlink:href="#m4c19022973" y="37.379104"/>
     <use style="fill:#8c564b;stroke:#8c564b;" x="400.307852" xlink:href="#m4c19022973" y="37.415601"/>
     <use style="fill:#8c564b;stroke:#8c564b;" x="413.32032" xlink:href="#m4c19022973" y="37.753404"/>
     <use style="fill:#8c564b;stroke:#8c564b;" x="426.332789" xlink:href="#m4c19022973" y="37.648573"/>
    </g>
   </g>
   <g id="patch_3">
    <path d="M 30.103125 76.895955 
L 30.103125 9.681284 
" style="fill:none;stroke:#000000;stroke-linecap:square;stroke-linejoin:miter;stroke-width:0.8;"/>
   </g>
   <g id="patch_4">
    <path d="M 445.200868 76.895955 
L 445.200868 9.681284 
" style="fill:none;stroke:#000000;stroke-linecap:square;stroke-linejoin:miter;stroke-width:0.8;"/>
   </g>
   <g id="patch_5">
    <path d="M 30.103125 76.895955 
L 445.200868 76.895955 
" style="fill:none;stroke:#000000;stroke-linecap:square;stroke-linejoin:miter;stroke-width:0.8;"/>
   </g>
   <g id="patch_6">
    <path d="M 30.103125 9.681284 
L 445.200868 9.681284 
" style="fill:none;stroke:#000000;stroke-linecap:square;stroke-linejoin:miter;stroke-width:0.8;"/>
   </g>
  </g>
  <g id="axes_2">
   <g id="patch_7">
    <path d="M 30.103125 188.495955 
L 445.200868 188.495955 
L 445.200868 121.281284 
L 30.103125 121.281284 
z
" style="fill:#ffffff;"/>
   </g>
   <g id="matplotlib.axis_3">
    <g id="xtick_8">
     <g id="line2d_17">
      <g>
       <use style="stroke:#000000;stroke-width:0.8;" x="48.971204" xlink:href="#m275e1442be" y="188.495955"/>
      </g>
     </g>
     <g id="text_12">
      <!-- 0 -->
      <g transform="translate(45.789954 203.094393)scale(0.1 -0.1)">
       <use xlink:href="#DejaVuSans-48"/>
      </g>
     </g>
    </g>
    <g id="xtick_9">
     <g id="line2d_18">
      <g>
       <use style="stroke:#000000;stroke-width:0.8;" x="114.033546" xlink:href="#m275e1442be" y="188.495955"/>
      </g>
     </g>
     <g id="text_13">
      <!-- 5 -->
      <g transform="translate(110.852296 203.094393)scale(0.1 -0.1)">
       <use xlink:href="#DejaVuSans-53"/>
      </g>
     </g>
    </g>
    <g id="xtick_10">
     <g id="line2d_19">
      <g>
       <use style="stroke:#000000;stroke-width:0.8;" x="179.095889" xlink:href="#m275e1442be" y="188.495955"/>
      </g>
     </g>
     <g id="text_14">
      <!-- 10 -->
      <g transform="translate(172.733389 203.094393)scale(0.1 -0.1)">
       <use xlink:href="#DejaVuSans-49"/>
       <use x="63.623047" xlink:href="#DejaVuSans-48"/>
      </g>
     </g>
    </g>
    <g id="xtick_11">
     <g id="line2d_20">
      <g>
       <use style="stroke:#000000;stroke-width:0.8;" x="244.158231" xlink:href="#m275e1442be" y="188.495955"/>
      </g>
     </g>
     <g id="text_15">
      <!-- 15 -->
      <g transform="translate(237.795731 203.094393)scale(0.1 -0.1)">
       <use xlink:href="#DejaVuSans-49"/>
       <use x="63.623047" xlink:href="#DejaVuSans-53"/>
      </g>
     </g>
    </g>
    <g id="xtick_12">
     <g id="line2d_21">
      <g>
       <use style="stroke:#000000;stroke-width:0.8;" x="309.220573" xlink:href="#m275e1442be" y="188.495955"/>
      </g>
     </g>
     <g id="text_16">
      <!-- 20 -->
      <g transform="translate(302.858073 203.094393)scale(0.1 -0.1)">
       <use xlink:href="#DejaVuSans-50"/>
       <use x="63.623047" xlink:href="#DejaVuSans-48"/>
      </g>
     </g>
    </g>
    <g id="xtick_13">
     <g id="line2d_22">
      <g>
       <use style="stroke:#000000;stroke-width:0.8;" x="374.282915" xlink:href="#m275e1442be" y="188.495955"/>
      </g>
     </g>
     <g id="text_17">
      <!-- 25 -->
      <g transform="translate(367.920415 203.094393)scale(0.1 -0.1)">
       <use xlink:href="#DejaVuSans-50"/>
       <use x="63.623047" xlink:href="#DejaVuSans-53"/>
      </g>
     </g>
    </g>
    <g id="xtick_14">
     <g id="line2d_23">
      <g>
       <use style="stroke:#000000;stroke-width:0.8;" x="439.345257" xlink:href="#m275e1442be" y="188.495955"/>
      </g>
     </g>
     <g id="text_18">
      <!-- 30 -->
      <g transform="translate(432.982757 203.094393)scale(0.1 -0.1)">
       <use xlink:href="#DejaVuSans-51"/>
       <use x="63.623047" xlink:href="#DejaVuSans-48"/>
      </g>
     </g>
    </g>
    <g id="text_19">
     <!-- Precision -->
     <defs>
      <path d="M 19.671875 64.796875 
L 19.671875 37.40625 
L 32.078125 37.40625 
Q 38.96875 37.40625 42.71875 40.96875 
Q 46.484375 44.53125 46.484375 51.125 
Q 46.484375 57.671875 42.71875 61.234375 
Q 38.96875 64.796875 32.078125 64.796875 
z
M 9.8125 72.90625 
L 32.078125 72.90625 
Q 44.34375 72.90625 50.609375 67.359375 
Q 56.890625 61.8125 56.890625 51.125 
Q 56.890625 40.328125 50.609375 34.8125 
Q 44.34375 29.296875 32.078125 29.296875 
L 19.671875 29.296875 
L 19.671875 0 
L 9.8125 0 
z
" id="DejaVuSans-80"/>
      <path d="M 41.109375 46.296875 
Q 39.59375 47.171875 37.8125 47.578125 
Q 36.03125 48 33.890625 48 
Q 26.265625 48 22.1875 43.046875 
Q 18.109375 38.09375 18.109375 28.8125 
L 18.109375 0 
L 9.078125 0 
L 9.078125 54.6875 
L 18.109375 54.6875 
L 18.109375 46.1875 
Q 20.953125 51.171875 25.484375 53.578125 
Q 30.03125 56 36.53125 56 
Q 37.453125 56 38.578125 55.875 
Q 39.703125 55.765625 41.0625 55.515625 
z
" id="DejaVuSans-114"/>
      <path d="M 9.421875 54.6875 
L 18.40625 54.6875 
L 18.40625 0 
L 9.421875 0 
z
M 9.421875 75.984375 
L 18.40625 75.984375 
L 18.40625 64.59375 
L 9.421875 64.59375 
z
" id="DejaVuSans-105"/>
      <path d="M 44.28125 53.078125 
L 44.28125 44.578125 
Q 40.484375 46.53125 36.375 47.5 
Q 32.28125 48.484375 27.875 48.484375 
Q 21.1875 48.484375 17.84375 46.4375 
Q 14.5 44.390625 14.5 40.28125 
Q 14.5 37.15625 16.890625 35.375 
Q 19.28125 33.59375 26.515625 31.984375 
L 29.59375 31.296875 
Q 39.15625 29.25 43.1875 25.515625 
Q 47.21875 21.78125 47.21875 15.09375 
Q 47.21875 7.46875 41.1875 3.015625 
Q 35.15625 -1.421875 24.609375 -1.421875 
Q 20.21875 -1.421875 15.453125 -0.5625 
Q 10.6875 0.296875 5.421875 2 
L 5.421875 11.28125 
Q 10.40625 8.6875 15.234375 7.390625 
Q 20.0625 6.109375 24.8125 6.109375 
Q 31.15625 6.109375 34.5625 8.28125 
Q 37.984375 10.453125 37.984375 14.40625 
Q 37.984375 18.0625 35.515625 20.015625 
Q 33.0625 21.96875 24.703125 23.78125 
L 21.578125 24.515625 
Q 13.234375 26.265625 9.515625 29.90625 
Q 5.8125 33.546875 5.8125 39.890625 
Q 5.8125 47.609375 11.28125 51.796875 
Q 16.75 56 26.8125 56 
Q 31.78125 56 36.171875 55.265625 
Q 40.578125 54.546875 44.28125 53.078125 
z
" id="DejaVuSans-115"/>
      <path d="M 30.609375 48.390625 
Q 23.390625 48.390625 19.1875 42.75 
Q 14.984375 37.109375 14.984375 27.296875 
Q 14.984375 17.484375 19.15625 11.84375 
Q 23.34375 6.203125 30.609375 6.203125 
Q 37.796875 6.203125 41.984375 11.859375 
Q 46.1875 17.53125 46.1875 27.296875 
Q 46.1875 37.015625 41.984375 42.703125 
Q 37.796875 48.390625 30.609375 48.390625 
z
M 30.609375 56 
Q 42.328125 56 49.015625 48.375 
Q 55.71875 40.765625 55.71875 27.296875 
Q 55.71875 13.875 49.015625 6.21875 
Q 42.328125 -1.421875 30.609375 -1.421875 
Q 18.84375 -1.421875 12.171875 6.21875 
Q 5.515625 13.875 5.515625 27.296875 
Q 5.515625 40.765625 12.171875 48.375 
Q 18.84375 56 30.609375 56 
z
" id="DejaVuSans-111"/>
      <path d="M 54.890625 33.015625 
L 54.890625 0 
L 45.90625 0 
L 45.90625 32.71875 
Q 45.90625 40.484375 42.875 44.328125 
Q 39.84375 48.1875 33.796875 48.1875 
Q 26.515625 48.1875 22.3125 43.546875 
Q 18.109375 38.921875 18.109375 30.90625 
L 18.109375 0 
L 9.078125 0 
L 9.078125 54.6875 
L 18.109375 54.6875 
L 18.109375 46.1875 
Q 21.34375 51.125 25.703125 53.5625 
Q 30.078125 56 35.796875 56 
Q 45.21875 56 50.046875 50.171875 
Q 54.890625 44.34375 54.890625 33.015625 
z
" id="DejaVuSans-110"/>
     </defs>
     <g transform="translate(215.147309 216.772518)scale(0.1 -0.1)">
      <use xlink:href="#DejaVuSans-80"/>
      <use x="60.287109" xlink:href="#DejaVuSans-114"/>
      <use x="101.369141" xlink:href="#DejaVuSans-101"/>
      <use x="162.892578" xlink:href="#DejaVuSans-99"/>
      <use x="217.873047" xlink:href="#DejaVuSans-105"/>
      <use x="245.65625" xlink:href="#DejaVuSans-115"/>
      <use x="297.755859" xlink:href="#DejaVuSans-105"/>
      <use x="325.539062" xlink:href="#DejaVuSans-111"/>
      <use x="386.720703" xlink:href="#DejaVuSans-110"/>
     </g>
    </g>
   </g>
   <g id="matplotlib.axis_4">
    <g id="ytick_4">
     <g id="line2d_24">
      <g>
       <use style="stroke:#000000;stroke-width:0.8;" x="30.103125" xlink:href="#ma3fe08121c" y="188.495955"/>
      </g>
     </g>
     <g id="text_20">
      <!-- 0.0 -->
      <g transform="translate(7.2 192.295174)scale(0.1 -0.1)">
       <use xlink:href="#DejaVuSans-48"/>
       <use x="63.623047" xlink:href="#DejaVuSans-46"/>
       <use x="95.410156" xlink:href="#DejaVuSans-48"/>
      </g>
     </g>
    </g>
    <g id="ytick_5">
     <g id="line2d_25">
      <g>
       <use style="stroke:#000000;stroke-width:0.8;" x="30.103125" xlink:href="#ma3fe08121c" y="155.547587"/>
      </g>
     </g>
     <g id="text_21">
      <!-- 0.5 -->
      <g transform="translate(7.2 159.346806)scale(0.1 -0.1)">
       <use xlink:href="#DejaVuSans-48"/>
       <use x="63.623047" xlink:href="#DejaVuSans-46"/>
       <use x="95.410156" xlink:href="#DejaVuSans-53"/>
      </g>
     </g>
    </g>
    <g id="ytick_6">
     <g id="line2d_26">
      <g>
       <use style="stroke:#000000;stroke-width:0.8;" x="30.103125" xlink:href="#ma3fe08121c" y="122.599219"/>
      </g>
     </g>
     <g id="text_22">
      <!-- 1.0 -->
      <g transform="translate(7.2 126.398437)scale(0.1 -0.1)">
       <use xlink:href="#DejaVuSans-49"/>
       <use x="63.623047" xlink:href="#DejaVuSans-46"/>
       <use x="95.410156" xlink:href="#DejaVuSans-48"/>
      </g>
     </g>
    </g>
   </g>
   <g id="line2d_27">
    <path clip-path="url(#p387d7ab9dd)" d="M 48.971204 122.599219 
L 61.983673 122.599219 
L 74.996141 122.599219 
L 88.00861 122.599219 
L 101.021078 122.599219 
L 114.033546 122.599219 
L 127.046015 122.599219 
L 140.058483 122.599219 
L 153.070952 122.599219 
L 166.08342 122.599219 
L 179.095889 122.599219 
L 192.108357 122.599219 
L 205.120825 122.599219 
L 218.133294 122.599219 
L 231.145762 122.599219 
L 244.158231 122.599219 
L 257.170699 122.599219 
L 270.183168 122.599219 
L 283.195636 122.599219 
L 296.208104 122.599219 
L 309.220573 122.599219 
L 322.233041 122.599219 
L 335.24551 122.599219 
L 348.257978 122.599219 
L 361.270447 122.599219 
L 374.282915 122.599219 
L 387.295383 122.599219 
L 400.307852 122.599219 
L 413.32032 122.599219 
L 426.332789 122.599219 
" style="fill:none;stroke:#1f77b4;stroke-linecap:square;stroke-width:1.5;"/>
    <g clip-path="url(#p387d7ab9dd)">
     <use style="fill:#1f77b4;stroke:#1f77b4;stroke-linejoin:bevel;" x="48.971204" xlink:href="#m080be93048" y="122.599219"/>
     <use style="fill:#1f77b4;stroke:#1f77b4;stroke-linejoin:bevel;" x="61.983673" xlink:href="#m080be93048" y="122.599219"/>
     <use style="fill:#1f77b4;stroke:#1f77b4;stroke-linejoin:bevel;" x="74.996141" xlink:href="#m080be93048" y="122.599219"/>
     <use style="fill:#1f77b4;stroke:#1f77b4;stroke-linejoin:bevel;" x="88.00861" xlink:href="#m080be93048" y="122.599219"/>
     <use style="fill:#1f77b4;stroke:#1f77b4;stroke-linejoin:bevel;" x="101.021078" xlink:href="#m080be93048" y="122.599219"/>
     <use style="fill:#1f77b4;stroke:#1f77b4;stroke-linejoin:bevel;" x="114.033546" xlink:href="#m080be93048" y="122.599219"/>
     <use style="fill:#1f77b4;stroke:#1f77b4;stroke-linejoin:bevel;" x="127.046015" xlink:href="#m080be93048" y="122.599219"/>
     <use style="fill:#1f77b4;stroke:#1f77b4;stroke-linejoin:bevel;" x="140.058483" xlink:href="#m080be93048" y="122.599219"/>
     <use style="fill:#1f77b4;stroke:#1f77b4;stroke-linejoin:bevel;" x="153.070952" xlink:href="#m080be93048" y="122.599219"/>
     <use style="fill:#1f77b4;stroke:#1f77b4;stroke-linejoin:bevel;" x="166.08342" xlink:href="#m080be93048" y="122.599219"/>
     <use style="fill:#1f77b4;stroke:#1f77b4;stroke-linejoin:bevel;" x="179.095889" xlink:href="#m080be93048" y="122.599219"/>
     <use style="fill:#1f77b4;stroke:#1f77b4;stroke-linejoin:bevel;" x="192.108357" xlink:href="#m080be93048" y="122.599219"/>
     <use style="fill:#1f77b4;stroke:#1f77b4;stroke-linejoin:bevel;" x="205.120825" xlink:href="#m080be93048" y="122.599219"/>
     <use style="fill:#1f77b4;stroke:#1f77b4;stroke-linejoin:bevel;" x="218.133294" xlink:href="#m080be93048" y="122.599219"/>
     <use style="fill:#1f77b4;stroke:#1f77b4;stroke-linejoin:bevel;" x="231.145762" xlink:href="#m080be93048" y="122.599219"/>
     <use style="fill:#1f77b4;stroke:#1f77b4;stroke-linejoin:bevel;" x="244.158231" xlink:href="#m080be93048" y="122.599219"/>
     <use style="fill:#1f77b4;stroke:#1f77b4;stroke-linejoin:bevel;" x="257.170699" xlink:href="#m080be93048" y="122.599219"/>
     <use style="fill:#1f77b4;stroke:#1f77b4;stroke-linejoin:bevel;" x="270.183168" xlink:href="#m080be93048" y="122.599219"/>
     <use style="fill:#1f77b4;stroke:#1f77b4;stroke-linejoin:bevel;" x="283.195636" xlink:href="#m080be93048" y="122.599219"/>
     <use style="fill:#1f77b4;stroke:#1f77b4;stroke-linejoin:bevel;" x="296.208104" xlink:href="#m080be93048" y="122.599219"/>
     <use style="fill:#1f77b4;stroke:#1f77b4;stroke-linejoin:bevel;" x="309.220573" xlink:href="#m080be93048" y="122.599219"/>
     <use style="fill:#1f77b4;stroke:#1f77b4;stroke-linejoin:bevel;" x="322.233041" xlink:href="#m080be93048" y="122.599219"/>
     <use style="fill:#1f77b4;stroke:#1f77b4;stroke-linejoin:bevel;" x="335.24551" xlink:href="#m080be93048" y="122.599219"/>
     <use style="fill:#1f77b4;stroke:#1f77b4;stroke-linejoin:bevel;" x="348.257978" xlink:href="#m080be93048" y="122.599219"/>
     <use style="fill:#1f77b4;stroke:#1f77b4;stroke-linejoin:bevel;" x="361.270447" xlink:href="#m080be93048" y="122.599219"/>
     <use style="fill:#1f77b4;stroke:#1f77b4;stroke-linejoin:bevel;" x="374.282915" xlink:href="#m080be93048" y="122.599219"/>
     <use style="fill:#1f77b4;stroke:#1f77b4;stroke-linejoin:bevel;" x="387.295383" xlink:href="#m080be93048" y="122.599219"/>
     <use style="fill:#1f77b4;stroke:#1f77b4;stroke-linejoin:bevel;" x="400.307852" xlink:href="#m080be93048" y="122.599219"/>
     <use style="fill:#1f77b4;stroke:#1f77b4;stroke-linejoin:bevel;" x="413.32032" xlink:href="#m080be93048" y="122.599219"/>
     <use style="fill:#1f77b4;stroke:#1f77b4;stroke-linejoin:bevel;" x="426.332789" xlink:href="#m080be93048" y="122.599219"/>
    </g>
   </g>
   <g id="line2d_28">
    <path clip-path="url(#p387d7ab9dd)" d="M 48.971204 135.085905 
L 61.983673 135.23218 
L 74.996141 135.342761 
L 88.00861 135.647943 
L 101.021078 136.067734 
L 114.033546 134.277957 
L 127.046015 135.552375 
L 140.058483 134.531921 
L 153.070952 134.528399 
L 166.08342 135.395528 
L 179.095889 134.695964 
L 192.108357 133.747361 
L 205.120825 134.824075 
L 218.133294 134.248893 
L 231.145762 135.012031 
L 244.158231 134.092432 
L 257.170699 136.154137 
L 270.183168 135.415058 
L 283.195636 135.656989 
L 296.208104 136.279299 
L 309.220573 136.124828 
L 322.233041 135.687408 
L 335.24551 135.815112 
L 348.257978 134.946491 
L 361.270447 134.629496 
L 374.282915 134.867546 
L 387.295383 134.294933 
L 400.307852 134.574992 
L 413.32032 134.640725 
L 426.332789 135.224409 
" style="fill:none;stroke:#ff7f0e;stroke-linecap:square;stroke-width:1.5;"/>
   </g>
   <g id="line2d_29">
    <path clip-path="url(#p387d7ab9dd)" d="M 48.971204 134.981064 
L 61.983673 135.155539 
L 74.996141 135.75777 
L 88.00861 135.858604 
L 101.021078 135.827705 
L 114.033546 135.647806 
L 127.046015 135.98459 
L 140.058483 135.169317 
L 153.070952 135.604992 
L 166.08342 135.229573 
L 179.095889 134.225829 
L 192.108357 134.425301 
L 205.120825 134.911038 
L 218.133294 134.232808 
L 231.145762 136.237717 
L 244.158231 135.200895 
L 257.170699 136.355094 
L 270.183168 136.941174 
L 283.195636 136.634463 
L 296.208104 136.245676 
L 309.220573 136.663835 
L 322.233041 136.432525 
L 335.24551 134.932179 
L 348.257978 135.423884 
L 361.270447 134.852656 
L 374.282915 135.409103 
L 387.295383 134.742961 
L 400.307852 135.010514 
L 413.32032 134.962301 
L 426.332789 136.579709 
" style="fill:none;stroke:#2ca02c;stroke-linecap:square;stroke-width:1.5;"/>
   </g>
   <g id="line2d_30">
    <path clip-path="url(#p387d7ab9dd)" d="M 48.971204 135.695094 
L 61.983673 135.127584 
L 74.996141 135.719198 
L 88.00861 137.391314 
L 101.021078 140.739991 
L 114.033546 135.538779 
L 127.046015 135.035108 
L 140.058483 135.686858 
L 153.070952 135.927033 
L 166.08342 140.839779 
L 179.095889 135.397004 
L 192.108357 134.678343 
L 205.120825 135.946796 
L 218.133294 136.62128 
L 231.145762 140.700275 
L 244.158231 135.887073 
L 257.170699 136.121016 
L 270.183168 136.727148 
L 283.195636 137.90699 
L 296.208104 141.711358 
L 309.220573 137.175061 
L 322.233041 136.224119 
L 335.24551 135.999605 
L 348.257978 136.647832 
L 361.270447 139.568667 
L 374.282915 135.903224 
L 387.295383 133.821536 
L 400.307852 135.194771 
L 413.32032 136.284103 
L 426.332789 141.057881 
" style="fill:none;stroke:#d62728;stroke-linecap:square;stroke-width:1.5;"/>
   </g>
   <g id="line2d_31">
    <path clip-path="url(#p387d7ab9dd)" d="M 48.971204 135.695094 
L 61.983673 135.129933 
L 74.996141 135.723896 
L 88.00861 137.344244 
L 101.021078 140.739991 
L 114.033546 139.752071 
L 127.046015 140.566929 
L 140.058483 139.867757 
L 153.070952 139.591649 
L 166.08342 140.722629 
L 179.095889 135.363676 
L 192.108357 134.678343 
L 205.120825 135.946796 
L 218.133294 136.669205 
L 231.145762 140.700275 
L 244.158231 139.789613 
L 257.170699 141.616705 
L 270.183168 140.671781 
L 283.195636 140.936866 
L 296.208104 141.713476 
L 309.220573 137.128426 
L 322.233041 136.274258 
L 335.24551 136.012085 
L 348.257978 136.656568 
L 361.270447 139.557256 
L 374.282915 139.996304 
L 387.295383 137.939431 
L 400.307852 138.81982 
L 413.32032 139.573605 
L 426.332789 140.838891 
" style="fill:none;stroke:#9467bd;stroke-linecap:square;stroke-width:1.5;"/>
   </g>
   <g id="line2d_32">
    <path clip-path="url(#p387d7ab9dd)" d="M 48.971204 140.27116 
L 61.983673 140.017152 
L 74.996141 139.917573 
L 88.00861 140.455683 
L 101.021078 140.578577 
L 114.033546 139.771452 
L 127.046015 140.566929 
L 140.058483 139.867757 
L 153.070952 139.591649 
L 166.08342 140.722629 
L 179.095889 139.021799 
L 192.108357 138.786764 
L 205.120825 139.563085 
L 218.133294 139.494157 
L 231.145762 140.530646 
L 244.158231 139.732293 
L 257.170699 141.582093 
L 270.183168 140.671781 
L 283.195636 140.936866 
L 296.208104 141.713476 
L 309.220573 141.868442 
L 322.233041 141.382079 
L 335.24551 140.180395 
L 348.257978 140.282016 
L 361.270447 139.568667 
L 374.282915 139.916429 
L 387.295383 137.939431 
L 400.307852 138.81982 
L 413.32032 139.573605 
L 426.332789 140.838891 
" style="fill:none;stroke:#8c564b;stroke-linecap:square;stroke-width:1.5;"/>
    <g clip-path="url(#p387d7ab9dd)">
     <use style="fill:#8c564b;stroke:#8c564b;" x="48.971204" xlink:href="#m4c19022973" y="140.27116"/>
     <use style="fill:#8c564b;stroke:#8c564b;" x="61.983673" xlink:href="#m4c19022973" y="140.017152"/>
     <use style="fill:#8c564b;stroke:#8c564b;" x="74.996141" xlink:href="#m4c19022973" y="139.917573"/>
     <use style="fill:#8c564b;stroke:#8c564b;" x="88.00861" xlink:href="#m4c19022973" y="140.455683"/>
     <use style="fill:#8c564b;stroke:#8c564b;" x="101.021078" xlink:href="#m4c19022973" y="140.578577"/>
     <use style="fill:#8c564b;stroke:#8c564b;" x="114.033546" xlink:href="#m4c19022973" y="139.771452"/>
     <use style="fill:#8c564b;stroke:#8c564b;" x="127.046015" xlink:href="#m4c19022973" y="140.566929"/>
     <use style="fill:#8c564b;stroke:#8c564b;" x="140.058483" xlink:href="#m4c19022973" y="139.867757"/>
     <use style="fill:#8c564b;stroke:#8c564b;" x="153.070952" xlink:href="#m4c19022973" y="139.591649"/>
     <use style="fill:#8c564b;stroke:#8c564b;" x="166.08342" xlink:href="#m4c19022973" y="140.722629"/>
     <use style="fill:#8c564b;stroke:#8c564b;" x="179.095889" xlink:href="#m4c19022973" y="139.021799"/>
     <use style="fill:#8c564b;stroke:#8c564b;" x="192.108357" xlink:href="#m4c19022973" y="138.786764"/>
     <use style="fill:#8c564b;stroke:#8c564b;" x="205.120825" xlink:href="#m4c19022973" y="139.563085"/>
     <use style="fill:#8c564b;stroke:#8c564b;" x="218.133294" xlink:href="#m4c19022973" y="139.494157"/>
     <use style="fill:#8c564b;stroke:#8c564b;" x="231.145762" xlink:href="#m4c19022973" y="140.530646"/>
     <use style="fill:#8c564b;stroke:#8c564b;" x="244.158231" xlink:href="#m4c19022973" y="139.732293"/>
     <use style="fill:#8c564b;stroke:#8c564b;" x="257.170699" xlink:href="#m4c19022973" y="141.582093"/>
     <use style="fill:#8c564b;stroke:#8c564b;" x="270.183168" xlink:href="#m4c19022973" y="140.671781"/>
     <use style="fill:#8c564b;stroke:#8c564b;" x="283.195636" xlink:href="#m4c19022973" y="140.936866"/>
     <use style="fill:#8c564b;stroke:#8c564b;" x="296.208104" xlink:href="#m4c19022973" y="141.713476"/>
     <use style="fill:#8c564b;stroke:#8c564b;" x="309.220573" xlink:href="#m4c19022973" y="141.868442"/>
     <use style="fill:#8c564b;stroke:#8c564b;" x="322.233041" xlink:href="#m4c19022973" y="141.382079"/>
     <use style="fill:#8c564b;stroke:#8c564b;" x="335.24551" xlink:href="#m4c19022973" y="140.180395"/>
     <use style="fill:#8c564b;stroke:#8c564b;" x="348.257978" xlink:href="#m4c19022973" y="140.282016"/>
     <use style="fill:#8c564b;stroke:#8c564b;" x="361.270447" xlink:href="#m4c19022973" y="139.568667"/>
     <use style="fill:#8c564b;stroke:#8c564b;" x="374.282915" xlink:href="#m4c19022973" y="139.916429"/>
     <use style="fill:#8c564b;stroke:#8c564b;" x="387.295383" xlink:href="#m4c19022973" y="137.939431"/>
     <use style="fill:#8c564b;stroke:#8c564b;" x="400.307852" xlink:href="#m4c19022973" y="138.81982"/>
     <use style="fill:#8c564b;stroke:#8c564b;" x="413.32032" xlink:href="#m4c19022973" y="139.573605"/>
     <use style="fill:#8c564b;stroke:#8c564b;" x="426.332789" xlink:href="#m4c19022973" y="140.838891"/>
    </g>
   </g>
   <g id="patch_8">
    <path d="M 30.103125 188.495955 
L 30.103125 121.281284 
" style="fill:none;stroke:#000000;stroke-linecap:square;stroke-linejoin:miter;stroke-width:0.8;"/>
   </g>
   <g id="patch_9">
    <path d="M 445.200868 188.495955 
L 445.200868 121.281284 
" style="fill:none;stroke:#000000;stroke-linecap:square;stroke-linejoin:miter;stroke-width:0.8;"/>
   </g>
   <g id="patch_10">
    <path d="M 30.103125 188.495955 
L 445.200868 188.495955 
" style="fill:none;stroke:#000000;stroke-linecap:square;stroke-linejoin:miter;stroke-width:0.8;"/>
   </g>
   <g id="patch_11">
    <path d="M 30.103125 121.281284 
L 445.200868 121.281284 
" style="fill:none;stroke:#000000;stroke-linecap:square;stroke-linejoin:miter;stroke-width:0.8;"/>
   </g>
  </g>
  <g id="axes_3">
   <g id="patch_12">
    <path d="M 30.103125 300.095955 
L 445.200868 300.095955 
L 445.200868 232.881284 
L 30.103125 232.881284 
z
" style="fill:#ffffff;"/>
   </g>
   <g id="matplotlib.axis_5">
    <g id="xtick_15">
     <g id="line2d_33">
      <g>
       <use style="stroke:#000000;stroke-width:0.8;" x="48.971204" xlink:href="#m275e1442be" y="300.095955"/>
      </g>
     </g>
     <g id="text_23">
      <!-- 0 -->
      <g transform="translate(45.789954 314.694393)scale(0.1 -0.1)">
       <use xlink:href="#DejaVuSans-48"/>
      </g>
     </g>
    </g>
    <g id="xtick_16">
     <g id="line2d_34">
      <g>
       <use style="stroke:#000000;stroke-width:0.8;" x="114.033546" xlink:href="#m275e1442be" y="300.095955"/>
      </g>
     </g>
     <g id="text_24">
      <!-- 5 -->
      <g transform="translate(110.852296 314.694393)scale(0.1 -0.1)">
       <use xlink:href="#DejaVuSans-53"/>
      </g>
     </g>
    </g>
    <g id="xtick_17">
     <g id="line2d_35">
      <g>
       <use style="stroke:#000000;stroke-width:0.8;" x="179.095889" xlink:href="#m275e1442be" y="300.095955"/>
      </g>
     </g>
     <g id="text_25">
      <!-- 10 -->
      <g transform="translate(172.733389 314.694393)scale(0.1 -0.1)">
       <use xlink:href="#DejaVuSans-49"/>
       <use x="63.623047" xlink:href="#DejaVuSans-48"/>
      </g>
     </g>
    </g>
    <g id="xtick_18">
     <g id="line2d_36">
      <g>
       <use style="stroke:#000000;stroke-width:0.8;" x="244.158231" xlink:href="#m275e1442be" y="300.095955"/>
      </g>
     </g>
     <g id="text_26">
      <!-- 15 -->
      <g transform="translate(237.795731 314.694393)scale(0.1 -0.1)">
       <use xlink:href="#DejaVuSans-49"/>
       <use x="63.623047" xlink:href="#DejaVuSans-53"/>
      </g>
     </g>
    </g>
    <g id="xtick_19">
     <g id="line2d_37">
      <g>
       <use style="stroke:#000000;stroke-width:0.8;" x="309.220573" xlink:href="#m275e1442be" y="300.095955"/>
      </g>
     </g>
     <g id="text_27">
      <!-- 20 -->
      <g transform="translate(302.858073 314.694393)scale(0.1 -0.1)">
       <use xlink:href="#DejaVuSans-50"/>
       <use x="63.623047" xlink:href="#DejaVuSans-48"/>
      </g>
     </g>
    </g>
    <g id="xtick_20">
     <g id="line2d_38">
      <g>
       <use style="stroke:#000000;stroke-width:0.8;" x="374.282915" xlink:href="#m275e1442be" y="300.095955"/>
      </g>
     </g>
     <g id="text_28">
      <!-- 25 -->
      <g transform="translate(367.920415 314.694393)scale(0.1 -0.1)">
       <use xlink:href="#DejaVuSans-50"/>
       <use x="63.623047" xlink:href="#DejaVuSans-53"/>
      </g>
     </g>
    </g>
    <g id="xtick_21">
     <g id="line2d_39">
      <g>
       <use style="stroke:#000000;stroke-width:0.8;" x="439.345257" xlink:href="#m275e1442be" y="300.095955"/>
      </g>
     </g>
     <g id="text_29">
      <!-- 30 -->
      <g transform="translate(432.982757 314.694393)scale(0.1 -0.1)">
       <use xlink:href="#DejaVuSans-51"/>
       <use x="63.623047" xlink:href="#DejaVuSans-48"/>
      </g>
     </g>
    </g>
    <g id="text_30">
     <!-- F1Score -->
     <defs>
      <path d="M 9.8125 72.90625 
L 51.703125 72.90625 
L 51.703125 64.59375 
L 19.671875 64.59375 
L 19.671875 43.109375 
L 48.578125 43.109375 
L 48.578125 34.8125 
L 19.671875 34.8125 
L 19.671875 0 
L 9.8125 0 
z
" id="DejaVuSans-70"/>
      <path d="M 53.515625 70.515625 
L 53.515625 60.890625 
Q 47.90625 63.578125 42.921875 64.890625 
Q 37.9375 66.21875 33.296875 66.21875 
Q 25.25 66.21875 20.875 63.09375 
Q 16.5 59.96875 16.5 54.203125 
Q 16.5 49.359375 19.40625 46.890625 
Q 22.3125 44.4375 30.421875 42.921875 
L 36.375 41.703125 
Q 47.40625 39.59375 52.65625 34.296875 
Q 57.90625 29 57.90625 20.125 
Q 57.90625 9.515625 50.796875 4.046875 
Q 43.703125 -1.421875 29.984375 -1.421875 
Q 24.8125 -1.421875 18.96875 -0.25 
Q 13.140625 0.921875 6.890625 3.21875 
L 6.890625 13.375 
Q 12.890625 10.015625 18.65625 8.296875 
Q 24.421875 6.59375 29.984375 6.59375 
Q 38.421875 6.59375 43.015625 9.90625 
Q 47.609375 13.234375 47.609375 19.390625 
Q 47.609375 24.75 44.3125 27.78125 
Q 41.015625 30.8125 33.5 32.328125 
L 27.484375 33.5 
Q 16.453125 35.6875 11.515625 40.375 
Q 6.59375 45.0625 6.59375 53.421875 
Q 6.59375 63.09375 13.40625 68.65625 
Q 20.21875 74.21875 32.171875 74.21875 
Q 37.3125 74.21875 42.625 73.28125 
Q 47.953125 72.359375 53.515625 70.515625 
z
" id="DejaVuSans-83"/>
     </defs>
     <g transform="translate(217.481684 328.372518)scale(0.1 -0.1)">
      <use xlink:href="#DejaVuSans-70"/>
      <use x="57.519531" xlink:href="#DejaVuSans-49"/>
      <use x="121.142578" xlink:href="#DejaVuSans-83"/>
      <use x="184.619141" xlink:href="#DejaVuSans-99"/>
      <use x="239.599609" xlink:href="#DejaVuSans-111"/>
      <use x="300.78125" xlink:href="#DejaVuSans-114"/>
      <use x="341.863281" xlink:href="#DejaVuSans-101"/>
     </g>
    </g>
   </g>
   <g id="matplotlib.axis_6">
    <g id="ytick_7">
     <g id="line2d_40">
      <g>
       <use style="stroke:#000000;stroke-width:0.8;" x="30.103125" xlink:href="#ma3fe08121c" y="300.095955"/>
      </g>
     </g>
     <g id="text_31">
      <!-- 0.0 -->
      <g transform="translate(7.2 303.895174)scale(0.1 -0.1)">
       <use xlink:href="#DejaVuSans-48"/>
       <use x="63.623047" xlink:href="#DejaVuSans-46"/>
       <use x="95.410156" xlink:href="#DejaVuSans-48"/>
      </g>
     </g>
    </g>
    <g id="ytick_8">
     <g id="line2d_41">
      <g>
       <use style="stroke:#000000;stroke-width:0.8;" x="30.103125" xlink:href="#ma3fe08121c" y="267.147587"/>
      </g>
     </g>
     <g id="text_32">
      <!-- 0.5 -->
      <g transform="translate(7.2 270.946806)scale(0.1 -0.1)">
       <use xlink:href="#DejaVuSans-48"/>
       <use x="63.623047" xlink:href="#DejaVuSans-46"/>
       <use x="95.410156" xlink:href="#DejaVuSans-53"/>
      </g>
     </g>
    </g>
    <g id="ytick_9">
     <g id="line2d_42">
      <g>
       <use style="stroke:#000000;stroke-width:0.8;" x="30.103125" xlink:href="#ma3fe08121c" y="234.199219"/>
      </g>
     </g>
     <g id="text_33">
      <!-- 1.0 -->
      <g transform="translate(7.2 237.998437)scale(0.1 -0.1)">
       <use xlink:href="#DejaVuSans-49"/>
       <use x="63.623047" xlink:href="#DejaVuSans-46"/>
       <use x="95.410156" xlink:href="#DejaVuSans-48"/>
      </g>
     </g>
    </g>
   </g>
   <g id="line2d_43">
    <path clip-path="url(#p180855be9e)" d="M 48.971204 234.199219 
L 61.983673 234.199219 
L 74.996141 234.199219 
L 88.00861 234.199219 
L 101.021078 234.199219 
L 114.033546 234.199219 
L 127.046015 234.199219 
L 140.058483 234.199219 
L 153.070952 234.199219 
L 166.08342 234.199219 
L 179.095889 234.199219 
L 192.108357 234.199219 
L 205.120825 234.199219 
L 218.133294 234.199219 
L 231.145762 234.199219 
L 244.158231 234.199219 
L 257.170699 234.199219 
L 270.183168 234.199219 
L 283.195636 234.199219 
L 296.208104 234.199219 
L 309.220573 234.199219 
L 322.233041 234.199219 
L 335.24551 234.199219 
L 348.257978 234.199219 
L 361.270447 234.199219 
L 374.282915 234.199219 
L 387.295383 234.199219 
L 400.307852 234.199219 
L 413.32032 234.199219 
L 426.332789 234.199219 
" style="fill:none;stroke:#1f77b4;stroke-linecap:square;stroke-width:1.5;"/>
    <g clip-path="url(#p180855be9e)">
     <use style="fill:#1f77b4;stroke:#1f77b4;stroke-linejoin:bevel;" x="48.971204" xlink:href="#m080be93048" y="234.199219"/>
     <use style="fill:#1f77b4;stroke:#1f77b4;stroke-linejoin:bevel;" x="61.983673" xlink:href="#m080be93048" y="234.199219"/>
     <use style="fill:#1f77b4;stroke:#1f77b4;stroke-linejoin:bevel;" x="74.996141" xlink:href="#m080be93048" y="234.199219"/>
     <use style="fill:#1f77b4;stroke:#1f77b4;stroke-linejoin:bevel;" x="88.00861" xlink:href="#m080be93048" y="234.199219"/>
     <use style="fill:#1f77b4;stroke:#1f77b4;stroke-linejoin:bevel;" x="101.021078" xlink:href="#m080be93048" y="234.199219"/>
     <use style="fill:#1f77b4;stroke:#1f77b4;stroke-linejoin:bevel;" x="114.033546" xlink:href="#m080be93048" y="234.199219"/>
     <use style="fill:#1f77b4;stroke:#1f77b4;stroke-linejoin:bevel;" x="127.046015" xlink:href="#m080be93048" y="234.199219"/>
     <use style="fill:#1f77b4;stroke:#1f77b4;stroke-linejoin:bevel;" x="140.058483" xlink:href="#m080be93048" y="234.199219"/>
     <use style="fill:#1f77b4;stroke:#1f77b4;stroke-linejoin:bevel;" x="153.070952" xlink:href="#m080be93048" y="234.199219"/>
     <use style="fill:#1f77b4;stroke:#1f77b4;stroke-linejoin:bevel;" x="166.08342" xlink:href="#m080be93048" y="234.199219"/>
     <use style="fill:#1f77b4;stroke:#1f77b4;stroke-linejoin:bevel;" x="179.095889" xlink:href="#m080be93048" y="234.199219"/>
     <use style="fill:#1f77b4;stroke:#1f77b4;stroke-linejoin:bevel;" x="192.108357" xlink:href="#m080be93048" y="234.199219"/>
     <use style="fill:#1f77b4;stroke:#1f77b4;stroke-linejoin:bevel;" x="205.120825" xlink:href="#m080be93048" y="234.199219"/>
     <use style="fill:#1f77b4;stroke:#1f77b4;stroke-linejoin:bevel;" x="218.133294" xlink:href="#m080be93048" y="234.199219"/>
     <use style="fill:#1f77b4;stroke:#1f77b4;stroke-linejoin:bevel;" x="231.145762" xlink:href="#m080be93048" y="234.199219"/>
     <use style="fill:#1f77b4;stroke:#1f77b4;stroke-linejoin:bevel;" x="244.158231" xlink:href="#m080be93048" y="234.199219"/>
     <use style="fill:#1f77b4;stroke:#1f77b4;stroke-linejoin:bevel;" x="257.170699" xlink:href="#m080be93048" y="234.199219"/>
     <use style="fill:#1f77b4;stroke:#1f77b4;stroke-linejoin:bevel;" x="270.183168" xlink:href="#m080be93048" y="234.199219"/>
     <use style="fill:#1f77b4;stroke:#1f77b4;stroke-linejoin:bevel;" x="283.195636" xlink:href="#m080be93048" y="234.199219"/>
     <use style="fill:#1f77b4;stroke:#1f77b4;stroke-linejoin:bevel;" x="296.208104" xlink:href="#m080be93048" y="234.199219"/>
     <use style="fill:#1f77b4;stroke:#1f77b4;stroke-linejoin:bevel;" x="309.220573" xlink:href="#m080be93048" y="234.199219"/>
     <use style="fill:#1f77b4;stroke:#1f77b4;stroke-linejoin:bevel;" x="322.233041" xlink:href="#m080be93048" y="234.199219"/>
     <use style="fill:#1f77b4;stroke:#1f77b4;stroke-linejoin:bevel;" x="335.24551" xlink:href="#m080be93048" y="234.199219"/>
     <use style="fill:#1f77b4;stroke:#1f77b4;stroke-linejoin:bevel;" x="348.257978" xlink:href="#m080be93048" y="234.199219"/>
     <use style="fill:#1f77b4;stroke:#1f77b4;stroke-linejoin:bevel;" x="361.270447" xlink:href="#m080be93048" y="234.199219"/>
     <use style="fill:#1f77b4;stroke:#1f77b4;stroke-linejoin:bevel;" x="374.282915" xlink:href="#m080be93048" y="234.199219"/>
     <use style="fill:#1f77b4;stroke:#1f77b4;stroke-linejoin:bevel;" x="387.295383" xlink:href="#m080be93048" y="234.199219"/>
     <use style="fill:#1f77b4;stroke:#1f77b4;stroke-linejoin:bevel;" x="400.307852" xlink:href="#m080be93048" y="234.199219"/>
     <use style="fill:#1f77b4;stroke:#1f77b4;stroke-linejoin:bevel;" x="413.32032" xlink:href="#m080be93048" y="234.199219"/>
     <use style="fill:#1f77b4;stroke:#1f77b4;stroke-linejoin:bevel;" x="426.332789" xlink:href="#m080be93048" y="234.199219"/>
    </g>
   </g>
   <g id="line2d_44">
    <path clip-path="url(#p180855be9e)" d="M 48.971204 242.800137 
L 61.983673 244.090125 
L 74.996141 243.378419 
L 88.00861 245.078118 
L 101.021078 244.067839 
L 114.033546 243.147652 
L 127.046015 244.04341 
L 140.058483 243.392015 
L 153.070952 243.435196 
L 166.08342 244.582136 
L 179.095889 244.04206 
L 192.108357 243.457298 
L 205.120825 243.474302 
L 218.133294 243.598201 
L 231.145762 242.957538 
L 244.158231 242.544337 
L 257.170699 243.888504 
L 270.183168 243.940957 
L 283.195636 243.990826 
L 296.208104 245.939714 
L 309.220573 245.343934 
L 322.233041 245.786752 
L 335.24551 245.434535 
L 348.257978 244.020576 
L 361.270447 244.819372 
L 374.282915 244.206046 
L 387.295383 243.939151 
L 400.307852 244.474282 
L 413.32032 243.726158 
L 426.332789 244.312514 
" style="fill:none;stroke:#ff7f0e;stroke-linecap:square;stroke-width:1.5;"/>
   </g>
   <g id="line2d_45">
    <path clip-path="url(#p180855be9e)" d="M 48.971204 243.35955 
L 61.983673 245.903911 
L 74.996141 247.883558 
L 88.00861 244.866251 
L 101.021078 246.855373 
L 114.033546 247.097076 
L 127.046015 244.543274 
L 140.058483 245.99226 
L 153.070952 247.060211 
L 166.08342 244.230694 
L 179.095889 247.66011 
L 192.108357 247.674694 
L 205.120825 243.896159 
L 218.133294 245.375051 
L 231.145762 246.963573 
L 244.158231 244.052589 
L 257.170699 248.209132 
L 270.183168 249.225002 
L 283.195636 245.10131 
L 296.208104 247.772962 
L 309.220573 247.886137 
L 322.233041 244.558397 
L 335.24551 245.735046 
L 348.257978 246.600672 
L 361.270447 245.370424 
L 374.282915 247.363865 
L 387.295383 247.134133 
L 400.307852 244.715259 
L 413.32032 247.232611 
L 426.332789 248.398295 
" style="fill:none;stroke:#2ca02c;stroke-linecap:square;stroke-width:1.5;"/>
   </g>
   <g id="line2d_46">
    <path clip-path="url(#p180855be9e)" d="M 48.971204 245.315477 
L 61.983673 245.879993 
L 74.996141 247.864741 
L 88.00861 250.084568 
L 101.021078 258.908992 
L 114.033546 246.572915 
L 127.046015 245.839882 
L 140.058483 246.400206 
L 153.070952 247.161189 
L 166.08342 259.522931 
L 179.095889 246.756978 
L 192.108357 246.46361 
L 205.120825 247.702339 
L 218.133294 248.674449 
L 231.145762 259.237202 
L 244.158231 247.962402 
L 257.170699 248.010539 
L 270.183168 249.015987 
L 283.195636 250.642215 
L 296.208104 259.955544 
L 309.220573 248.326606 
L 322.233041 248.373348 
L 335.24551 247.848688 
L 348.257978 247.867116 
L 361.270447 258.589249 
L 374.282915 247.728668 
L 387.295383 246.470369 
L 400.307852 247.709973 
L 413.32032 248.437901 
L 426.332789 257.810148 
" style="fill:none;stroke:#d62728;stroke-linecap:square;stroke-width:1.5;"/>
   </g>
   <g id="line2d_47">
    <path clip-path="url(#p180855be9e)" d="M 48.971204 245.315477 
L 61.983673 245.882844 
L 74.996141 247.870279 
L 88.00861 249.97474 
L 101.021078 258.908992 
L 114.033546 258.537746 
L 127.046015 259.246797 
L 140.058483 259.451025 
L 153.070952 259.820627 
L 166.08342 259.480501 
L 179.095889 246.744552 
L 192.108357 246.46361 
L 205.120825 247.702339 
L 218.133294 248.764623 
L 231.145762 259.237202 
L 244.158231 258.418218 
L 257.170699 260.902 
L 270.183168 260.29458 
L 283.195636 259.836719 
L 296.208104 259.976833 
L 309.220573 248.305423 
L 322.233041 248.395055 
L 335.24551 247.858877 
L 348.257978 247.87466 
L 361.270447 258.553305 
L 374.282915 258.379921 
L 387.295383 256.667205 
L 400.307852 256.904943 
L 413.32032 257.230428 
L 426.332789 257.711055 
" style="fill:none;stroke:#9467bd;stroke-linecap:square;stroke-width:1.5;"/>
   </g>
   <g id="line2d_48">
    <path clip-path="url(#p180855be9e)" d="M 48.971204 257.370727 
L 61.983673 257.010394 
L 74.996141 258.393772 
L 88.00861 259.380667 
L 101.021078 258.861746 
L 114.033546 258.629714 
L 127.046015 259.246797 
L 140.058483 259.451025 
L 153.070952 259.820627 
L 166.08342 259.480501 
L 179.095889 258.519557 
L 192.108357 258.228136 
L 205.120825 258.776219 
L 218.133294 258.519165 
L 231.145762 259.167566 
L 244.158231 258.409085 
L 257.170699 259.48217 
L 270.183168 260.29458 
L 283.195636 259.836719 
L 296.208104 259.976833 
L 309.220573 259.720739 
L 322.233041 259.683527 
L 335.24551 258.548359 
L 348.257978 258.526917 
L 361.270447 258.589249 
L 374.282915 258.36409 
L 387.295383 256.667205 
L 400.307852 256.904943 
L 413.32032 257.230428 
L 426.332789 257.711055 
" style="fill:none;stroke:#8c564b;stroke-linecap:square;stroke-width:1.5;"/>
    <g clip-path="url(#p180855be9e)">
     <use style="fill:#8c564b;stroke:#8c564b;" x="48.971204" xlink:href="#m4c19022973" y="257.370727"/>
     <use style="fill:#8c564b;stroke:#8c564b;" x="61.983673" xlink:href="#m4c19022973" y="257.010394"/>
     <use style="fill:#8c564b;stroke:#8c564b;" x="74.996141" xlink:href="#m4c19022973" y="258.393772"/>
     <use style="fill:#8c564b;stroke:#8c564b;" x="88.00861" xlink:href="#m4c19022973" y="259.380667"/>
     <use style="fill:#8c564b;stroke:#8c564b;" x="101.021078" xlink:href="#m4c19022973" y="258.861746"/>
     <use style="fill:#8c564b;stroke:#8c564b;" x="114.033546" xlink:href="#m4c19022973" y="258.629714"/>
     <use style="fill:#8c564b;stroke:#8c564b;" x="127.046015" xlink:href="#m4c19022973" y="259.246797"/>
     <use style="fill:#8c564b;stroke:#8c564b;" x="140.058483" xlink:href="#m4c19022973" y="259.451025"/>
     <use style="fill:#8c564b;stroke:#8c564b;" x="153.070952" xlink:href="#m4c19022973" y="259.820627"/>
     <use style="fill:#8c564b;stroke:#8c564b;" x="166.08342" xlink:href="#m4c19022973" y="259.480501"/>
     <use style="fill:#8c564b;stroke:#8c564b;" x="179.095889" xlink:href="#m4c19022973" y="258.519557"/>
     <use style="fill:#8c564b;stroke:#8c564b;" x="192.108357" xlink:href="#m4c19022973" y="258.228136"/>
     <use style="fill:#8c564b;stroke:#8c564b;" x="205.120825" xlink:href="#m4c19022973" y="258.776219"/>
     <use style="fill:#8c564b;stroke:#8c564b;" x="218.133294" xlink:href="#m4c19022973" y="258.519165"/>
     <use style="fill:#8c564b;stroke:#8c564b;" x="231.145762" xlink:href="#m4c19022973" y="259.167566"/>
     <use style="fill:#8c564b;stroke:#8c564b;" x="244.158231" xlink:href="#m4c19022973" y="258.409085"/>
     <use style="fill:#8c564b;stroke:#8c564b;" x="257.170699" xlink:href="#m4c19022973" y="259.48217"/>
     <use style="fill:#8c564b;stroke:#8c564b;" x="270.183168" xlink:href="#m4c19022973" y="260.29458"/>
     <use style="fill:#8c564b;stroke:#8c564b;" x="283.195636" xlink:href="#m4c19022973" y="259.836719"/>
     <use style="fill:#8c564b;stroke:#8c564b;" x="296.208104" xlink:href="#m4c19022973" y="259.976833"/>
     <use style="fill:#8c564b;stroke:#8c564b;" x="309.220573" xlink:href="#m4c19022973" y="259.720739"/>
     <use style="fill:#8c564b;stroke:#8c564b;" x="322.233041" xlink:href="#m4c19022973" y="259.683527"/>
     <use style="fill:#8c564b;stroke:#8c564b;" x="335.24551" xlink:href="#m4c19022973" y="258.548359"/>
     <use style="fill:#8c564b;stroke:#8c564b;" x="348.257978" xlink:href="#m4c19022973" y="258.526917"/>
     <use style="fill:#8c564b;stroke:#8c564b;" x="361.270447" xlink:href="#m4c19022973" y="258.589249"/>
     <use style="fill:#8c564b;stroke:#8c564b;" x="374.282915" xlink:href="#m4c19022973" y="258.36409"/>
     <use style="fill:#8c564b;stroke:#8c564b;" x="387.295383" xlink:href="#m4c19022973" y="256.667205"/>
     <use style="fill:#8c564b;stroke:#8c564b;" x="400.307852" xlink:href="#m4c19022973" y="256.904943"/>
     <use style="fill:#8c564b;stroke:#8c564b;" x="413.32032" xlink:href="#m4c19022973" y="257.230428"/>
     <use style="fill:#8c564b;stroke:#8c564b;" x="426.332789" xlink:href="#m4c19022973" y="257.711055"/>
    </g>
   </g>
   <g id="patch_13">
    <path d="M 30.103125 300.095955 
L 30.103125 232.881284 
" style="fill:none;stroke:#000000;stroke-linecap:square;stroke-linejoin:miter;stroke-width:0.8;"/>
   </g>
   <g id="patch_14">
    <path d="M 445.200868 300.095955 
L 445.200868 232.881284 
" style="fill:none;stroke:#000000;stroke-linecap:square;stroke-linejoin:miter;stroke-width:0.8;"/>
   </g>
   <g id="patch_15">
    <path d="M 30.103125 300.095955 
L 445.200868 300.095955 
" style="fill:none;stroke:#000000;stroke-linecap:square;stroke-linejoin:miter;stroke-width:0.8;"/>
   </g>
   <g id="patch_16">
    <path d="M 30.103125 232.881284 
L 445.200868 232.881284 
" style="fill:none;stroke:#000000;stroke-linecap:square;stroke-linejoin:miter;stroke-width:0.8;"/>
   </g>
  </g>
  <g id="legend_1">
   <g id="patch_17">
    <path d="M 467.8 210.38658 
L 573.092188 210.38658 
Q 575.092188 210.38658 575.092188 208.38658 
L 575.092188 121.31783 
Q 575.092188 119.31783 573.092188 119.31783 
L 467.8 119.31783 
Q 465.8 119.31783 465.8 121.31783 
L 465.8 208.38658 
Q 465.8 210.38658 467.8 210.38658 
z
" style="fill:#ffffff;opacity:0.8;stroke:#cccccc;stroke-linejoin:miter;"/>
   </g>
   <g id="line2d_49">
    <path d="M 469.8 127.416268 
L 489.8 127.416268 
" style="fill:none;stroke:#1f77b4;stroke-linecap:square;stroke-width:1.5;"/>
   </g>
   <g id="line2d_50">
    <g>
     <use style="fill:#1f77b4;stroke:#1f77b4;stroke-linejoin:bevel;" x="479.8" xlink:href="#m080be93048" y="127.416268"/>
    </g>
   </g>
   <g id="text_34">
    <!-- D30 (baseline) -->
    <defs>
     <path d="M 19.671875 64.796875 
L 19.671875 8.109375 
L 31.59375 8.109375 
Q 46.6875 8.109375 53.6875 14.9375 
Q 60.6875 21.78125 60.6875 36.53125 
Q 60.6875 51.171875 53.6875 57.984375 
Q 46.6875 64.796875 31.59375 64.796875 
z
M 9.8125 72.90625 
L 30.078125 72.90625 
Q 51.265625 72.90625 61.171875 64.09375 
Q 71.09375 55.28125 71.09375 36.53125 
Q 71.09375 17.671875 61.125 8.828125 
Q 51.171875 0 30.078125 0 
L 9.8125 0 
z
" id="DejaVuSans-68"/>
     <path id="DejaVuSans-32"/>
     <path d="M 31 75.875 
Q 24.46875 64.65625 21.28125 53.65625 
Q 18.109375 42.671875 18.109375 31.390625 
Q 18.109375 20.125 21.3125 9.0625 
Q 24.515625 -2 31 -13.1875 
L 23.1875 -13.1875 
Q 15.875 -1.703125 12.234375 9.375 
Q 8.59375 20.453125 8.59375 31.390625 
Q 8.59375 42.28125 12.203125 53.3125 
Q 15.828125 64.359375 23.1875 75.875 
z
" id="DejaVuSans-40"/>
     <path d="M 48.6875 27.296875 
Q 48.6875 37.203125 44.609375 42.84375 
Q 40.53125 48.484375 33.40625 48.484375 
Q 26.265625 48.484375 22.1875 42.84375 
Q 18.109375 37.203125 18.109375 27.296875 
Q 18.109375 17.390625 22.1875 11.75 
Q 26.265625 6.109375 33.40625 6.109375 
Q 40.53125 6.109375 44.609375 11.75 
Q 48.6875 17.390625 48.6875 27.296875 
z
M 18.109375 46.390625 
Q 20.953125 51.265625 25.265625 53.625 
Q 29.59375 56 35.59375 56 
Q 45.5625 56 51.78125 48.09375 
Q 58.015625 40.1875 58.015625 27.296875 
Q 58.015625 14.40625 51.78125 6.484375 
Q 45.5625 -1.421875 35.59375 -1.421875 
Q 29.59375 -1.421875 25.265625 0.953125 
Q 20.953125 3.328125 18.109375 8.203125 
L 18.109375 0 
L 9.078125 0 
L 9.078125 75.984375 
L 18.109375 75.984375 
z
" id="DejaVuSans-98"/>
     <path d="M 8.015625 75.875 
L 15.828125 75.875 
Q 23.140625 64.359375 26.78125 53.3125 
Q 30.421875 42.28125 30.421875 31.390625 
Q 30.421875 20.453125 26.78125 9.375 
Q 23.140625 -1.703125 15.828125 -13.1875 
L 8.015625 -13.1875 
Q 14.5 -2 17.703125 9.0625 
Q 20.90625 20.125 20.90625 31.390625 
Q 20.90625 42.671875 17.703125 53.65625 
Q 14.5 64.65625 8.015625 75.875 
z
" id="DejaVuSans-41"/>
    </defs>
    <g transform="translate(497.8 130.916268)scale(0.1 -0.1)">
     <use xlink:href="#DejaVuSans-68"/>
     <use x="77.001953" xlink:href="#DejaVuSans-51"/>
     <use x="140.625" xlink:href="#DejaVuSans-48"/>
     <use x="204.248047" xlink:href="#DejaVuSans-32"/>
     <use x="236.035156" xlink:href="#DejaVuSans-40"/>
     <use x="275.048828" xlink:href="#DejaVuSans-98"/>
     <use x="338.525391" xlink:href="#DejaVuSans-97"/>
     <use x="399.804688" xlink:href="#DejaVuSans-115"/>
     <use x="451.904297" xlink:href="#DejaVuSans-101"/>
     <use x="513.427734" xlink:href="#DejaVuSans-108"/>
     <use x="541.210938" xlink:href="#DejaVuSans-105"/>
     <use x="568.994141" xlink:href="#DejaVuSans-110"/>
     <use x="632.373047" xlink:href="#DejaVuSans-101"/>
     <use x="693.896484" xlink:href="#DejaVuSans-41"/>
    </g>
   </g>
   <g id="line2d_51">
    <path d="M 469.8 142.094393 
L 489.8 142.094393 
" style="fill:none;stroke:#ff7f0e;stroke-linecap:square;stroke-width:1.5;"/>
   </g>
   <g id="line2d_52"/>
   <g id="text_35">
    <!-- D15-R30 -->
    <defs>
     <path d="M 4.890625 31.390625 
L 31.203125 31.390625 
L 31.203125 23.390625 
L 4.890625 23.390625 
z
" id="DejaVuSans-45"/>
    </defs>
    <g transform="translate(497.8 145.594393)scale(0.1 -0.1)">
     <use xlink:href="#DejaVuSans-68"/>
     <use x="77.001953" xlink:href="#DejaVuSans-49"/>
     <use x="140.625" xlink:href="#DejaVuSans-53"/>
     <use x="204.248047" xlink:href="#DejaVuSans-45"/>
     <use x="240.332031" xlink:href="#DejaVuSans-82"/>
     <use x="309.814453" xlink:href="#DejaVuSans-51"/>
     <use x="373.4375" xlink:href="#DejaVuSans-48"/>
    </g>
   </g>
   <g id="line2d_53">
    <path d="M 469.8 156.772518 
L 489.8 156.772518 
" style="fill:none;stroke:#2ca02c;stroke-linecap:square;stroke-width:1.5;"/>
   </g>
   <g id="line2d_54"/>
   <g id="text_36">
    <!-- D10-R30 -->
    <g transform="translate(497.8 160.272518)scale(0.1 -0.1)">
     <use xlink:href="#DejaVuSans-68"/>
     <use x="77.001953" xlink:href="#DejaVuSans-49"/>
     <use x="140.625" xlink:href="#DejaVuSans-48"/>
     <use x="204.248047" xlink:href="#DejaVuSans-45"/>
     <use x="240.332031" xlink:href="#DejaVuSans-82"/>
     <use x="309.814453" xlink:href="#DejaVuSans-51"/>
     <use x="373.4375" xlink:href="#DejaVuSans-48"/>
    </g>
   </g>
   <g id="line2d_55">
    <path d="M 469.8 171.450643 
L 489.8 171.450643 
" style="fill:none;stroke:#d62728;stroke-linecap:square;stroke-width:1.5;"/>
   </g>
   <g id="line2d_56"/>
   <g id="text_37">
    <!-- D6-R30 -->
    <defs>
     <path d="M 33.015625 40.375 
Q 26.375 40.375 22.484375 35.828125 
Q 18.609375 31.296875 18.609375 23.390625 
Q 18.609375 15.53125 22.484375 10.953125 
Q 26.375 6.390625 33.015625 6.390625 
Q 39.65625 6.390625 43.53125 10.953125 
Q 47.40625 15.53125 47.40625 23.390625 
Q 47.40625 31.296875 43.53125 35.828125 
Q 39.65625 40.375 33.015625 40.375 
z
M 52.59375 71.296875 
L 52.59375 62.3125 
Q 48.875 64.0625 45.09375 64.984375 
Q 41.3125 65.921875 37.59375 65.921875 
Q 27.828125 65.921875 22.671875 59.328125 
Q 17.53125 52.734375 16.796875 39.40625 
Q 19.671875 43.65625 24.015625 45.921875 
Q 28.375 48.1875 33.59375 48.1875 
Q 44.578125 48.1875 50.953125 41.515625 
Q 57.328125 34.859375 57.328125 23.390625 
Q 57.328125 12.15625 50.6875 5.359375 
Q 44.046875 -1.421875 33.015625 -1.421875 
Q 20.359375 -1.421875 13.671875 8.265625 
Q 6.984375 17.96875 6.984375 36.375 
Q 6.984375 53.65625 15.1875 63.9375 
Q 23.390625 74.21875 37.203125 74.21875 
Q 40.921875 74.21875 44.703125 73.484375 
Q 48.484375 72.75 52.59375 71.296875 
z
" id="DejaVuSans-54"/>
    </defs>
    <g transform="translate(497.8 174.950643)scale(0.1 -0.1)">
     <use xlink:href="#DejaVuSans-68"/>
     <use x="77.001953" xlink:href="#DejaVuSans-54"/>
     <use x="140.625" xlink:href="#DejaVuSans-45"/>
     <use x="176.708984" xlink:href="#DejaVuSans-82"/>
     <use x="246.191406" xlink:href="#DejaVuSans-51"/>
     <use x="309.814453" xlink:href="#DejaVuSans-48"/>
    </g>
   </g>
   <g id="line2d_57">
    <path d="M 469.8 186.128768 
L 489.8 186.128768 
" style="fill:none;stroke:#9467bd;stroke-linecap:square;stroke-width:1.5;"/>
   </g>
   <g id="line2d_58"/>
   <g id="text_38">
    <!-- D3-R30 -->
    <g transform="translate(497.8 189.628768)scale(0.1 -0.1)">
     <use xlink:href="#DejaVuSans-68"/>
     <use x="77.001953" xlink:href="#DejaVuSans-51"/>
     <use x="140.625" xlink:href="#DejaVuSans-45"/>
     <use x="176.708984" xlink:href="#DejaVuSans-82"/>
     <use x="246.191406" xlink:href="#DejaVuSans-51"/>
     <use x="309.814453" xlink:href="#DejaVuSans-48"/>
    </g>
   </g>
   <g id="line2d_59">
    <path d="M 469.8 200.806893 
L 489.8 200.806893 
" style="fill:none;stroke:#8c564b;stroke-linecap:square;stroke-width:1.5;"/>
   </g>
   <g id="line2d_60">
    <g>
     <use style="fill:#8c564b;stroke:#8c564b;" x="479.8" xlink:href="#m4c19022973" y="200.806893"/>
    </g>
   </g>
   <g id="text_39">
    <!-- R30 -->
    <g transform="translate(497.8 204.306893)scale(0.1 -0.1)">
     <use xlink:href="#DejaVuSans-82"/>
     <use x="69.482422" xlink:href="#DejaVuSans-51"/>
     <use x="133.105469" xlink:href="#DejaVuSans-48"/>
    </g>
   </g>
  </g>
 </g>
 <defs>
  <clipPath id="p0ca1f6dd97">
   <rect height="67.214671" width="415.097743" x="30.103125" y="9.681284"/>
  </clipPath>
  <clipPath id="p387d7ab9dd">
   <rect height="67.214671" width="415.097743" x="30.103125" y="121.281284"/>
  </clipPath>
  <clipPath id="p180855be9e">
   <rect height="67.214671" width="415.097743" x="30.103125" y="232.881284"/>
  </clipPath>
 </defs>
</svg>
